<?xml version="1.0" standalone="no"?>
<!DOCTYPE svg PUBLIC "-//W3C//DTD SVG 1.1//EN" "http://www.w3.org/Graphics/SVG/1.1/DTD/svg11.dtd" >
<svg xmlns="http://www.w3.org/2000/svg">
<metadata>
This is a custom SVG webfont generated by Font Squirrel.
Copyright   :  Mark Simonson 2001
</metadata>
<defs>
<font id="CoquetteRegular" horiz-adv-x="1021" >
<font-face units-per-em="2048" ascent="1638" descent="-410" />
<missing-glyph horiz-adv-x="542" />
<glyph unicode=" "  horiz-adv-x="542" />
<glyph unicode="&#x09;" horiz-adv-x="542" />
<glyph unicode="&#xa0;" horiz-adv-x="542" />
<glyph unicode="!" horiz-adv-x="563" d="M168 94q0 47 34 81t79 34q47 0 80.5 -34t33.5 -81t-33.5 -79.5t-80.5 -32.5q-45 0 -79 32.5t-34 79.5zM195 1454h174l-17 -698q-4 -119 -10 -355h-123q1 21 -24 1053z" />
<glyph unicode="&#x22;" horiz-adv-x="806" d="M102 1114q96 57 127 137q-45 2 -76.5 34t-31.5 79q0 45 32.5 79t79.5 34q123 0 123 -142q0 -184 -196 -295zM436 1114q96 57 129 137q-47 2 -78.5 34t-31.5 79q0 45 33.5 79t78.5 34q123 0 123 -142q0 -184 -196 -295z" />
<glyph unicode="#" horiz-adv-x="980" d="M31 416l24 114h207l55 254h-206l24 113h207l35 164h115l-37 -164h180l35 164h114l-34 -164h200l-24 -113h-201l-55 -254h200l-24 -114h-201l-37 -168h-114l36 168h-180l-35 -168h-114l37 168h-207zM375 530h180l55 254h-180z" />
<glyph unicode="$" horiz-adv-x="628" d="M113 698q0 68 37.5 122t103.5 75v166h117v-160q57 -8 94 -31v-147q-51 49 -113 49q-84 0 -84 -80q0 -33 66 -78q96 -68 117 -88q66 -63 65 -141q0 -158 -145 -207v-178h-117v168q-68 8 -115 37v145q57 -51 125 -51q41 0 67.5 25.5t26.5 66.5q0 49 -61 92l-121 86 q-63 55 -63 129z" />
<glyph unicode="%" horiz-adv-x="1503" d="M72 813q0 113 78.5 191.5t189.5 78.5q113 0 191.5 -78.5t78.5 -191.5q0 -111 -78.5 -189.5t-191.5 -78.5q-111 0 -189.5 78.5t-78.5 189.5zM188 813.5q0 -63.5 44 -107.5t107.5 -44t109 44t45.5 107q0 18 -5 37q-18 -8 -36 -8q-37 0 -64 26.5t-27 63.5q0 16 7 31 q-14 4 -29 4q-63 0 -107.5 -45t-44.5 -108.5zM293 57l821 1028l100 -79l-821 -1029zM893 249.5q0 110.5 79 190.5t191 80q111 0 190 -80t79 -190.5t-79 -189t-190 -78.5q-113 0 -191.5 78.5t-78.5 189zM1010 249.5q0 -63.5 45 -107.5t108.5 -44t107.5 44t44 108q0 16 -4 37 q-18 -8 -37 -8q-37 0 -62.5 26.5t-25.5 63.5q0 16 6 30q-16 4 -29 4q-63 0 -108 -45t-45 -108.5z" />
<glyph unicode="&#x26;" horiz-adv-x="1411" d="M72 979q0 236 190 375q170 123 414 123q328 0 454 -207q49 -80 50 -170q0 -145 -97.5 -243.5t-244.5 -117.5l-45 146q94 12 159 65q74 61 74 150q0 121 -125 180q-96 47 -229 47q-172 0 -297 -86q-141 -96 -142 -262q0 -186 160 -295q143 -94 338 -88v-143 q-338 0 -338 -172q0 -80 94 -123q72 -35 164 -35q147 0 242 67q106 76 106 218q0 66 -10 149h422v-147h-283v-33q0 -195 -143 -301q-127 -94 -328 -94q-168 0 -280 61q-143 76 -144 231q0 102 72 172q66 68 170 80q-178 27 -290.5 152t-112.5 301z" />
<glyph unicode="'" horiz-adv-x="473" d="M102 1114q96 57 127 137q-45 2 -76.5 34t-31.5 79q0 45 32.5 79t79.5 34q123 0 123 -142q0 -184 -196 -295z" />
<glyph unicode="(" horiz-adv-x="602" d="M113 502q0 553 352 979l94 -78q-324 -393 -323 -901q0 -510 325 -903l-94 -78q-354 426 -354 981z" />
<glyph unicode=")" horiz-adv-x="602" d="M113 -401q326 393 325 903q0 508 -323 901l94 78q352 -426 352 -979q0 -555 -354 -981z" />
<glyph unicode="*" horiz-adv-x="770" d="M72 631l223 112l-223 113l59 102l209 -137l-14 248h118l-14 -248l209 137l59 -102l-223 -113l223 -114l-59 -101l-209 138l14 -252h-118l14 252l-209 -138z" />
<glyph unicode="+" horiz-adv-x="962" d="M72 375v149h336v336h149v-336h334v-149h-334v-336h-149v336h-336z" />
<glyph unicode="," horiz-adv-x="569" d="M150 -154q96 57 126 136q-45 4 -76.5 35.5t-31.5 76.5q0 47 32.5 81t80.5 34q123 0 122 -143q0 -182 -196 -293z" />
<glyph unicode="-" horiz-adv-x="632" d="M72 375v149h489v-149h-489z" />
<glyph unicode="." horiz-adv-x="559" d="M166 94q0 47 33.5 81t79.5 34q47 0 80.5 -34t33.5 -81t-33.5 -79.5t-80.5 -32.5q-45 0 -79 32.5t-34 79.5z" />
<glyph unicode="/" horiz-adv-x="886" d="M-20 -389l813 1812l114 -53l-811 -1812z" />
<glyph unicode="0" horiz-adv-x="1026" d="M113 528q0 211 92 367q113 184 309.5 184t306.5 -184q92 -156 92 -367q0 -209 -92 -364q-111 -184 -307 -184q-199 0 -309 184q-92 155 -92 364zM260 528.5q0 -147.5 53 -260.5q70 -147 201 -147t199 147q53 113 53 260.5t-53 262.5q-68 150 -199 149.5t-201 -149.5 q-53 -115 -53 -262.5z" />
<glyph unicode="1" horiz-adv-x="741" d="M41 580v149q145 0 257 95.5t112 236.5h147v-1061h-147v782q-51 -94 -153.5 -148t-215.5 -54z" />
<glyph unicode="2" horiz-adv-x="985" d="M113 737q0 145 106.5 244.5t251.5 99.5q172 0 273.5 -97t101.5 -269q0 -152 -131 -316q-102 -129 -258 -235q23 4 43 4q39 0 108.5 -24.5t108.5 -24.5q82 0 155 45v-146q-82 -41 -165 -41q-51 0 -144.5 34t-142.5 34q-88 0 -199 -68l-69 132q203 119 344 249 q203 193 202 357q0 106 -59 167.5t-168 61.5q-90 0 -150.5 -58.5t-60.5 -148.5q0 -104 84 -155l-88 -109q-143 96 -143 264z" />
<glyph unicode="3" horiz-adv-x="976" d="M113 172l104 102q113 -154 283 -153q88 0 153.5 62.5t65.5 148.5q0 92 -57.5 151.5t-149.5 59.5q-90 0 -150 -64l-94 117l340 324h-461v141h648v-137l-289 -279q29 12 53 12q129 0 217 -98t88 -227q0 -150 -106.5 -250t-257.5 -100q-237 0 -387 190z" />
<glyph unicode="4" horiz-adv-x="970" d="M61 195v186q170 78 277 289q98 193 98 391h154q0 -201 -105 -410q-111 -221 -276 -315h362v221l148 57v-278h190v-141h-190v-195h-148v195h-510z" />
<glyph unicode="5" horiz-adv-x="985" d="M113 180l104 103q115 -164 289 -164q94 0 155.5 65.5t61.5 159.5q0 90 -61.5 144.5t-153.5 54.5q-154 0 -234 -127l-127 63l84 582h574v-137h-465l-43 -324q80 78 217 78q154 0 256 -92t102 -242q0 -160 -103 -261t-263 -101q-241 -1 -393 198z" />
<glyph unicode="6" horiz-adv-x="974" d="M113 418q0 211 125 393q113 168 307 281l84 -115q-315 -172 -353 -447q35 61 99.5 102.5t132.5 41.5q154 0 254 -96.5t100 -247.5q0 -143 -107.5 -245.5t-250.5 -102.5q-184 0 -291 129q-100 121 -100 307zM270 324q0 -16 13 -52q55 -158 215 -157q88 0 152.5 64.5 t64.5 152.5q0 94 -62.5 152.5t-158.5 58.5q-88 0 -156 -66.5t-68 -152.5z" />
<glyph unicode="7" horiz-adv-x="921" d="M72 895v145q74 41 172 41q55 0 159.5 -31.5t159.5 -31.5q96 0 205 61l82 -149q-201 -127 -310.5 -322.5t-109.5 -429.5q0 -88 16 -178h-153q-12 80 -12 156q0 215 90 413q92 209 256 336q-57 -16 -113 -16q-49 0 -141 25.5t-140 25.5q-93 0 -161 -45z" />
<glyph unicode="8" horiz-adv-x="1001" d="M113 313q0 96 61.5 170t155.5 103q-66 27 -110 86t-44 129q0 121 103 203q96 76 221 75q127 0 223 -75q102 -82 102 -203q0 -72 -44 -129.5t-111 -83.5q98 -29 158.5 -101.5t60.5 -173.5q0 -154 -121 -247q-109 -86 -268 -86q-158 0 -267 88q-120 91 -120 245zM260 319 q0 -90 78 -147q72 -53 162 -53q92 0 165.5 55t73.5 145q0 88 -73.5 143.5t-165.5 55.5q-90 0 -162 -53q-78 -58 -78 -146zM319 799q0 -66 60 -111q53 -41 121 -41q70 0 125 43t55 109q0 68 -55.5 112.5t-124.5 44.5q-68 0 -124.5 -44.5t-56.5 -112.5z" />
<glyph unicode="9" horiz-adv-x="968" d="M113 733q0 143 106.5 244.5t251.5 101.5q182 0 287 -129q98 -121 98 -307q0 -211 -121 -393q-113 -170 -307 -281l-82 115q313 172 350 446q-35 -61 -98 -102t-133 -41q-154 0 -253 97t-99 249zM258 729q0 -94 63.5 -152.5t157.5 -58.5q88 0 155.5 66.5t67.5 152.5 q0 16 -12 51q-55 158 -215 158q-88 0 -152.5 -64.5t-64.5 -152.5z" />
<glyph unicode=":" horiz-adv-x="559" d="M166 94q0 47 33.5 81t79.5 34q47 0 80.5 -34t33.5 -81t-33.5 -79.5t-80.5 -32.5q-45 0 -79 32.5t-34 79.5zM166 629q0 45 33.5 78.5t79.5 33.5q47 0 80.5 -33.5t33.5 -78.5q0 -47 -33.5 -81t-80.5 -34q-45 0 -79 34t-34 81z" />
<glyph unicode=";" horiz-adv-x="569" d="M150 -154q96 57 126 136q-45 4 -76.5 35.5t-31.5 76.5q0 47 32.5 81t80.5 34q123 0 122 -143q0 -182 -196 -293zM170 629q0 45 34 78.5t79 33.5q47 0 80.5 -33.5t33.5 -78.5q0 -47 -33.5 -81t-80.5 -34q-45 0 -79 34t-34 81z" />
<glyph unicode="&#x3c;" horiz-adv-x="786" d="M61 516l557 557l107 -104l-453 -453l453 -453l-107 -106z" />
<glyph unicode="=" horiz-adv-x="964" d="M72 190v150h821v-150h-821zM72 623v149h821v-149h-821z" />
<glyph unicode="&#x3e;" horiz-adv-x="786" d="M61 63l453 453l-453 453l107 104l557 -557l-557 -559z" />
<glyph unicode="?" horiz-adv-x="849" d="M61 1147q0 147 117 242q109 88 260 88q150 0 248 -82q102 -88 102 -236q0 -111 -88 -203l-168 -143q-90 -82 -90 -168q0 -111 90 -127l-65 -117q-74 14 -124 84t-50 148q0 125 90 223l168 145q90 80 90 156q0 82 -59.5 131t-143.5 49q-94 0 -161.5 -51t-67.5 -143 q0 -74 47 -119l-100 -96q-95 84 -95 219zM340 94q0 47 34 81t81 34q45 0 78.5 -34t33.5 -81t-33.5 -79.5t-78.5 -32.5q-47 0 -81 32.5t-34 79.5z" />
<glyph unicode="@" horiz-adv-x="1325" d="M113 537q0 225 161.5 384.5t387 159.5t388 -159.5t162.5 -384.5q0 -104 -43 -195q-53 -111 -147 -111q-106 0 -139 113q-82 -139 -242 -139q-135 0 -225 96t-90 231.5t90 231.5t225 96q152 0 231 -123v90h123v-415q0 -74 60 -74q90 0 90 198.5t-143.5 339t-344.5 140.5 q-193 0 -336 -143.5t-143 -335.5q0 -199 142.5 -343.5t341.5 -144.5q193 0 333 135l47 -47q-145 -154 -385 -153q-227 0 -385.5 163t-158.5 390zM446 532.5q0 -90.5 63.5 -155t152.5 -64.5q139 0 198 129q12 31 12 41v101q0 8 -12 39q-59 129 -198 129q-88 0 -152 -64.5 t-64 -155z" />
<glyph unicode="A" horiz-adv-x="1497" d="M61 963q0 104 54 208q78 150 229 232q143 76 322 76q190 0 340.5 -86t226.5 -254q49 -115 49 -240v-659q0 -111 98 -111q74 0 117 47v-149q-49 -45 -149 -45q-111 0 -168.5 67.5t-57.5 179.5v74h-452v-303h-160v303h-184v148h184v270q0 270 186 412l99 -123 q-125 -84 -125 -289v-270h452v442q0 190 -133 313t-323 123q-131 0 -240 -55q-117 -61 -174 -170q-37 -72 -37 -141q0 -125 68 -211l-117 -99q-105 126 -105 310z" />
<glyph unicode="B" horiz-adv-x="1441" d="M61 864q0 287 201 455q188 158 483 158q166 0 302 -47q168 -59 268 -181q106 -131 106 -301q0 -166 -121 -278q-115 -104 -282 -121q115 -10 201 -93t86 -198q0 -121 -85 -198.5t-208 -77.5q-217 0 -289 163q-41 -164 -211 -163q-104 0 -154 49v151q45 -53 119 -53 q96 0 96 115v878h160v-506h13q515 0 516 326q0 188 -170 295q-143 90 -342 90q-229 0 -375 -115q-160 -127 -160 -348q0 -137 82 -225l-117 -100q-119 126 -119 325zM733 283q0 -16 17 -50q51 -117 211 -116q76 0 133 44t57 118q0 213 -324 213q-16 0 -94 -5v-204z" />
<glyph unicode="C" horiz-adv-x="1368" d="M113 702q0 319 204 543q211 231 527 232q336 0 461 -242q43 -84 43 -176q0 -178 -124 -297t-302 -119q-139 0 -256 80l67 135q88 -63 182 -63q115 0 194 74.5t79 189.5q0 129 -111 203q-96 63 -233 63q-250 0 -416 -190q-156 -184 -156 -439q0 -260 165 -412.5 t427 -152.5q109 0 217 37q121 41 189 113v-189q-164 -111 -406 -110q-332 0 -538 192q-213 198 -213 528z" />
<glyph unicode="D" horiz-adv-x="1751" d="M41 813q0 315 229 496q211 168 535 168q346 0 589.5 -231.5t243.5 -575.5q0 -291 -143 -480q-160 -209 -440 -208q-256 0 -346 196q-27 -197 -217 -196q-102 0 -154 49v151q45 -53 119 -53q96 0 96 115v878h160v-755q0 -16 20 -62q82 -184 322 -184q213 0 325 174 q98 150 99 375q0 279 -194.5 468t-475.5 189q-262 0 -428 -123q-186 -139 -186 -391q0 -123 77 -227l-118 -97q-113 142 -113 324z" />
<glyph unicode="E" horiz-adv-x="1189" d="M61 979q0 236 193 375q170 123 414 123q324 0 450 -203q51 -80 51 -174q0 -145 -97 -243.5t-245 -117.5l-45 146q94 12 160 65q74 61 74 150q0 121 -123 180q-96 47 -229 47q-172 0 -297 -86q-143 -96 -144 -262q0 -186 160 -295q135 -88 314 -88h24v-143 q-338 0 -338 -172q0 -82 96 -125q74 -33 168 -33q184 0 297 86v-160q-127 -68 -317 -67q-158 0 -269 65q-135 80 -135 225q0 102 67.5 170t172.5 84q-176 29 -289 154t-113 299z" />
<glyph unicode="F" horiz-adv-x="1492" d="M61 1079q0 180 136 283q123 92 307 92h989v-147q-186 0 -305 -142q-111 -133 -111 -321v-232h293v-147h-293v-162q0 -133 -82 -227t-213 -94q-164 0 -231 59v162q74 -76 209 -76q72 0 115 52t43 124v162h-295v147h295v232q0 156 69 278q78 133 217 183h-708 q-121 0 -193 -52q-84 -59 -84 -176q0 -100 82 -162q72 -53 178 -53l-41 -147q-166 10 -268 104q-109 98 -109 260z" />
<glyph unicode="G" horiz-adv-x="1425" d="M113 696q0 319 214 550t531 231q338 0 463 -234q43 -82 43 -170q0 -150 -107.5 -253t-257.5 -103q-113 0 -202 55l59 135q57 -37 143 -37t150.5 58.5t64.5 144.5q0 121 -122 193q-104 59 -233.5 59t-252.5 -61q-160 -82 -247 -233.5t-87 -334.5q0 -248 123 -399 q135 -166 375 -166q209 0 320 117v260h159v-662q0 -236 -209 -352l-84 131q133 55 134 221v240q-129 -104 -324 -104q-303 0 -483 208q-170 197 -170 506z" />
<glyph unicode="H" horiz-adv-x="1890" d="M61 1028q0 193 154 324q145 125 340 125q283 0 440 -203q141 -186 142 -479q0 -66 -9 -142h353v801h157v-1198q0 -127 109 -127q88 0 143 68v-154q-61 -61 -176 -61q-233 0 -233 264v260h-379q-66 -248 -240 -386t-428 -138v147q184 0 315.5 99.5t186.5 277.5h-215v147 h246q10 72 10 142q0 227 -94 368q-111 164 -328 164q-133 0 -231 -80q-104 -86 -105 -219q0 -59 32 -121.5t79 -95.5l-103 -117q-74 49 -120 145.5t-46 188.5z" />
<glyph unicode="I" horiz-adv-x="1120" d="M61 1055q0 182 129 302t312 120q186 0 310 -124t124 -313v-718q0 -145 -88 -242.5t-232 -97.5q-135 0 -204 63v168q82 -86 192 -86q78 0 125 57.5t47 137.5v718q0 117 -80 202t-194 85q-119 0 -200 -78t-81 -194q0 -68 38 -129.5t97 -91.5l-110 -111q-80 45 -132.5 141.5 t-52.5 190.5z" />
<glyph unicode="J" horiz-adv-x="1120" d="M61 1055q0 182 128 302t313 120q186 0 310 -124t124 -313v-1175q0 -145 -88 -242.5t-232 -97.5q-135 0 -206 63v168q84 -84 194 -84q78 0 125 56.5t47 136.5v1175q0 117 -80 202t-194 85q-119 0 -200 -78t-81 -194q0 -68 38 -129.5t97 -91.5l-110 -111 q-80 45 -132.5 141.5t-52.5 190.5z" />
<glyph unicode="K" horiz-adv-x="1951" d="M61 1028q0 193 154 324q145 125 340 125q283 0 440 -203q141 -186 142 -479q0 -59 -9 -131h121q145 0 228 104q78 96 77 246v440h158v-440q0 -172 -90 -289q-96 -125 -262 -141q125 -18 201 -138l108 -210q68 -109 174 -109q59 0 109 37v-146q-57 -37 -152 -36 q-127 0 -209 94q-53 59 -118 207q-104 233 -265 233h-104q-63 -252 -237.5 -393t-432.5 -141v147q272 0 416 203q127 178 127 463q0 227 -94 368q-111 164 -328 164q-133 0 -231 -80q-104 -86 -105 -219q0 -59 32 -121.5t79 -95.5l-103 -117q-74 49 -120 145.5t-46 188.5z " />
<glyph unicode="L" horiz-adv-x="1327" d="M41 0v145q121 0 202 72t81 191v634q0 195 125.5 315t320.5 120t317.5 -115t122.5 -307q0 -92 -52 -192.5t-130 -147.5l-108 104q131 80 131 236q0 121 -80 195.5t-201 74.5t-204 -80t-83 -203v-641q0 -82 -41 -153.5t-112 -104.5h553q229 0 350 150l94 -100 q-78 -111 -190 -156q-96 -37 -246 -37h-850z" />
<glyph unicode="M" horiz-adv-x="2334" d="M61 1096q0 170 106.5 275.5t276.5 105.5q276 0 369 -244q86 244 342 244q104 0 184 -56.5t113 -154.5q94 211 328 211q143 0 230 -98.5t87 -243.5v-895q0 -47 28.5 -79t74.5 -32q84 0 135 61v-153q-51 -55 -166 -55q-106 0 -169 68.5t-63 178.5v901q0 86 -51 141.5 t-137 55.5q-123 0 -201 -94q-70 -86 -75 -213q-4 -82 -5 -387q0 -113 2 -318q2 -246 3 -315h-160v1130q0 86 -51.5 141.5t-137.5 55.5q-94 0 -168 -63q-66 -57 -94 -154q-16 -53 -16 -80v-1030h-160v1053q0 117 -61 190q-66 82 -181 82q-98 0 -163.5 -65.5t-65.5 -163.5 q0 -59 36 -118.5t87 -88.5l-105 -98q-78 45 -125 130t-47 175z" />
<glyph unicode="N" horiz-adv-x="1847" d="M61 1096q0 170 106.5 275.5t276.5 105.5q272 0 367 -240q57 117 165.5 178.5t242.5 61.5q174 0 282.5 -120t108.5 -296v-821q0 -47 28.5 -79t73.5 -32q86 0 135 61v-153q-51 -55 -166 -55q-106 0 -168.5 68.5t-62.5 178.5v832q0 119 -71.5 192.5t-188.5 73.5 q-139 0 -241.5 -98.5t-102.5 -237.5v-991h-160v1053q0 117 -61 190q-66 82 -181 82q-98 0 -163.5 -65.5t-65.5 -163.5q0 -59 36 -118.5t87 -88.5l-105 -98q-78 45 -125 130t-47 175z" />
<glyph unicode="O" horiz-adv-x="1796" d="M113 776q0 170 71.5 330t200.5 268q96 84 195 109v-162q-143 -76 -225.5 -226.5t-82.5 -316.5q0 -268 184.5 -456.5t450.5 -188.5q250 0 436 197q180 195 181 446q0 211 -109 375q-125 186 -325 186q-96 0 -166 -59q-76 -61 -76 -156q0 -92 54 -154.5t145 -62.5 q106 0 167 43l60 -125q-92 -63 -238 -63q-152 0 -248 110q-90 104 -90 258q0 152 117 252.5t270 100.5q270 0 441 -221q158 -205 157 -484q0 -166 -75 -330q-98 -213 -284.5 -338.5t-418.5 -125.5q-324 0 -558 235t-234 559z" />
<glyph unicode="P" horiz-adv-x="1568" d="M61 866q0 279 211 451q197 160 484 160q293 0 489 -140q221 -158 221 -442q0 -143 -77.5 -263t-208.5 -183q-96 -47 -191 -48q-152 0 -256 43v-211q0 -113 -53 -180q-59 -72 -168 -71q-104 0 -154 49v151q45 -53 119 -53q96 0 96 115v878h160v-544q104 -41 221 -41 q147 0 250 102t103 252q0 219 -170 336q-147 100 -379 100q-219 0 -373 -119q-170 -129 -170 -342q0 -137 82 -221l-115 -100q-121 122 -121 321z" />
<glyph unicode="Q" horiz-adv-x="1443" d="M102 922q0 252 195 409q182 145 440 146q260 0 427 -171t167 -432q0 -303 -248 -530q-227 -207 -542 -254q45 -6 217 -51q131 -37 219 -37q137 0 264 55v-161q-123 -43 -270 -43q-131 0 -346 73.5t-344 73.5l-2 152q326 8 593 198q297 215 297 524q0 193 -120.5 322 t-311.5 129q-193 0 -327 -104q-150 -113 -150 -299q0 -152 91 -250.5t243 -104.5l-51 -147q-195 16 -318 160.5t-123 341.5z" />
<glyph unicode="R" horiz-adv-x="1552" d="M61 860q0 281 211 455q197 162 484 162q274 0 461 -127q211 -147 210 -410q0 -168 -128 -285.5t-300 -132.5q109 -20 183 -125l104 -180q59 -92 144 -92q76 0 122 35v-146q-53 -33 -159 -32q-188 0 -301 266q-86 209 -252 209h-103v-224q0 -113 -53 -180 q-59 -72 -170 -71q-104 0 -152 49v141q45 -53 119 -53q96 0 97 114v889h159v-528h88q174 0 301 80q145 94 146 260q0 197 -164 303q-141 90 -348 90q-221 0 -377 -121q-168 -133 -168 -346q0 -137 82 -219l-115 -102q-121 124 -121 321z" />
<glyph unicode="S" horiz-adv-x="985" d="M72 1079q0 186 137 297q125 100 315 101q170 0 291 -97q129 -104 129 -272q0 -178 -176 -268l-100 102q117 63 116 166q0 104 -76.5 163.5t-183.5 59.5q-121 0 -202 -63q-92 -70 -93 -189q0 -125 148 -245l272 -211q145 -139 146 -312q0 -150 -99.5 -239.5t-249.5 -89.5 q-106 0 -186 49v178q88 -78 186 -78q80 0 136.5 50t56.5 130q0 135 -147 254l-273 207q-147 135 -147 307z" />
<glyph unicode="T" horiz-adv-x="1492" d="M61 1079q0 180 136 283q123 92 309 92h987v-147q-186 0 -305 -142q-111 -133 -111 -321v-522q0 -139 -86 -239.5t-223 -100.5q-162 0 -231 61v160q70 -68 196 -68q82 0 133.5 52.5t51.5 134.5v522q0 158 69 280q76 133 219 181h-710q-121 0 -193 -52q-84 -59 -84 -176 q0 -100 82 -162q72 -53 178 -53l-41 -147q-166 10 -268 104q-109 98 -109 260z" />
<glyph unicode="U" horiz-adv-x="1857" d="M61 1114q0 166 106.5 264.5t274.5 98.5q182 0 293 -120t111 -306v-635q0 -129 67 -207q74 -84 199 -84q150 0 246 111q90 104 90 256v962h160v-1196q0 -53 31.5 -91t82.5 -38q90 0 136 61v-155q-51 -53 -168 -53q-96 0 -159 55t-77 151q-109 -207 -369 -206 q-182 0 -290.5 124.5t-108.5 309.5v635q0 113 -66.5 193.5t-177.5 80.5q-94 0 -157.5 -59.5t-63.5 -151.5q0 -127 111 -209l-111 -102q-160 118 -160 311z" />
<glyph unicode="V" horiz-adv-x="1855" d="M61 1102q0 168 105.5 271.5t275.5 103.5q186 0 299 -129q106 -121 107 -314v-579q0 -143 76 -234q82 -96 223 -96t225 91t84 235v776q0 250 236 250q113 0 163 -54v-153q-51 59 -131 59q-111 0 -110 -112v-766q0 -205 -133 -338t-340 -133q-201 0 -327 135t-126 340v579 q0 119 -63 201q-70 90 -183 90q-96 0 -158.5 -64.5t-62.5 -158.5q0 -129 115 -199l-109 -106q-76 49 -121 132t-45 173z" />
<glyph unicode="W" horiz-adv-x="2344" d="M61 1110q0 166 107.5 266.5t275.5 100.5q190 0 299 -123t109 -320v-657q0 -100 60.5 -172t158.5 -72q109 0 177.5 69.5t68.5 178.5v1073h160v-1071q0 -111 63.5 -180.5t171.5 -69.5q104 0 167 68.5t63 173.5v850q0 252 235 252q117 0 168 -56v-153q-53 61 -135 61 q-109 0 -109 -115v-839q0 -176 -106.5 -284.5t-282.5 -108.5q-240 0 -313 217q-86 -217 -328 -217q-168 0 -273.5 112.5t-105.5 282.5v657q0 125 -61 205q-68 88 -187 88q-96 0 -160.5 -60.5t-64.5 -154.5q0 -61 34 -119.5t87 -87.5l-107 -106q-80 45 -126 130t-46 181z" />
<glyph unicode="X" horiz-adv-x="1835" d="M61 1038q0 199 148 322q137 117 340 117q225 0 377 -170q104 -119 211 -375q111 264 245 389q168 156 422 156v-148q-236 0 -387 -192q-88 -115 -200 -404q113 -287 217 -409q160 -193 401 -193v-149q-260 0 -438 157q-145 127 -262 393q-113 -268 -248 -393 q-168 -158 -428 -157v147q240 0 391 193q90 115 205 407q-117 295 -176 387q-137 211 -336 211q-137 0 -228 -72q-94 -78 -94 -213t109 -233l-107 -115q-162 131 -162 344z" />
<glyph unicode="Y" horiz-adv-x="1785" d="M61 1108q0 170 107.5 269.5t280.5 99.5q180 0 288 -127q102 -119 103 -303v-609q0 -141 73.5 -224t214.5 -83q135 0 224.5 101.5t89.5 238.5v983h160v-1640q0 -209 -209 -320l-84 133q133 49 133 187v376q-123 -209 -336 -208q-195 0 -311 133q-115 127 -115 323v609 q0 113 -57 192q-66 86 -174 86q-98 0 -163 -60.5t-65 -156.5q0 -59 34 -120.5t83 -94.5l-109 -105q-76 51 -122 139.5t-46 180.5z" />
<glyph unicode="Z" horiz-adv-x="1579" d="M61 1077q0 178 142 283q127 94 311 94h946l49 -125l-948 -1141q66 18 131 19q80 0 230.5 -40t230.5 -40q195 0 317 111l89 -111q-156 -147 -406 -147q-92 0 -267 50t-268 50q-139 0 -245 -103l-107 99l1032 1229h-792q-119 0 -197 -54q-88 -61 -88 -175.5t84 -170.5 q71 -45 183 -45h10l-39 -147q-180 6 -285 94q-113 96 -113 270z" />
<glyph unicode="[" horiz-adv-x="616" d="M184 -438v1892h391v-117h-268v-1659h268v-116h-391z" />
<glyph unicode="\" horiz-adv-x="886" d="M-20 1370l116 53l811 -1812l-114 -53z" />
<glyph unicode="]" horiz-adv-x="616" d="M184 -322h267v1659h-267v117h391v-1892h-391v116z" />
<glyph unicode="^" horiz-adv-x="1239" d="M61 537l557 557l560 -557l-107 -107l-453 453l-450 -453z" />
<glyph unicode="_" horiz-adv-x="819" d="M0 -176h819v-103h-819v103z" />
<glyph unicode="`" horiz-adv-x="542" d="M61 1221l89 88l331 -334l-88 -86z" />
<glyph unicode="a" horiz-adv-x="1091" d="M113 360q0 158 103 269.5t259 111.5q170 0 264 -137v119h148v-504q0 -104 98 -104q63 0 107 43v-135q-59 -43 -152 -43q-70 0 -121 43t-69 110q-94 -152 -275 -151q-156 0 -259 111t-103 267zM260 360q0 -100 70.5 -174.5t173.5 -74.5q152 0 219 141q16 35 16 45v129 q0 10 -16 43q-68 143 -219 143q-102 0 -173 -75t-71 -177z" />
<glyph unicode="b" horiz-adv-x="1060" d="M184 360v1094h148v-1094q0 -96 71.5 -166.5t167.5 -70.5q100 0 169 71.5t69 172.5q0 139 -88 186l-10 -14q-25 -57 -90 -58q-51 0 -89 38t-38 89q0 55 44 95t101 40q145 0 231 -118q78 -106 78 -258q0 -156 -113.5 -270.5t-271.5 -114.5q-156 0 -267.5 110t-111.5 268z " />
<glyph unicode="c" horiz-adv-x="864" d="M113 365q0 154 106.5 265t259.5 111q104 0 178 -39q94 -51 95 -145q0 -51 -34 -86t-85 -35q-43 0 -78 33t-35 76q0 29 17 47q-29 12 -66 12q-98 0 -159.5 -70.5t-61.5 -168.5q0 -104 80 -175t186 -71q143 0 221 63v-153q-90 -47 -221 -47q-168 0 -285.5 108.5 t-117.5 274.5z" />
<glyph unicode="d" horiz-adv-x="1093" d="M113 360q0 158 103 269.5t259 111.5q172 0 266 -141v854h148v-1235q0 -102 98 -102q63 0 107 41v-135q-59 -41 -152 -41q-70 0 -122 43t-70 110q-92 -154 -275 -153q-156 0 -259 111t-103 267zM260 360.5q0 -102.5 70.5 -176t173.5 -73.5q158 0 223 149q14 33 14 45v113 q0 10 -14 45q-66 150 -223 149q-102 0 -173 -74.5t-71 -177z" />
<glyph unicode="e" horiz-adv-x="860" d="M113 365q0 154 109.5 265t260.5 111q195 0 316 -161l-430 -426q66 -43 143 -43q139 0 223 65v-147q-92 -47 -223 -47q-168 0 -283.5 108.5t-115.5 274.5zM248 365q0 -72 39 -132l325 330q-57 47 -133 47q-100 0 -165.5 -71.5t-65.5 -173.5z" />
<glyph unicode="f" horiz-adv-x="692" d="M41 582v141h260v428q0 141 89 233.5t233 92.5q98 0 172 -52v-151q-72 57 -172 57q-78 0 -126 -51t-48 -129v-428h251v-141h-251v-729q0 -117 -72 -213q-78 -102 -191 -115l-51 127q68 10 117 70.5t49 130.5v729h-260z" />
<glyph unicode="g" horiz-adv-x="1073" d="M113 360q0 158 103 269.5t259 111.5q174 0 266 -141v123h148v-870q0 -117 -72 -213q-76 -102 -188 -115l-51 127q68 10 115.5 70.5t47.5 130.5v268q-92 -139 -266 -139q-156 0 -259 111t-103 267zM260 360.5q0 -102.5 70.5 -176t173.5 -73.5q158 0 223 149q14 33 14 45 v113q0 10 -14 45q-66 150 -223 149q-102 0 -173 -74.5t-71 -177z" />
<glyph unicode="h" d="M184 0v1454h148v-836q72 123 211 123q123 0 198.5 -80.5t75.5 -205.5v-236q0 -102 98 -102q63 0 107 41v-135q-59 -41 -152 -41q-90 0 -145 65.5t-55 157.5v237q0 170 -158 170q-127 0 -172 -147q-8 -31 -8 -41v-424h-148z" />
<glyph unicode="i" horiz-adv-x="534" d="M143 1122q0 47 34 80t79 33q47 0 81 -33t34 -80t-34 -80.5t-81 -33.5q-45 0 -79 33.5t-34 80.5zM182 205v518h148v-504q0 -102 98 -102q63 0 107 41v-135q-59 -41 -152 -41q-90 0 -145.5 65.5t-55.5 157.5z" />
<glyph unicode="j" horiz-adv-x="505" d="M10 -348q68 10 116 70.5t48 130.5v870h150v-870q0 -117 -74 -213q-76 -102 -189 -115zM135 1122q0 47 34 80t79 33q47 0 80.5 -33t33.5 -80t-33.5 -80.5t-80.5 -33.5q-45 0 -79 33.5t-34 80.5z" />
<glyph unicode="k" horiz-adv-x="993" d="M184 0v1454h148v-1020h16h4q293 0 293 289h148q0 -129 -66 -223q-70 -102 -192 -127q92 -20 186 -146q84 -113 160 -112q55 0 112 35v-130q-61 -39 -147 -38q-125 0 -246 188q-89 137 -225 137h-4h-39v-307h-148z" />
<glyph unicode="l" horiz-adv-x="536" d="M184 205v1249h148v-1235q0 -102 98 -102q63 0 107 41v-135q-59 -41 -152 -41q-90 0 -145.5 65.5t-55.5 157.5z" />
<glyph unicode="m" horiz-adv-x="1505" d="M184 0v723h148v-107q72 125 211 125q176 0 245 -151q66 152 232 151q127 0 205 -78.5t78 -207.5v-236q0 -102 98 -102q63 0 104 41v-135q-57 -41 -151 -41q-88 0 -143.5 65.5t-55.5 157.5v237q0 170 -158 170q-127 0 -170 -145q-10 -31 -10 -43v-424h-147v442 q0 170 -158 170q-127 0 -170 -145q-10 -31 -10 -41v-426h-148z" />
<glyph unicode="n" d="M184 0v723h148v-107q70 125 211 125q123 0 198.5 -80.5t75.5 -205.5v-236q0 -102 101 -102q61 0 104 41v-135q-59 -41 -152 -41q-90 0 -145 65.5t-55 157.5v237q0 172 -158 172q-127 0 -172 -149q-8 -29 -8 -39v-426h-148z" />
<glyph unicode="o" horiz-adv-x="980" d="M113 360q0 158 110.5 269.5t268.5 111.5q156 0 266 -111.5t110 -269.5q0 -156 -110.5 -267t-265.5 -111q-158 0 -268.5 111t-110.5 267zM244 358.5q0 -102.5 72.5 -174t177.5 -71.5q102 0 174.5 71.5t72.5 173.5q0 39 -12 76q-33 -29 -76 -28q-49 0 -85 34.5t-36 83.5 q0 41 29 76q-35 10 -67 10q-102 0 -176 -74.5t-74 -177z" />
<glyph unicode="p" horiz-adv-x="1073" d="M184 -459v1182h148v-123q92 141 266 141q156 0 259.5 -111.5t103.5 -269.5q0 -156 -103.5 -267t-259.5 -111q-174 0 -266 141v-582h-148zM332 303q0 -10 16 -45q66 -147 223 -147q100 0 172 73.5t72 176t-71.5 177t-172.5 74.5q-158 0 -223 -147q-16 -35 -16 -45v-117z " />
<glyph unicode="q" horiz-adv-x="1062" d="M113 360q0 158 103 269.5t259 111.5q172 0 266 -139v121h148v-963q0 -102 98 -102q63 0 107 41v-133q-59 -43 -152 -43q-90 0 -145.5 65.5t-55.5 157.5v375q-94 -139 -266 -139q-156 0 -259 111t-103 267zM260 360.5q0 -102.5 70.5 -176t173.5 -73.5q158 0 223 149 q14 33 14 45v113q0 10 -14 45q-66 150 -223 149q-102 0 -173 -74.5t-71 -177z" />
<glyph unicode="r" horiz-adv-x="690" d="M184 0v723h148v-125q76 143 211 143q51 0 88 -35.5t37 -87.5q0 -49 -35 -83.5t-84 -34.5q-76 0 -100 71q-78 -37 -109 -133q-8 -29 -8 -37v-401h-148z" />
<glyph unicode="s" horiz-adv-x="565" d="M82 20v146q57 -53 125 -53q43 0 71.5 28.5t28.5 71.5q0 53 -80 154.5t-80 173.5q0 145 134 209l81 -107q-68 -33 -67 -102q0 -43 79 -146.5t79 -195.5q0 -90 -59.5 -153.5t-149.5 -63.5q-99 -1 -162 38z" />
<glyph unicode="t" horiz-adv-x="692" d="M41 582v141h229v407h148v-407h223v-141h-223v-342q0 -125 104 -125q61 0 115 43v-135q-59 -41 -143 -41q-106 0 -165 67.5t-59 175.5v357h-229z" />
<glyph unicode="u" d="M184 268v455h148v-442q0 -170 157 -170q121 0 168 135q12 37 13 51v426h147v-504q0 -102 98 -102q63 0 107 41v-135q-59 -41 -152 -41q-145 0 -190 147q-66 -150 -221 -149q-123 0 -199 81.5t-76 206.5z" />
<glyph unicode="v" horiz-adv-x="983" d="M184 287v436h148v-422q0 -86 47 -138t131 -52q86 0 132 52t46 138v178q-57 4 -96 39t-39 92q0 53 39 92t92 39q57 0 96 -39.5t39 -97.5v-317q0 -141 -87 -224t-230.5 -83t-230.5 83t-87 224z" />
<glyph unicode="w" horiz-adv-x="1470" d="M184 287v436h148v-426q0 -186 170 -186t170 186v426h147v-424q0 -86 46 -137t132 -51q84 0 131.5 51t47.5 137v180q-57 4 -96.5 39t-39.5 92q0 53 39 92t92 39q57 0 96.5 -39.5t39.5 -97.5v-317q0 -141 -87 -224t-231 -83q-82 0 -149.5 40.5t-94.5 116.5 q-59 -158 -243 -157q-143 0 -230.5 83t-87.5 224z" />
<glyph unicode="x" horiz-adv-x="972" d="M76 594v143h30q117 0 224 -88q68 -57 162 -186l278 278l100 -98l-295 -295q166 -223 314 -223h8v-143h-16q-5 0 -11 -1q-113 0 -221 85q-74 57 -170 186l-274 -275l-101 99l289 289q-82 111 -133 155q-86 74 -171 74h-13z" />
<glyph unicode="y" horiz-adv-x="1001" d="M184 268v455h148v-442q0 -170 157 -170q119 0 166 135q14 37 15 51v426h147v-870q0 -117 -72 -213q-76 -102 -188 -115l-53 127q70 10 118 70.5t48 130.5v251q-72 -125 -211 -124q-123 0 -199 81.5t-76 206.5z" />
<glyph unicode="z" horiz-adv-x="864" d="M92 147l443 435h-443v141h625l35 -117l-371 -370q33 12 68 12q139 0 231 -102.5t92 -243.5q0 -139 -91 -251t-230 -128l-48 131q98 10 163 79.5t65 168.5q0 100 -66.5 167.5t-167.5 67.5q-121 0 -204 -90z" />
<glyph unicode="{" horiz-adv-x="575" d="M31 453v104q100 0 168 39q84 49 84 141v369q0 242 174 379l88 -82q-78 -63 -108.5 -130t-30.5 -167v-369q0 -78 -48.5 -146.5t-121.5 -86.5q74 -14 122 -84t48 -148v-368q0 -180 139 -297l-88 -82q-174 135 -174 379v368q0 92 -84 142q-68 39 -168 39z" />
<glyph unicode="|" horiz-adv-x="495" d="M184 -440v1894h127v-1894h-127z" />
<glyph unicode="}" horiz-adv-x="575" d="M31 -393q139 117 139 297v368q0 78 48 147.5t122 84.5q-74 18 -122 86.5t-48 146.5v369q0 100 -32 166.5t-107 130.5l88 82q174 -137 174 -379v-369q0 -92 82 -141q70 -39 170 -39v-104q-100 0 -170 -39q-82 -49 -82 -142v-368q0 -244 -174 -379z" />
<glyph unicode="~" horiz-adv-x="937" d="M51 348v162q104 88 219 88q74 0 209 -52t207 -52q104 0 201 84v-156q-98 -80 -205 -80q-72 0 -207 50t-207 50q-113 0 -217 -94z" />
<glyph unicode="&#xa1;" horiz-adv-x="563" d="M168 842q0 47 34 80.5t79 33.5q47 0 80.5 -33.5t33.5 -80.5t-33.5 -80t-80.5 -33q-45 0 -79 33t-34 80zM195 -518l16 698q4 119 8 357h123q2 -20 27 -1055h-174z" />
<glyph unicode="&#xa2;" horiz-adv-x="866" d="M113 547q0 133 85 238.5t214 132.5v143h116v-139q92 -10 152 -50q74 -49 74 -133q0 -51 -34 -84.5t-85 -33.5q-43 0 -78 31.5t-35 74.5q0 29 17 47q-33 12 -68 12q-96 0 -158.5 -70.5t-62.5 -168.5q0 -104 80 -174t186 -70q141 0 221 64v-154q-84 -45 -209 -47v-166h-116 v178q-133 33 -216 133.5t-83 235.5z" />
<glyph unicode="&#xa3;" horiz-adv-x="1060" d="M61 2v139q92 0 150.5 67.5t58.5 162.5v47h-209v127h209v211q0 145 98.5 236t245.5 91q135 0 231.5 -84t96.5 -219q0 -70 -38 -140.5t-97 -109.5l-96 101q86 51 86 149q0 74 -54.5 119t-130.5 45q-82 0 -138 -53t-56 -135v-211h225v-127h-225v-43q0 -166 -131 -236h409 q174 0 265 113l79 -102q-106 -147 -340 -148h-639z" />
<glyph unicode="&#xa4;" horiz-adv-x="1243" d="M72 352v109h188q-4 35 -4 67q0 25 4 54h-188v108h209q53 174 199.5 283.5t326.5 109.5q223 0 364 -145l-79 -117q-106 119 -287 119q-123 0 -223.5 -68.5t-145.5 -181.5h297v-108h-325q-4 -29 -5 -54q0 -33 7 -67h323v-109h-293q51 -113 153.5 -175t229.5 -62 q193 0 322 137v-174q-141 -104 -324 -105q-186 0 -332 101q-152 104 -206 278h-211z" />
<glyph unicode="&#xa5;" horiz-adv-x="1122" d="M92 967l94 116q131 -57 236.5 -180t138.5 -262q37 139 140.5 262t234.5 180l94 -116q-131 -49 -233.5 -162t-141.5 -248h324v-108h-342q-2 -20 -2 -115h344v-109h-344v-225h-148v225h-346v109h346v84q0 10 -2 31h-344v108h326q-39 135 -142.5 250t-232.5 160z" />
<glyph unicode="&#xa7;" horiz-adv-x="628" d="M113 526q0 158 155 189q-63 88 -63 147q0 141 123 209l90 -104q-63 -39 -64 -105q0 -33 81 -138.5t81 -195.5q0 -147 -156 -186q63 -88 64 -149q0 -139 -123 -209l-90 104q63 41 63 105q0 35 -80.5 140t-80.5 193zM219 528q0 -41 27.5 -68.5t66.5 -27.5q43 0 70 28.5 t27 71.5q0 39 -27 67t-66 28q-43 0 -70.5 -29t-27.5 -70z" />
<glyph unicode="&#xa8;" horiz-adv-x="688" d="M72 1048.5q0 38.5 27.5 66.5t66.5 28t66.5 -28t27.5 -66.5t-27.5 -66.5t-66.5 -28t-66.5 28t-27.5 66.5zM428 1048.5q0 38.5 27.5 66.5t66.5 28t66.5 -28t27.5 -66.5t-27.5 -66.5t-66.5 -28t-66.5 28t-27.5 66.5z" />
<glyph unicode="&#xa9;" horiz-adv-x="1325" d="M113 532.5q0 227.5 160.5 389t388 161.5t389 -161.5t161.5 -389t-161.5 -388t-389 -160.5t-388 160.5t-160.5 388zM180 532q0 -199 141.5 -340t340.5 -141q201 0 342 141.5t141 339.5q0 201 -141.5 342.5t-341.5 141.5q-199 0 -340.5 -141.5t-141.5 -342.5zM332 532 q0 143 100 244t242 101q143 0 244 -101l-82 -84q-68 68 -164 68q-92 0 -159 -66.5t-67 -161t67 -161t161 -66.5t162 68l82 -82q-100 -102 -244 -103q-141 0 -241.5 101.5t-100.5 242.5z" />
<glyph unicode="&#xaa;" horiz-adv-x="909" d="M113 764q0 127 83 215t207 88q135 0 209 -104v90h142v-379q0 -80 71 -80q51 0 84 33v-133q-45 -31 -116 -31q-55 0 -102.5 33.5t-67.5 87.5q-74 -123 -220 -123q-125 0 -207.5 89t-82.5 214zM160 246v94h745v-94h-745zM254 764q0 -76 52 -130t128 -54q117 0 166 106 q12 25 12 33v92q0 6 -12 33q-49 106 -166 106q-76 0 -128 -55t-52 -131z" />
<glyph unicode="&#xab;" horiz-adv-x="673" d="M61 360l199 287l86 -61l-158 -226q10 -16 158 -227l-86 -61zM328 360l198 287l86 -61l-157 -226l157 -227l-86 -61z" />
<glyph unicode="&#xad;" horiz-adv-x="632" d="M72 375v149h489v-149h-489z" />
<glyph unicode="&#xae;" horiz-adv-x="1325" d="M113 532.5q0 227.5 160.5 389t388 161.5t389 -161.5t161.5 -389t-161.5 -388t-389 -160.5t-388 160.5t-160.5 388zM180 532q0 -199 141.5 -340t340.5 -141q201 0 342 141.5t141 339.5q0 201 -141.5 342.5t-341.5 141.5q-199 0 -340.5 -141.5t-141.5 -342.5zM424 233v607 h295q90 0 151.5 -55.5t61.5 -143.5q0 -143 -141 -184l112 -226h-131l-104 213h-125v-211h-119zM543 545h159q113 0 113 96q0 98 -113 98h-159v-194z" />
<glyph unicode="&#xaf;" horiz-adv-x="690" d="M41 1057v125h608v-125h-608z" />
<glyph unicode="&#xb0;" horiz-adv-x="550" d="M72 872q0 84 59 143.5t143 59.5q86 0 145.5 -59.5t59.5 -143.5t-59.5 -143t-145.5 -59q-84 0 -143 59t-59 143zM152 872.5q0 -51.5 35.5 -88t86.5 -36.5q53 0 89 36.5t36 88t-35.5 88t-89.5 36.5q-51 0 -86.5 -36.5t-35.5 -88z" />
<glyph unicode="&#xb2;" horiz-adv-x="985" d="M113 737q0 145 106.5 244.5t251.5 99.5q172 0 273.5 -97t101.5 -269q0 -152 -131 -316q-102 -129 -258 -235q23 4 43 4q39 0 108.5 -24.5t108.5 -24.5q82 0 155 45v-146q-82 -41 -165 -41q-51 0 -144.5 34t-142.5 34q-88 0 -199 -68l-69 132q203 119 344 249 q203 193 202 357q0 106 -59 167.5t-168 61.5q-90 0 -150.5 -58.5t-60.5 -148.5q0 -104 84 -155l-88 -109q-143 96 -143 264z" />
<glyph unicode="&#xb3;" horiz-adv-x="976" d="M113 172l104 102q113 -154 283 -153q88 0 153.5 62.5t65.5 148.5q0 92 -57.5 151.5t-149.5 59.5q-90 0 -150 -64l-94 117l340 324h-461v141h648v-137l-289 -279q29 12 53 12q129 0 217 -98t88 -227q0 -150 -106.5 -250t-257.5 -100q-237 0 -387 190z" />
<glyph unicode="&#xb4;" horiz-adv-x="542" d="M61 975l332 334l88 -88l-331 -332z" />
<glyph unicode="&#xb6;" horiz-adv-x="894" d="M61 1112q0 137 95.5 239.5t232.5 102.5h322v-1761h-70v1683h-182v-1683h-70v1077q-137 6 -232.5 105.5t-95.5 236.5z" />
<glyph unicode="&#xb7;" horiz-adv-x="559" d="M166 440q0 47 33.5 80t79.5 33q47 0 80.5 -33t33.5 -80t-33.5 -80.5t-80.5 -33.5q-45 0 -79 33.5t-34 80.5z" />
<glyph unicode="&#x2219;" horiz-adv-x="559" d="M166 440q0 47 33.5 80t79.5 33q47 0 80.5 -33t33.5 -80t-33.5 -80.5t-80.5 -33.5q-45 0 -79 33.5t-34 80.5z" />
<glyph unicode="&#xb8;" horiz-adv-x="417" d="M41 -184l88 182h102l-59 -119q18 12 45 12q66 0 113 -56t47 -122q0 -82 -56.5 -136t-138.5 -54q-8 0 -16 2v84q37 2 63.5 28.5t26.5 63.5q0 86 -88 86q-41 0 -68 -29z" />
<glyph unicode="&#xb9;" horiz-adv-x="741" d="M41 580v149q145 0 257 95.5t112 236.5h147v-1061h-147v782q-51 -94 -153.5 -148t-215.5 -54z" />
<glyph unicode="&#xba;" horiz-adv-x="833" d="M113 768q0 125 89 214t214 89q127 0 216 -89t89 -214t-89 -214t-216 -89q-125 0 -214 89t-89 214zM139 246v94h568v-94h-568zM233 768q0 -76 54.5 -129t128.5 -53q76 0 129 53t53 129q0 20 -6 47q-23 -12 -45 -12q-41 0 -69.5 28.5t-28.5 67.5q0 25 10 45q-23 6 -43 6 q-74 0 -128.5 -53t-54.5 -129z" />
<glyph unicode="&#xbb;" horiz-adv-x="673" d="M61 133l158 227q-10 12 -158 226l86 61l199 -287l-199 -288zM328 133l157 227l-157 226l86 61l198 -287l-198 -288z" />
<glyph unicode="&#xbf;" horiz-adv-x="849" d="M61 -231q0 111 91 204l165 144q90 82 91 166q0 111 -91 127l68 116q74 -14 123 -83.5t49 -145.5q0 -125 -90 -225l-168 -146q-90 -78 -90 -153q0 -84 59.5 -133.5t145.5 -49.5q94 0 160.5 52.5t66.5 144.5q0 74 -47 117l100 96q94 -82 94 -217q0 -150 -114 -244 q-109 -86 -260.5 -86t-247.5 82q-105 89 -105 234zM283 833.5q0 47.5 33.5 81t80.5 33.5q45 0 79 -33.5t34 -81t-34 -80t-79 -32.5q-47 0 -80.5 32.5t-33.5 80z" />
<glyph unicode="&#xc0;" horiz-adv-x="1497" d="M61 963q0 104 54 208q78 150 229 232q143 76 322 76q190 0 340.5 -86t226.5 -254q49 -115 49 -240v-659q0 -111 98 -111q74 0 117 47v-149q-49 -45 -149 -45q-111 0 -168.5 67.5t-57.5 179.5v74h-452v-303h-160v303h-184v148h184v270q0 270 186 412l99 -123 q-125 -84 -125 -289v-270h452v442q0 190 -133 313t-323 123q-131 0 -240 -55q-117 -61 -174 -170q-37 -72 -37 -141q0 -125 68 -211l-117 -99q-105 126 -105 310zM676 1917l88 88l332 -334l-88 -86z" />
<glyph unicode="&#xc1;" horiz-adv-x="1497" d="M61 963q0 104 54 208q78 150 229 232q143 76 322 76q190 0 340.5 -86t226.5 -254q49 -115 49 -240v-659q0 -111 98 -111q74 0 117 47v-149q-49 -45 -149 -45q-111 0 -168.5 67.5t-57.5 179.5v74h-452v-303h-160v303h-184v148h184v270q0 270 186 412l99 -123 q-125 -84 -125 -289v-270h452v442q0 190 -133 313t-323 123q-131 0 -240 -55q-117 -61 -174 -170q-37 -72 -37 -141q0 -125 68 -211l-117 -99q-105 126 -105 310zM655 1671l332 334l88 -88l-332 -332z" />
<glyph unicode="&#xc2;" horiz-adv-x="1497" d="M61 963q0 104 54 208q78 150 229 232q143 76 322 76q190 0 340.5 -86t226.5 -254q49 -115 49 -240v-659q0 -111 98 -111q74 0 117 47v-149q-49 -45 -149 -45q-111 0 -168.5 67.5t-57.5 179.5v74h-452v-303h-160v303h-184v148h184v270q0 270 186 412l99 -123 q-125 -84 -125 -289v-270h452v442q0 190 -133 313t-323 123q-131 0 -240 -55q-117 -61 -174 -170q-37 -72 -37 -141q0 -125 68 -211l-117 -99q-105 126 -105 310zM553 1665l319 320l320 -320l-88 -86l-232 231l-231 -231z" />
<glyph unicode="&#xc3;" horiz-adv-x="1497" d="M61 963q0 104 54 208q78 150 229 232q143 76 322 76q190 0 340.5 -86t226.5 -254q49 -115 49 -240v-659q0 -111 98 -111q74 0 117 47v-149q-49 -45 -149 -45q-111 0 -168.5 67.5t-57.5 179.5v74h-452v-303h-160v303h-184v148h184v270q0 270 186 412l99 -123 q-125 -84 -125 -289v-270h452v442q0 190 -133 313t-323 123q-131 0 -240 -55q-117 -61 -174 -170q-37 -72 -37 -141q0 -125 68 -211l-117 -99q-105 126 -105 310zM573 1612v129q86 68 170 67q53 0 145.5 -41t141.5 -41q76 0 158 68v-125q-82 -63 -162 -63q-53 0 -145.5 40 t-141.5 40q-78 0 -166 -74z" />
<glyph unicode="&#xc4;" horiz-adv-x="1497" d="M61 963q0 104 54 208q78 150 229 232q143 76 322 76q190 0 340.5 -86t226.5 -254q49 -115 49 -240v-659q0 -111 98 -111q74 0 117 47v-149q-49 -45 -149 -45q-111 0 -168.5 67.5t-57.5 179.5v74h-452v-303h-160v303h-184v148h184v270q0 270 186 412l99 -123 q-125 -84 -125 -289v-270h452v442q0 190 -133 313t-323 123q-131 0 -240 -55q-117 -61 -174 -170q-37 -72 -37 -141q0 -125 68 -211l-117 -99q-105 126 -105 310zM627 1667q0 39 27.5 66.5t66.5 27.5t66.5 -27.5t27.5 -66.5t-27.5 -66.5t-66.5 -27.5t-66.5 27.5t-27.5 66.5z M981 1667q0 39 28.5 66.5t65.5 27.5q39 0 66.5 -27.5t27.5 -66.5t-27.5 -66.5t-66.5 -27.5q-37 0 -65.5 27.5t-28.5 66.5z" />
<glyph unicode="&#xc5;" horiz-adv-x="1497" d="M61 963q0 104 54 208q78 150 229 232q143 76 322 76q190 0 340.5 -86t226.5 -254q49 -115 49 -240v-659q0 -111 98 -111q74 0 117 47v-149q-49 -45 -149 -45q-111 0 -168.5 67.5t-57.5 179.5v74h-452v-303h-160v303h-184v148h184v270q0 270 186 412l99 -123 q-125 -84 -125 -289v-270h452v442q0 190 -133 313t-323 123q-131 0 -240 -55q-117 -61 -174 -170q-37 -72 -37 -141q0 -125 68 -211l-117 -99q-105 126 -105 310zM676 1722q0 90 62.5 152.5t152.5 62.5q88 0 150.5 -62.5t62.5 -152.5q0 -88 -62.5 -150.5t-150.5 -62.5 q-90 0 -152.5 62.5t-62.5 150.5zM760 1722q0 -53 38 -92t93 -39q53 0 92 39t39 92q0 55 -39 93t-92 38q-55 0 -93 -38t-38 -93z" />
<glyph unicode="&#xc6;" horiz-adv-x="2131" d="M61 963q0 104 54 208q78 150 231 230q143 78 320 78q281 0 452 -174q174 172 471 172q342 0 463 -222q39 -74 39 -155q0 -145 -97.5 -243.5t-246.5 -117.5l-43 146q94 12 160 65q74 61 73 150q0 121 -122 180q-96 47 -230 47q-172 0 -299 -86q-143 -96 -143 -262 q0 -186 162 -295q143 -94 337 -88v-143q-338 0 -337 -172q0 -82 96 -125q74 -33 168 -33q184 0 297 86v-160q-127 -68 -318 -67q-158 0 -268 65q-135 80 -135 225q0 57 26 109h-501v-381h-160v381h-193v147h193q0 252 16 330q35 172 170 275l99 -123q-125 -84 -125 -289 v-193h684q-164 33 -267.5 159t-103.5 292q0 100 39 188q-129 162 -356 162q-127 0 -232 -51q-113 -57 -174 -160q-45 -76 -45 -155q0 -125 68 -211l-119 -99q-103 126 -103 310z" />
<glyph unicode="&#xc7;" horiz-adv-x="1368" d="M113 702q0 319 204 543q211 231 527 232q336 0 461 -242q43 -84 43 -176q0 -178 -124 -297t-302 -119q-139 0 -256 80l67 135q88 -63 182 -63q115 0 194 74.5t79 189.5q0 129 -111 203q-96 63 -233 63q-250 0 -416 -190q-156 -184 -156 -439q0 -260 165 -412.5 t427 -152.5q109 0 217 37q121 41 189 113v-189q-150 -100 -365 -110q-33 -70 -51 -103q18 12 45 12q68 0 115 -56t47 -122q0 -82 -57.5 -136t-137.5 -54q-10 0 -18 2v84q37 2 63.5 28.5t26.5 63.5q0 86 -88 86q-41 0 -68 -29l-59 58l80 168q-307 18 -496 209 q-194 196 -194 509z" />
<glyph unicode="&#xc8;" horiz-adv-x="1189" d="M61 979q0 236 193 375q170 123 414 123q324 0 450 -203q51 -80 51 -174q0 -145 -97 -243.5t-245 -117.5l-45 146q94 12 160 65q74 61 74 150q0 121 -123 180q-96 47 -229 47q-172 0 -297 -86q-143 -96 -144 -262q0 -186 160 -295q143 -94 338 -88v-143q-338 0 -338 -172 q0 -82 96 -125q74 -33 168 -33q184 0 297 86v-160q-127 -68 -317 -67q-158 0 -269 65q-135 80 -135 225q0 102 67.5 170t172.5 84q-176 29 -289 154t-113 299zM471 1917l88 88l332 -334l-88 -86z" />
<glyph unicode="&#xc9;" horiz-adv-x="1189" d="M61 979q0 236 193 375q170 123 414 123q324 0 450 -203q51 -80 51 -174q0 -145 -97 -243.5t-245 -117.5l-45 146q94 12 160 65q74 61 74 150q0 121 -123 180q-96 47 -229 47q-172 0 -297 -86q-143 -96 -144 -262q0 -186 160 -295q143 -94 338 -88v-143q-338 0 -338 -172 q0 -82 96 -125q74 -33 168 -33q184 0 297 86v-160q-127 -68 -317 -67q-158 0 -269 65q-135 80 -135 225q0 102 67.5 170t172.5 84q-176 29 -289 154t-113 299zM430 1671l332 334l88 -88l-332 -332z" />
<glyph unicode="&#xca;" horiz-adv-x="1189" d="M61 979q0 236 193 375q170 123 414 123q324 0 450 -203q51 -80 51 -174q0 -145 -97 -243.5t-245 -117.5l-45 146q94 12 160 65q74 61 74 150q0 121 -123 180q-96 47 -229 47q-172 0 -297 -86q-143 -96 -144 -262q0 -186 160 -295q143 -94 338 -88v-143q-338 0 -338 -172 q0 -82 96 -125q74 -33 168 -33q184 0 297 86v-160q-127 -68 -317 -67q-158 0 -269 65q-135 80 -135 225q0 102 67.5 170t172.5 84q-176 29 -289 154t-113 299zM348 1665l320 320l319 -320l-88 -86l-231 231l-232 -231z" />
<glyph unicode="&#xcb;" horiz-adv-x="1189" d="M61 979q0 236 193 375q170 123 414 123q324 0 450 -203q51 -80 51 -174q0 -145 -97 -243.5t-245 -117.5l-45 146q94 12 160 65q74 61 74 150q0 121 -123 180q-96 47 -229 47q-172 0 -297 -86q-143 -96 -144 -262q0 -186 160 -295q143 -94 338 -88v-143q-338 0 -338 -172 q0 -82 96 -125q74 -33 168 -33q184 0 297 86v-160q-127 -68 -317 -67q-158 0 -269 65q-135 80 -135 225q0 102 67.5 170t172.5 84q-176 29 -289 154t-113 299zM401 1667q0 39 28 66.5t67 27.5t66.5 -27.5t27.5 -66.5t-27.5 -66.5t-66.5 -27.5t-67 27.5t-28 66.5zM756 1667 q0 39 28.5 66.5t65.5 27.5q39 0 66.5 -27.5t27.5 -66.5t-27.5 -66.5t-66.5 -27.5q-37 0 -65.5 27.5t-28.5 66.5z" />
<glyph unicode="&#xcc;" horiz-adv-x="1120" d="M61 1055q0 182 129 302t312 120q186 0 310 -124t124 -313v-718q0 -145 -88 -242.5t-232 -97.5q-135 0 -204 63v168q82 -86 192 -86q78 0 125 57.5t47 137.5v718q0 117 -80 202t-194 85q-119 0 -200 -78t-81 -194q0 -68 38 -129.5t97 -91.5l-110 -111q-80 45 -132.5 141.5 t-52.5 190.5zM328 1917l88 88l332 -334l-89 -86z" />
<glyph unicode="&#xcd;" horiz-adv-x="1120" d="M61 1055q0 182 129 302t312 120q186 0 310 -124t124 -313v-718q0 -145 -88 -242.5t-232 -97.5q-135 0 -204 63v168q82 -86 192 -86q78 0 125 57.5t47 137.5v718q0 117 -80 202t-194 85q-119 0 -200 -78t-81 -194q0 -68 38 -129.5t97 -91.5l-110 -111q-80 45 -132.5 141.5 t-52.5 190.5zM307 1671l332 334l88 -88l-332 -332z" />
<glyph unicode="&#xce;" horiz-adv-x="1120" d="M61 1055q0 182 129 302t312 120q186 0 310 -124t124 -313v-718q0 -145 -88 -242.5t-232 -97.5q-135 0 -204 63v168q82 -86 192 -86q78 0 125 57.5t47 137.5v718q0 117 -80 202t-194 85q-119 0 -200 -78t-81 -194q0 -68 38 -129.5t97 -91.5l-110 -111q-80 45 -132.5 141.5 t-52.5 190.5zM184 1665l320 320l319 -320l-88 -86l-231 231l-232 -231z" />
<glyph unicode="&#xcf;" horiz-adv-x="1120" d="M61 1055q0 182 129 302t312 120q186 0 310 -124t124 -313v-718q0 -145 -88 -242.5t-232 -97.5q-135 0 -204 63v168q82 -86 192 -86q78 0 125 57.5t47 137.5v718q0 117 -80 202t-194 85q-119 0 -200 -78t-81 -194q0 -68 38 -129.5t97 -91.5l-110 -111q-80 45 -132.5 141.5 t-52.5 190.5zM238 1667q0 39 27.5 66.5t66.5 27.5t66.5 -27.5t27.5 -66.5t-27.5 -66.5t-66.5 -27.5t-66.5 27.5t-27.5 66.5zM592 1667q0 39 28.5 66.5t65.5 27.5q39 0 66.5 -27.5t27.5 -66.5t-27.5 -66.5t-66.5 -27.5q-37 0 -65.5 27.5t-28.5 66.5z" />
<glyph unicode="&#xd0;" horiz-adv-x="1751" d="M41 813q0 315 229 496q211 168 535 168q346 0 589.5 -231.5t243.5 -575.5q0 -291 -143 -480q-160 -209 -440 -208q-256 0 -346 196q-27 -197 -217 -196q-102 0 -154 49v151q45 -53 119 -53q96 0 96 115v272h-164v150h164v456h160v-456h166v-150h-166v-149q0 -16 20 -62 q82 -184 322 -184q213 0 325 174q98 150 99 375q0 279 -194.5 468t-475.5 189q-262 0 -428 -123q-186 -139 -186 -391q0 -123 77 -227l-118 -97q-113 142 -113 324z" />
<glyph unicode="&#xd1;" horiz-adv-x="1847" d="M61 1096q0 170 106.5 275.5t276.5 105.5q272 0 367 -240q57 117 165.5 178.5t242.5 61.5q174 0 282.5 -120t108.5 -296v-821q0 -47 28.5 -79t73.5 -32q86 0 135 61v-153q-51 -55 -166 -55q-106 0 -168.5 68.5t-62.5 178.5v832q0 119 -71.5 192.5t-188.5 73.5 q-139 0 -241.5 -98.5t-102.5 -237.5v-991h-160v1053q0 117 -61 190q-66 82 -181 82q-98 0 -163.5 -65.5t-65.5 -163.5q0 -59 36 -118.5t87 -88.5l-105 -98q-78 45 -125 130t-47 175zM840 1612v129q86 68 170 67q53 0 145 -41t141 -41q76 0 158 68v-125q-82 -63 -162 -63 q-53 0 -145 40t-141 40q-78 0 -166 -74z" />
<glyph unicode="&#xd2;" horiz-adv-x="1796" d="M113 776q0 170 71.5 330t200.5 268q96 84 195 109v-162q-143 -76 -225.5 -226.5t-82.5 -316.5q0 -268 184.5 -456.5t450.5 -188.5q250 0 436 197q180 195 181 446q0 211 -109 375q-125 186 -325 186q-96 0 -166 -59q-76 -61 -76 -156q0 -92 54 -154.5t145 -62.5 q106 0 167 43l60 -125q-92 -63 -238 -63q-152 0 -248 110q-90 104 -90 258q0 152 117 252.5t270 100.5q270 0 441 -221q158 -205 157 -484q0 -166 -75 -330q-98 -213 -284.5 -338.5t-418.5 -125.5q-324 0 -558 235t-234 559zM696 1917l88 88l332 -334l-88 -86z" />
<glyph unicode="&#xd3;" horiz-adv-x="1796" d="M113 776q0 170 71.5 330t200.5 268q96 84 195 109v-162q-143 -76 -225.5 -226.5t-82.5 -316.5q0 -268 184.5 -456.5t450.5 -188.5q250 0 436 197q180 195 181 446q0 211 -109 375q-125 186 -325 186q-96 0 -166 -59q-76 -61 -76 -156q0 -92 54 -154.5t145 -62.5 q106 0 167 43l60 -125q-92 -63 -238 -63q-152 0 -248 110q-90 104 -90 258q0 152 117 252.5t270 100.5q270 0 441 -221q158 -205 157 -484q0 -166 -75 -330q-98 -213 -284.5 -338.5t-418.5 -125.5q-324 0 -558 235t-234 559zM655 1671l332 334l88 -88l-332 -332z" />
<glyph unicode="&#xd4;" horiz-adv-x="1796" d="M113 776q0 170 71.5 330t200.5 268q96 84 195 109v-162q-143 -76 -225.5 -226.5t-82.5 -316.5q0 -268 184.5 -456.5t450.5 -188.5q250 0 436 197q180 195 181 446q0 211 -109 375q-125 186 -325 186q-96 0 -166 -59q-76 -61 -76 -156q0 -92 54 -154.5t145 -62.5 q106 0 167 43l60 -125q-92 -63 -238 -63q-152 0 -248 110q-90 104 -90 258q0 152 117 252.5t270 100.5q270 0 441 -221q158 -205 157 -484q0 -166 -75 -330q-98 -213 -284.5 -338.5t-418.5 -125.5q-324 0 -558 235t-234 559zM573 1665l320 320l319 -320l-88 -86l-231 231 l-231 -231z" />
<glyph unicode="&#xd5;" horiz-adv-x="1796" d="M113 776q0 170 71.5 330t200.5 268q96 84 195 109v-162q-143 -76 -225.5 -226.5t-82.5 -316.5q0 -268 184.5 -456.5t450.5 -188.5q250 0 436 197q180 195 181 446q0 211 -109 375q-125 186 -325 186q-96 0 -166 -59q-76 -61 -76 -156q0 -92 54 -154.5t145 -62.5 q106 0 167 43l60 -125q-92 -63 -238 -63q-152 0 -248 110q-90 104 -90 258q0 152 117 252.5t270 100.5q270 0 441 -221q158 -205 157 -484q0 -166 -75 -330q-98 -213 -284.5 -338.5t-418.5 -125.5q-324 0 -558 235t-234 559zM573 1612v129q86 68 170 67q53 0 145.5 -41 t141.5 -41q76 0 158 68v-125q-82 -63 -162 -63q-53 0 -145.5 40t-141.5 40q-78 0 -166 -74z" />
<glyph unicode="&#xd6;" horiz-adv-x="1796" d="M113 776q0 170 71.5 330t200.5 268q96 84 195 109v-162q-143 -76 -225.5 -226.5t-82.5 -316.5q0 -268 184.5 -456.5t450.5 -188.5q250 0 436 197q180 195 181 446q0 211 -109 375q-125 186 -325 186q-96 0 -166 -59q-76 -61 -76 -156q0 -92 54 -154.5t145 -62.5 q106 0 167 43l60 -125q-92 -63 -238 -63q-152 0 -248 110q-90 104 -90 258q0 152 117 252.5t270 100.5q270 0 441 -221q158 -205 157 -484q0 -166 -75 -330q-98 -213 -284.5 -338.5t-418.5 -125.5q-324 0 -558 235t-234 559zM627 1667q0 39 27.5 66.5t66.5 27.5t66.5 -27.5 t27.5 -66.5t-27.5 -66.5t-66.5 -27.5t-66.5 27.5t-27.5 66.5zM981 1667q0 39 28.5 66.5t65.5 27.5q39 0 66.5 -27.5t27.5 -66.5t-27.5 -66.5t-66.5 -27.5q-37 0 -65.5 27.5t-28.5 66.5z" />
<glyph unicode="&#xd8;" horiz-adv-x="1796" d="M113 766q0 176 76.5 341t211.5 273q90 70 179 95v-164q-143 -76 -225.5 -226.5t-82.5 -316.5q0 -268 189 -455l457 457q-104 39 -164 139q-55 92 -56 209q0 152 119 256q115 98 268 99q219 0 381 -156l119 119l70 -68l-125 -125q154 -201 153 -475q0 -170 -77 -332 q-98 -211 -284.5 -332.5t-416.5 -121.5q-268 0 -479 159l-115 -116l-69 69l110 113q-239 235 -239 559zM535 250q164 -117 372 -117q250 0 433.5 190.5t183.5 444.5q0 209 -109 373q-125 186 -325 186q-96 0 -166 -57q-76 -63 -76 -156q0 -94 54 -156.5t145 -62.5 q109 0 167 43l60 -125q-104 -72 -238 -63z" />
<glyph unicode="&#xd9;" horiz-adv-x="1857" d="M61 1114q0 166 106.5 264.5t274.5 98.5q182 0 293 -120t111 -306v-635q0 -129 67 -207q74 -84 199 -84q150 0 246 111q90 104 90 256v962h160v-1196q0 -53 31.5 -91t82.5 -38q90 0 136 61v-155q-51 -53 -168 -53q-96 0 -159 55t-77 151q-109 -207 -369 -206 q-182 0 -290.5 124.5t-108.5 309.5v635q0 113 -66.5 193.5t-177.5 80.5q-94 0 -157.5 -59.5t-63.5 -151.5q0 -127 111 -209l-111 -102q-160 118 -160 311zM922 1917l88 88l331 -334l-88 -86z" />
<glyph unicode="&#xda;" horiz-adv-x="1857" d="M61 1114q0 166 106.5 264.5t274.5 98.5q182 0 293 -120t111 -306v-635q0 -129 67 -207q74 -84 199 -84q150 0 246 111q90 104 90 256v962h160v-1196q0 -53 31.5 -91t82.5 -38q90 0 136 61v-155q-51 -53 -168 -53q-96 0 -159 55t-77 151q-109 -207 -369 -206 q-182 0 -290.5 124.5t-108.5 309.5v635q0 113 -66.5 193.5t-177.5 80.5q-94 0 -157.5 -59.5t-63.5 -151.5q0 -127 111 -209l-111 -102q-160 118 -160 311zM881 1671l331 334l88 -88l-331 -332z" />
<glyph unicode="&#xdb;" horiz-adv-x="1857" d="M61 1114q0 166 106.5 264.5t274.5 98.5q182 0 293 -120t111 -306v-635q0 -129 67 -207q74 -84 199 -84q150 0 246 111q90 104 90 256v962h160v-1196q0 -53 31.5 -91t82.5 -38q90 0 136 61v-155q-51 -53 -168 -53q-96 0 -159 55t-77 151q-109 -207 -369 -206 q-182 0 -290.5 124.5t-108.5 309.5v635q0 113 -66.5 193.5t-177.5 80.5q-94 0 -157.5 -59.5t-63.5 -151.5q0 -127 111 -209l-111 -102q-160 118 -160 311zM778 1665l320 320l319 -320l-88 -86l-231 231l-232 -231z" />
<glyph unicode="&#xdc;" horiz-adv-x="1857" d="M61 1114q0 166 106.5 264.5t274.5 98.5q182 0 293 -120t111 -306v-635q0 -129 67 -207q74 -84 199 -84q150 0 246 111q90 104 90 256v962h160v-1196q0 -53 31.5 -91t82.5 -38q90 0 136 61v-155q-51 -53 -168 -53q-96 0 -159 55t-77 151q-109 -207 -369 -206 q-182 0 -290.5 124.5t-108.5 309.5v635q0 113 -66.5 193.5t-177.5 80.5q-94 0 -157.5 -59.5t-63.5 -151.5q0 -127 111 -209l-111 -102q-160 118 -160 311zM854 1667q0 39 28.5 66.5t65.5 27.5q39 0 67.5 -27.5t28.5 -66.5t-28.5 -66.5t-67.5 -27.5q-37 0 -65.5 27.5 t-28.5 66.5zM1210 1667q0 39 28 66.5t66.5 27.5t66.5 -27.5t28 -66.5t-28 -66.5t-66.5 -27.5t-66.5 27.5t-28 66.5z" />
<glyph unicode="&#xdd;" horiz-adv-x="1785" d="M61 1108q0 170 107.5 269.5t280.5 99.5q180 0 288 -127q102 -119 103 -303v-609q0 -141 73.5 -224t214.5 -83q135 0 224.5 101.5t89.5 238.5v983h160v-1640q0 -209 -209 -320l-84 133q133 49 133 187v376q-123 -209 -336 -208q-195 0 -311 133q-115 127 -115 323v609 q0 113 -57 192q-66 86 -174 86q-98 0 -163 -60.5t-65 -156.5q0 -59 34 -120.5t83 -94.5l-109 -105q-76 51 -122 139.5t-46 180.5zM881 1671l331 334l88 -88l-331 -332z" />
<glyph unicode="&#xde;" horiz-adv-x="1568" d="M61 717q0 231 150 393q139 150 362 199v145h160v-127h23q293 0 489 -139q221 -158 221 -440q0 -145 -77.5 -265.5t-208.5 -183.5q-96 -47 -191 -47q-152 0 -256 43v-62q0 -113 -53 -180q-59 -72 -168 -71q-104 0 -154 49v151q45 -53 119 -53q96 0 96 115v909 q-158 -45 -254 -154q-104 -119 -104 -282q0 -137 82 -219l-115 -103q-121 123 -121 322zM733 428q104 -41 221 -41q147 0 250 102.5t103 251.5q0 219 -170 336q-147 100 -379 101h-25v-750z" />
<glyph unicode="&#xdf;" horiz-adv-x="1214" d="M41 582v141h264v246q0 219 113 358q123 150 336 150q170 0 284.5 -113t114.5 -283q0 -125 -70 -229q-12 -20 -127 -152q-70 -78 -69 -141q0 -51 81 -159.5t81 -202.5q0 -92 -61.5 -153.5t-153.5 -61.5q-96 0 -160 36v148q55 -53 125 -53q43 0 71.5 28.5t28.5 71.5 q0 49 -80 153.5t-80 190.5q0 109 136.5 260.5t136.5 263.5q0 109 -74 181.5t-180 72.5q-143 0 -230 -114q-74 -102 -73 -252v-1116q0 -117 -72 -213q-78 -102 -190 -115l-52 127q68 10 116 70.5t48 130.5v729h-264z" />
<glyph unicode="&#xe0;" horiz-adv-x="1091" d="M113 360q0 158 103 269.5t259 111.5q170 0 264 -137v119h148v-504q0 -104 98 -104q63 0 107 43v-135q-59 -43 -152 -43q-70 0 -121 43t-69 110q-94 -152 -275 -151q-156 0 -259 111t-103 267zM260 360q0 -100 70.5 -174.5t173.5 -74.5q152 0 219 141q16 35 16 45v129 q0 10 -16 43q-68 143 -219 143q-102 0 -173 -75t-71 -177zM287 1221l88 88l332 -334l-89 -86z" />
<glyph unicode="&#xe1;" horiz-adv-x="1091" d="M113 360q0 158 103 269.5t259 111.5q170 0 264 -137v119h148v-504q0 -104 98 -104q63 0 107 43v-135q-59 -43 -152 -43q-70 0 -121 43t-69 110q-94 -152 -275 -151q-156 0 -259 111t-103 267zM225 975l332 334l88 -88l-332 -332zM260 360q0 -100 70.5 -174.5t173.5 -74.5 q152 0 219 141q16 35 16 45v129q0 10 -16 43q-68 143 -219 143q-102 0 -173 -75t-71 -177z" />
<glyph unicode="&#xe2;" horiz-adv-x="1091" d="M113 360q0 158 103 269.5t259 111.5q170 0 264 -137v119h148v-504q0 -104 98 -104q63 0 107 43v-135q-59 -43 -152 -43q-70 0 -121 43t-69 110q-94 -152 -275 -151q-156 0 -259 111t-103 267zM164 969l319 319l320 -319l-88 -86l-232 231l-231 -231zM260 360 q0 -100 70.5 -174.5t173.5 -74.5q152 0 219 141q16 35 16 45v129q0 10 -16 43q-68 143 -219 143q-102 0 -173 -75t-71 -177z" />
<glyph unicode="&#xe3;" horiz-adv-x="1091" d="M113 360q0 158 103 269.5t259 111.5q170 0 264 -137v119h148v-504q0 -104 98 -104q63 0 107 43v-135q-59 -43 -152 -43q-70 0 -121 43t-69 110q-94 -152 -275 -151q-156 0 -259 111t-103 267zM164 956v129q86 68 170 68q53 0 145 -41t142 -41q76 0 157 68v-125 q-82 -63 -162 -64q-53 0 -145 40t-141 40q-78 0 -166 -74zM260 360q0 -100 70.5 -174.5t173.5 -74.5q152 0 219 141q16 35 16 45v129q0 10 -16 43q-68 143 -219 143q-102 0 -173 -75t-71 -177z" />
<glyph unicode="&#xe4;" horiz-adv-x="1091" d="M113 360q0 158 103 269.5t259 111.5q170 0 264 -137v119h148v-504q0 -104 98 -104q63 0 107 43v-135q-59 -43 -152 -43q-70 0 -121 43t-69 110q-94 -152 -275 -151q-156 0 -259 111t-103 267zM195 1048.5q0 38.5 27.5 66.5t66.5 28t66.5 -28t27.5 -66.5t-27.5 -66.5 t-66.5 -28t-66.5 28t-27.5 66.5zM260 360q0 -100 70.5 -174.5t173.5 -74.5q152 0 219 141q16 35 16 45v129q0 10 -16 43q-68 143 -219 143q-102 0 -173 -75t-71 -177zM551 1048.5q0 38.5 27.5 66.5t66.5 28t66.5 -28t27.5 -66.5t-27.5 -66.5t-66.5 -28t-66.5 28t-27.5 66.5z " />
<glyph unicode="&#xe5;" horiz-adv-x="1091" d="M113 360q0 158 103 269.5t259 111.5q170 0 264 -137v119h148v-504q0 -104 98 -104q63 0 107 43v-135q-59 -43 -152 -43q-70 0 -121 43t-69 110q-94 -152 -275 -151q-156 0 -259 111t-103 267zM260 360q0 -100 70.5 -174.5t173.5 -74.5q152 0 219 141q16 35 16 45v129 q0 10 -16 43q-68 143 -219 143q-102 0 -173 -75t-71 -177zM266 1108q0 90 62.5 152.5t152.5 62.5q88 0 150.5 -62.5t62.5 -152.5q0 -88 -62.5 -150.5t-150.5 -62.5q-90 0 -152.5 62.5t-62.5 150.5zM350 1108q0 -53 38 -92t93 -39q53 0 92 39t39 92q0 55 -38.5 93t-92.5 38 q-55 0 -93 -38t-38 -93z" />
<glyph unicode="&#xe6;" horiz-adv-x="1480" d="M113 360q0 152 105.5 266.5t254.5 114.5q170 0 258 -135v117h150v-111q84 129 239 129q180 0 299 -159l-428 -426q68 -45 146 -45q135 0 219 65v-149q-92 -45 -223 -45q-227 0 -332 192q-96 -193 -309 -192q-158 0 -268.5 111t-110.5 267zM246 360.5q0 -102.5 71.5 -176 t174 -73.5t173 73.5t70.5 176t-70.5 176t-173 73.5t-174 -73.5t-71.5 -176zM870 367q0 -72 39 -131l326 327q-59 49 -131 49q-102 0 -168 -71.5t-66 -173.5z" />
<glyph unicode="&#xe7;" horiz-adv-x="864" d="M113 365q0 154 106.5 265t259.5 111q104 0 178 -39q94 -51 95 -145q0 -51 -34 -86t-85 -35q-43 0 -78 33t-35 76q0 29 17 47q-29 12 -66 12q-98 0 -159.5 -70.5t-61.5 -168.5q0 -104 80 -175t186 -71q143 0 221 63v-153q-74 -39 -180 -45q-16 -37 -51 -105q18 12 45 12 q68 0 115 -56t47 -122q0 -82 -57.5 -136t-137.5 -54q-10 0 -18 2v84q37 2 63.5 28.5t26.5 63.5q0 86 -88 86q-41 0 -68 -29l-59 58l82 170q-147 18 -245.5 122.5t-98.5 256.5z" />
<glyph unicode="&#xe8;" horiz-adv-x="860" d="M113 365q0 154 109.5 265t260.5 111q195 0 316 -161l-430 -426q66 -43 143 -43q139 0 223 65v-147q-92 -47 -223 -47q-168 0 -283.5 108.5t-115.5 274.5zM248 365q0 -72 39 -132l325 330q-57 47 -133 47q-100 0 -165.5 -71.5t-65.5 -173.5zM266 1221l88 88l332 -334 l-88 -86z" />
<glyph unicode="&#xe9;" horiz-adv-x="860" d="M113 365q0 154 109.5 265t260.5 111q195 0 316 -161l-430 -426q66 -43 143 -43q139 0 223 65v-147q-92 -47 -223 -47q-168 0 -283.5 108.5t-115.5 274.5zM246 975l332 334l88 -88l-332 -332zM248 365q0 -72 39 -132l325 330q-57 47 -133 47q-100 0 -165.5 -71.5 t-65.5 -173.5z" />
<glyph unicode="&#xea;" horiz-adv-x="860" d="M113 365q0 154 109.5 265t260.5 111q195 0 316 -161l-430 -426q66 -43 143 -43q139 0 223 65v-147q-92 -47 -223 -47q-168 0 -283.5 108.5t-115.5 274.5zM164 969l319 319l320 -319l-88 -86l-232 231l-231 -231zM248 365q0 -72 39 -132l325 330q-57 47 -133 47 q-100 0 -165.5 -71.5t-65.5 -173.5z" />
<glyph unicode="&#xeb;" horiz-adv-x="860" d="M113 365q0 154 109.5 265t260.5 111q195 0 316 -161l-430 -426q66 -43 143 -43q139 0 223 65v-147q-92 -47 -223 -47q-168 0 -283.5 108.5t-115.5 274.5zM195 1048.5q0 38.5 27.5 66.5t66.5 28t66.5 -28t27.5 -66.5t-27.5 -66.5t-66.5 -28t-66.5 28t-27.5 66.5zM248 365 q0 -72 39 -132l325 330q-57 47 -133 47q-100 0 -165.5 -71.5t-65.5 -173.5zM551 1048.5q0 38.5 27.5 66.5t66.5 28t66.5 -28t27.5 -66.5t-27.5 -66.5t-66.5 -28t-66.5 28t-27.5 66.5z" />
<glyph unicode="&#xec;" horiz-adv-x="534" d="M61 1221l89 88l331 -334l-88 -86zM184 205v518h148v-504q0 -102 96 -102q66 0 109 41v-135q-59 -41 -152 -41q-90 0 -145.5 65.5t-55.5 157.5z" />
<glyph unicode="&#xed;" horiz-adv-x="534" d="M41 975l332 334l88 -88l-332 -332zM184 205v518h148v-504q0 -102 96 -102q66 0 109 41v-135q-59 -41 -152 -41q-90 0 -145.5 65.5t-55.5 157.5z" />
<glyph unicode="&#xee;" horiz-adv-x="534" d="M-61 969l319 319l320 -319l-89 -86l-231 231l-231 -231zM184 205v518h148v-504q0 -102 96 -102q66 0 109 41v-135q-59 -41 -152 -41q-90 0 -145.5 65.5t-55.5 157.5z" />
<glyph unicode="&#xef;" horiz-adv-x="534" d="M-10 1048.5q0 38.5 27.5 66.5t66.5 28t66.5 -28t27.5 -66.5t-27.5 -66.5t-66.5 -28t-66.5 28t-27.5 66.5zM184 205v518h148v-504q0 -102 96 -102q66 0 109 41v-135q-59 -41 -152 -41q-90 0 -145.5 65.5t-55.5 157.5zM346 1048.5q0 38.5 27.5 66.5t66.5 28t67 -28 t28 -66.5t-28 -66.5t-67 -28t-66.5 28t-27.5 66.5z" />
<glyph unicode="&#xf0;" horiz-adv-x="1093" d="M113 360q0 158 103 269.5t259 111.5q172 0 266 -141v434h-184v150h184v270h148v-270h158v-150h-158v-815q0 -102 98 -102q63 0 107 41v-135q-59 -41 -152 -41q-70 0 -122 43t-70 110q-92 -154 -275 -153q-156 0 -259 111t-103 267zM260 360.5q0 -102.5 70.5 -176 t173.5 -73.5q158 0 223 149q14 33 14 45v113q0 10 -14 45q-66 150 -223 149q-102 0 -173 -74.5t-71 -177z" />
<glyph unicode="&#xf1;" d="M184 0v723h148v-107q70 125 211 125q123 0 198.5 -80.5t75.5 -205.5v-236q0 -102 101 -102q61 0 104 41v-135q-59 -41 -152 -41q-90 0 -145 65.5t-55 157.5v237q0 172 -158 172q-127 0 -172 -149q-8 -29 -8 -39v-426h-148zM184 956v129q86 68 170 68q53 0 145.5 -41 t141.5 -41q76 0 158 68v-125q-82 -63 -162 -64q-53 0 -145.5 40t-141.5 40q-78 0 -166 -74z" />
<glyph unicode="&#xf2;" horiz-adv-x="980" d="M113 360q0 158 110.5 269.5t268.5 111.5q156 0 266 -111.5t110 -269.5q0 -156 -110.5 -267t-265.5 -111q-158 0 -268.5 111t-110.5 267zM244 358.5q0 -102.5 72.5 -174t177.5 -71.5q102 0 174.5 71.5t72.5 173.5q0 39 -12 76q-33 -29 -76 -28q-49 0 -85 34.5t-36 83.5 q0 41 29 76q-35 10 -67 10q-102 0 -176 -74.5t-74 -177zM287 1221l88 88l332 -334l-89 -86z" />
<glyph unicode="&#xf3;" horiz-adv-x="980" d="M113 360q0 158 110.5 269.5t268.5 111.5q156 0 266 -111.5t110 -269.5q0 -156 -110.5 -267t-265.5 -111q-158 0 -268.5 111t-110.5 267zM244 358.5q0 -102.5 72.5 -174t177.5 -71.5q102 0 174.5 71.5t72.5 173.5q0 39 -12 76q-33 -29 -76 -28q-49 0 -85 34.5t-36 83.5 q0 41 29 76q-35 10 -67 10q-102 0 -176 -74.5t-74 -177zM246 975l332 334l88 -88l-332 -332z" />
<glyph unicode="&#xf4;" horiz-adv-x="980" d="M113 360q0 158 110.5 269.5t268.5 111.5q156 0 266 -111.5t110 -269.5q0 -156 -110.5 -267t-265.5 -111q-158 0 -268.5 111t-110.5 267zM143 969l320 319l319 -319l-88 -86l-231 231l-232 -231zM244 358.5q0 -102.5 72.5 -174t177.5 -71.5q102 0 174.5 71.5t72.5 173.5 q0 39 -12 76q-33 -29 -76 -28q-49 0 -85 34.5t-36 83.5q0 41 29 76q-35 10 -67 10q-102 0 -176 -74.5t-74 -177z" />
<glyph unicode="&#xf5;" horiz-adv-x="980" d="M113 360q0 158 110.5 269.5t268.5 111.5q156 0 266 -111.5t110 -269.5q0 -156 -110.5 -267t-265.5 -111q-158 0 -268.5 111t-110.5 267zM164 956v129q86 68 170 68q53 0 145 -41t142 -41q76 0 157 68v-125q-82 -63 -162 -64q-53 0 -145 40t-141 40q-78 0 -166 -74z M244 358.5q0 -102.5 72.5 -174t177.5 -71.5q102 0 174.5 71.5t72.5 173.5q0 39 -12 76q-33 -29 -76 -28q-49 0 -85 34.5t-36 83.5q0 41 29 76q-35 10 -67 10q-102 0 -176 -74.5t-74 -177z" />
<glyph unicode="&#xf6;" horiz-adv-x="980" d="M113 360q0 158 110.5 269.5t268.5 111.5q156 0 266 -111.5t110 -269.5q0 -156 -110.5 -267t-265.5 -111q-158 0 -268.5 111t-110.5 267zM215 1048.5q0 38.5 27.5 66.5t66.5 28t66.5 -28t27.5 -66.5t-27.5 -66.5t-66.5 -28t-66.5 28t-27.5 66.5zM244 358.5 q0 -102.5 72.5 -174t177.5 -71.5q102 0 174.5 71.5t72.5 173.5q0 39 -12 76q-33 -29 -76 -28q-49 0 -85 34.5t-36 83.5q0 41 29 76q-35 10 -67 10q-102 0 -176 -74.5t-74 -177zM571 1048.5q0 38.5 28 66.5t67 28t66.5 -28t27.5 -66.5t-27.5 -66.5t-66.5 -28t-67 28t-28 66.5 z" />
<glyph unicode="&#xf8;" horiz-adv-x="983" d="M113 53l77 78q-78 102 -77 229q0 158 110.5 269.5t268.5 111.5q127 0 229 -79l82 79l67 -67l-79 -82q80 -102 79 -232q0 -156 -111.5 -267t-266.5 -111q-129 0 -232 79l-78 -77zM246 360q0 -72 41 -133l340 340q-61 45 -135 45q-102 0 -174 -75t-72 -177zM354 156 q61 -45 138 -45q102 0 173.5 73.5t71.5 175.5q0 76 -43 138z" />
<glyph unicode="&#xf9;" d="M184 268v455h148v-442q0 -170 157 -170q121 0 168 135q12 37 13 51v426h147v-504q0 -102 98 -102q63 0 107 41v-135q-59 -41 -152 -41q-145 0 -190 147q-66 -150 -221 -149q-123 0 -199 81.5t-76 206.5zM328 1221l88 88l332 -334l-89 -86z" />
<glyph unicode="&#xfa;" d="M184 268v455h148v-442q0 -170 157 -170q121 0 168 135q12 37 13 51v426h147v-504q0 -102 98 -102q63 0 107 41v-135q-59 -41 -152 -41q-145 0 -190 147q-66 -150 -221 -149q-123 0 -199 81.5t-76 206.5zM266 975l332 334l88 -88l-332 -332z" />
<glyph unicode="&#xfb;" d="M184 268v455h148v-442q0 -170 157 -170q121 0 168 135q12 37 13 51v426h147v-504q0 -102 98 -102q63 0 107 41v-135q-59 -41 -152 -41q-145 0 -190 147q-66 -150 -221 -149q-123 0 -199 81.5t-76 206.5zM184 969l320 319l319 -319l-88 -86l-231 231l-232 -231z" />
<glyph unicode="&#xfc;" d="M184 268v455h148v-442q0 -170 157 -170q121 0 168 135q12 37 13 51v426h147v-504q0 -102 98 -102q63 0 107 41v-135q-59 -41 -152 -41q-145 0 -190 147q-66 -150 -221 -149q-123 0 -199 81.5t-76 206.5zM215 1048.5q0 38.5 27.5 66.5t66.5 28t66.5 -28t27.5 -66.5 t-27.5 -66.5t-66.5 -28t-66.5 28t-27.5 66.5zM571 1048.5q0 38.5 28 66.5t67 28t66.5 -28t27.5 -66.5t-27.5 -66.5t-66.5 -28t-67 28t-28 66.5z" />
<glyph unicode="&#xfd;" horiz-adv-x="1001" d="M184 268v455h148v-442q0 -170 157 -170q119 0 166 135q14 37 15 51v426h147v-870q0 -117 -72 -213q-76 -102 -188 -115l-53 127q70 10 118 70.5t48 130.5v251q-72 -125 -211 -124q-123 0 -199 81.5t-76 206.5zM287 975l331 334l89 -88l-332 -332z" />
<glyph unicode="&#xfe;" horiz-adv-x="1073" d="M184 -459v1913h148v-854q92 141 266 141q156 0 259.5 -111.5t103.5 -269.5q0 -156 -103.5 -267t-259.5 -111q-174 0 -266 141v-582h-148zM332 303q0 -10 16 -45q66 -147 223 -147q100 0 172 73.5t72 176t-71.5 177t-172.5 74.5q-158 0 -223 -147q-16 -35 -16 -45v-117z " />
<glyph unicode="&#xff;" horiz-adv-x="1001" d="M184 268v455h148v-442q0 -170 157 -170q119 0 166 135q14 37 15 51v426h147v-870q0 -117 -72 -213q-76 -102 -188 -115l-53 127q70 10 118 70.5t48 130.5v251q-72 -125 -211 -124q-123 0 -199 81.5t-76 206.5zM236 1048.5q0 38.5 27.5 66.5t66.5 28t66.5 -28t27.5 -66.5 t-27.5 -66.5t-66.5 -28t-66.5 28t-27.5 66.5zM592 1048.5q0 38.5 27.5 66.5t66.5 28t66.5 -28t27.5 -66.5t-27.5 -66.5t-66.5 -28t-66.5 28t-27.5 66.5z" />
<glyph unicode="&#x152;" horiz-adv-x="2985" d="M1857 979q0 236 193 375q170 123 414 123q324 0 450 -203q51 -80 51 -174q0 -145 -97 -243.5t-245 -117.5l-45 146q94 12 160 65q74 61 74 150q0 121 -123 180q-96 47 -229 47q-172 0 -297 -86q-143 -96 -144 -262q0 -186 160 -295q135 -88 314 -88h24v-143 q-338 0 -338 -172q0 -82 96 -125q74 -33 168 -33q184 0 297 86v-160q-127 -68 -317 -67q-158 0 -269 65q-135 80 -135 225q0 102 67.5 170t172.5 84q-176 29 -289 154t-113 299zM113 776q0 170 71.5 330t200.5 268q96 84 195 109v-162q-143 -76 -225.5 -226.5t-82.5 -316.5 q0 -268 184.5 -456.5t450.5 -188.5q250 0 436 197q180 195 181 446q0 211 -109 375q-125 186 -325 186q-96 0 -166 -59q-76 -61 -76 -156q0 -92 54 -154.5t145 -62.5q106 0 167 43l60 -125q-92 -63 -238 -63q-152 0 -248 110q-90 104 -90 258q0 152 117 252.5t270 100.5 q270 0 441 -221q158 -205 157 -484q0 -166 -75 -330q-98 -213 -284.5 -338.5t-418.5 -125.5q-324 0 -558 235t-234 559z" />
<glyph unicode="&#x153;" horiz-adv-x="1841" d="M1094 365q0 154 109.5 265t260.5 111q195 0 316 -161l-430 -426q66 -43 143 -43q139 0 223 65v-147q-92 -47 -223 -47q-168 0 -283.5 108.5t-115.5 274.5zM1229 365q0 -72 39 -132l325 330q-57 47 -133 47q-100 0 -165.5 -71.5t-65.5 -173.5zM113 360q0 158 110.5 269.5 t268.5 111.5q156 0 266 -111.5t110 -269.5q0 -156 -110.5 -267t-265.5 -111q-158 0 -268.5 111t-110.5 267zM244 358.5q0 -102.5 72.5 -174t177.5 -71.5q102 0 174.5 71.5t72.5 173.5q0 39 -12 76q-33 -29 -76 -28q-49 0 -85 34.5t-36 83.5q0 41 29 76q-35 10 -67 10 q-102 0 -176 -74.5t-74 -177z" />
<glyph unicode="&#x178;" horiz-adv-x="1785" d="M-143 1699.5q0 38.5 27.5 66.5t66.5 28t66.5 -28t27.5 -66.5t-27.5 -66.5t-66.5 -28t-66.5 28t-27.5 66.5zM213 1699.5q0 38.5 27.5 66.5t66.5 28t66.5 -28t27.5 -66.5t-27.5 -66.5t-66.5 -28t-66.5 28t-27.5 66.5zM61 1108q0 170 107.5 269.5t280.5 99.5q180 0 288 -127 q102 -119 103 -303v-609q0 -141 73.5 -224t214.5 -83q135 0 224.5 101.5t89.5 238.5v983h160v-1640q0 -209 -209 -320l-84 133q133 49 133 187v376q-123 -209 -336 -208q-195 0 -311 133q-115 127 -115 323v609q0 113 -57 192q-66 86 -174 86q-98 0 -163 -60.5t-65 -156.5 q0 -59 34 -120.5t83 -94.5l-109 -105q-76 51 -122 139.5t-46 180.5z" />
<glyph unicode="&#x2c6;" horiz-adv-x="720" d="M41 969l319 319l320 -319l-88 -86l-232 231l-231 -231z" />
<glyph unicode="&#x2dc;" horiz-adv-x="696" d="M41 1038v129q86 68 170 68q53 0 145.5 -41t141.5 -41q76 0 157 68v-125q-82 -63 -161 -64q-53 0 -145.5 40t-141.5 40q-78 0 -166 -74z" />
<glyph unicode="&#x2013;" horiz-adv-x="964" d="M72 375v149h821v-149h-821z" />
<glyph unicode="&#x2014;" horiz-adv-x="1452" d="M72 375v149h1308v-149h-1308z" />
<glyph unicode="&#x2018;" horiz-adv-x="473" d="M117 1184q0 182 196 293l58 -74q-96 -57 -129 -135q47 -4 78.5 -36t31.5 -77q0 -47 -33.5 -81t-78.5 -34q-123 1 -123 144z" />
<glyph unicode="&#x2019;" horiz-adv-x="473" d="M102 1114q96 57 127 137q-45 2 -76.5 34t-31.5 79q0 45 32.5 79t79.5 34q123 0 123 -142q0 -184 -196 -295z" />
<glyph unicode="&#x201a;" horiz-adv-x="569" d="M150 -154q96 57 126 136q-45 4 -76.5 35.5t-31.5 76.5q0 47 32.5 81t80.5 34q123 0 122 -143q0 -182 -196 -293z" />
<glyph unicode="&#x201c;" horiz-adv-x="806" d="M117 1184q0 182 196 293l58 -74q-96 -57 -129 -135q47 -4 78.5 -36t31.5 -77q0 -47 -33.5 -81t-78.5 -34q-123 1 -123 144zM451 1184q0 182 196 293l58 -74q-96 -57 -127 -135q45 -4 76.5 -36t31.5 -77q0 -47 -32.5 -81t-80.5 -34q-122 1 -122 144z" />
<glyph unicode="&#x201d;" horiz-adv-x="806" d="M102 1114q96 57 127 137q-45 2 -76.5 34t-31.5 79q0 45 32.5 79t79.5 34q123 0 123 -142q0 -184 -196 -295zM436 1114q96 57 129 137q-47 2 -78.5 34t-31.5 79q0 45 33.5 79t78.5 34q123 0 123 -142q0 -184 -196 -295z" />
<glyph unicode="&#x201e;" horiz-adv-x="903" d="M150 -154q96 57 126 136q-45 4 -76.5 35.5t-31.5 76.5q0 47 32.5 81t80.5 34q123 0 122 -143q0 -182 -196 -293zM483 -154q96 57 129 136q-47 4 -78.5 35.5t-31.5 76.5q0 47 33.5 81t78.5 34q123 0 123 -143q0 -182 -196 -293z" />
<glyph unicode="&#x2022;" horiz-adv-x="706" d="M113 479q0 100 70.5 171t170.5 71q98 0 169 -70.5t71 -171.5q0 -98 -70.5 -168.5t-169.5 -70.5q-100 0 -170.5 70.5t-70.5 168.5z" />
<glyph unicode="&#x2026;" horiz-adv-x="1693" d="M168 94q0 47 34 81t79 34q47 0 80.5 -34t33.5 -81t-33.5 -79.5t-80.5 -32.5q-45 0 -79 32.5t-34 79.5zM733 94q0 47 34 81t81 34q45 0 79 -34t34 -81t-34 -79.5t-79 -32.5q-47 0 -81 32.5t-34 79.5zM1300 94q0 47 33 81t80 34t80 -34t33 -81t-33 -79.5t-80 -32.5 t-80 32.5t-33 79.5z" />
<glyph unicode="&#x2039;" horiz-adv-x="428" d="M72 360l198 287l86 -61l-157 -226l157 -227l-86 -61z" />
<glyph unicode="&#x203a;" horiz-adv-x="428" d="M72 133l157 227q-10 12 -157 226l86 61l198 -287l-198 -288z" />
<glyph unicode="&#x2122;" horiz-adv-x="1224" d="M41 965v96h444v-96h-172v-426h-96v426h-176zM608 539v522h103l159 -217q23 29 162 217h101v-522h-99v362l-164 -221l-163 221v-362h-99z" />
<glyph unicode="&#xe000;" horiz-adv-x="740" d="M0 740h740v-740h-740v740z" />
<glyph unicode="&#xfb01;" horiz-adv-x="1226" d="M835 1122q0 47 34 80t79 33q47 0 81 -33t34 -80t-34 -80.5t-81 -33.5q-45 0 -79 33.5t-34 80.5zM874 205v518h148v-504q0 -102 98 -102q63 0 107 41v-135q-59 -41 -152 -41q-90 0 -145.5 65.5t-55.5 157.5zM41 582v141h260v428q0 141 89 233.5t233 92.5q98 0 172 -52 v-151q-72 57 -172 57q-78 0 -126 -51t-48 -129v-428h251v-141h-251v-729q0 -117 -72 -213q-78 -102 -191 -115l-51 127q68 10 117 70.5t49 130.5v729h-260z" />
<glyph unicode="&#xfb02;" horiz-adv-x="1228" d="M876 205v1249h148v-1235q0 -102 98 -102q63 0 107 41v-135q-59 -41 -152 -41q-90 0 -145.5 65.5t-55.5 157.5zM41 582v141h260v428q0 141 89 233.5t233 92.5q98 0 172 -52v-151q-72 57 -172 57q-78 0 -126 -51t-48 -129v-428h251v-141h-251v-729q0 -117 -72 -213 q-78 -102 -191 -115l-51 127q68 10 117 70.5t49 130.5v729h-260z" />
<glyph unicode="&#xfb03;" horiz-adv-x="1918" d="M1527 1122q0 47 34 80t79 33q47 0 81 -33t34 -80t-34 -80.5t-81 -33.5q-45 0 -79 33.5t-34 80.5zM1566 205v518h148v-504q0 -102 98 -102q63 0 107 41v-135q-59 -41 -152 -41q-90 0 -145.5 65.5t-55.5 157.5zM733 582v141h260v428q0 141 89 233.5t233 92.5q98 0 172 -52 v-151q-72 57 -172 57q-78 0 -126 -51t-48 -129v-428h251v-141h-251v-729q0 -117 -72 -213q-78 -102 -191 -115l-51 127q68 10 117 70.5t49 130.5v729h-260zM41 582v141h260v428q0 141 89 233.5t233 92.5q98 0 172 -52v-151q-72 57 -172 57q-78 0 -126 -51t-48 -129v-428h251 v-141h-251v-729q0 -117 -72 -213q-78 -102 -191 -115l-51 127q68 10 117 70.5t49 130.5v729h-260z" />
<glyph unicode="&#xfb04;" horiz-adv-x="1921" d="M1568 205v1249h148v-1235q0 -102 98 -102q63 0 107 41v-135q-59 -41 -152 -41q-90 0 -145.5 65.5t-55.5 157.5zM733 582v141h260v428q0 141 89 233.5t233 92.5q98 0 172 -52v-151q-72 57 -172 57q-78 0 -126 -51t-48 -129v-428h251v-141h-251v-729q0 -117 -72 -213 q-78 -102 -191 -115l-51 127q68 10 117 70.5t49 130.5v729h-260zM41 582v141h260v428q0 141 89 233.5t233 92.5q98 0 172 -52v-151q-72 57 -172 57q-78 0 -126 -51t-48 -129v-428h251v-141h-251v-729q0 -117 -72 -213q-78 -102 -191 -115l-51 127q68 10 117 70.5t49 130.5 v729h-260z" />
</font>
</defs>
</svg>
