<?xml version="1.0" standalone="no"?>
<!DOCTYPE svg PUBLIC "-//W3C//DTD SVG 1.1//EN" "http://www.w3.org/Graphics/SVG/1.1/DTD/svg11.dtd" >
<svg xmlns="http://www.w3.org/2000/svg">
<metadata>
This is a custom SVG webfont generated by Font Squirrel.
Copyright   :  Mark Simonson 2001
</metadata>
<defs>
<font id="CoquetteLightRegular" horiz-adv-x="1079" >
<font-face units-per-em="2048" ascent="1638" descent="-410" />
<missing-glyph horiz-adv-x="542" />
<glyph unicode=" "  horiz-adv-x="542" />
<glyph unicode="&#x09;" horiz-adv-x="542" />
<glyph unicode="&#xa0;" horiz-adv-x="542" />
<glyph unicode="!" horiz-adv-x="561" d="M215 47q0 27 19.5 46.5t46 19.5t46 -19.5t19.5 -46.5t-19.5 -46t-46 -19t-46 19t-19.5 46zM250 362v1092h61v-1092h-61z" />
<glyph unicode="&#x22;" horiz-adv-x="671" d="M82 1190q102 66 119 156h-6q-27 -2 -46.5 17t-19.5 48q0 27 19.5 46.5t46.5 19.5q74 0 73 -88q0 -152 -151 -252zM362 1190q102 66 119 156h-6q-27 -2 -46 17t-19 48q0 27 19.5 46.5t45.5 19.5q74 0 74 -88q0 -152 -152 -252z" />
<glyph unicode="#" horiz-adv-x="995" d="M61 434l15 64h223l63 293h-225l15 63h223l39 176h63l-37 -176h217l37 176h64l-37 -176h213l-12 -63h-215l-62 -293h213l-14 -64h-211l-41 -186h-64l39 186h-217l-39 -186h-63l39 186h-226zM365 498h217l61 293h-217z" />
<glyph unicode="$" horiz-adv-x="628" d="M141 707q0 59 38 106t95 57v160h64v-158q49 -4 88 -26v-78q-49 43 -119 43q-43 0 -72.5 -30.5t-29.5 -73.5q0 -51 74 -97q127 -76 135 -84q74 -63 73 -157q0 -68 -42 -121t-107 -68v-180h-64v178q-66 4 -114 35v78q57 -51 141 -51q51 0 88 37.5t37 91.5q0 74 -74 127 l-137 82q-74 53 -74 129z" />
<glyph unicode="%" horiz-adv-x="1488" d="M82 805q0 100 71.5 172t174.5 72q100 0 171.5 -72t71.5 -172q0 -102 -71.5 -174t-171.5 -72q-102 0 -174 72t-72 174zM145 805q0 -76 53.5 -129t129.5 -53q74 0 127 53t53 129q0 39 -16 76q-16 -12 -37 -13q-63 0 -64 64q0 20 12 37q-37 18 -75 18q-76 0 -129.5 -54 t-53.5 -128zM309 20l828 1031l47 -41l-826 -1030zM918 225q0 102 71.5 174t173.5 72q100 0 172 -71.5t72 -174.5q0 -100 -71.5 -171.5t-172.5 -71.5q-102 0 -173.5 71.5t-71.5 171.5zM981 225q0 -74 53 -128t129 -54q74 0 128.5 54.5t54.5 127.5q0 41 -19 78 q-16 -12 -37 -12q-63 0 -63 63q0 20 12 37q-37 16 -76 17q-76 0 -129 -53.5t-53 -129.5z" />
<glyph unicode="&#x26;" horiz-adv-x="1433" d="M82 995q0 221 188 359q168 123 398 123q317 0 440 -193q47 -74 47 -160q0 -131 -93 -225t-226 -111l-9 62q111 14 188 91t77 183q0 61 -31 117q-98 174 -393 174q-201 0 -353 -106q-170 -119 -170 -314q0 -225 177 -348q156 -106 391 -106v-64q-393 0 -394 -221 q0 -106 113 -166q92 -47 211 -47q174 0 289 88q127 96 127 266q0 37 -10 105h385v-62h-316q4 -35 4 -45q0 -195 -145 -309q-133 -104 -334 -104q-147 0 -256 63q-131 74 -131 211q0 113 90 182q76 59 197 72q-209 27 -332 152q-129 128 -129 333z" />
<glyph unicode="'" horiz-adv-x="391" d="M82 1190q102 66 119 156h-6q-27 -2 -46.5 17t-19.5 48q0 27 19.5 46.5t46.5 19.5q74 0 73 -88q0 -152 -151 -252z" />
<glyph unicode="(" horiz-adv-x="579" d="M143 500q0 551 349 977l47 -37q-334 -410 -334 -940q0 -528 334 -938l-47 -39q-349 426 -349 977z" />
<glyph unicode=")" horiz-adv-x="579" d="M41 -438q334 410 334 938q0 530 -334 940l47 37q348 -426 348 -977t-348 -977z" />
<glyph unicode="*" horiz-adv-x="761" d="M102 625l230 118l-230 119l37 62l217 -138l-12 256h72l-13 -256l220 140l34 -64l-229 -119l231 -118l-36 -64l-220 141l13 -260h-72l12 260l-217 -139z" />
<glyph unicode="+" horiz-adv-x="983" d="M82 379v61h379v379h61v-379h379v-61h-379v-379h-61v379h-379z" />
<glyph unicode="," horiz-adv-x="581" d="M176 -174q102 66 119 156h-6q-27 0 -46.5 18t-19.5 47q0 27 19.5 46.5t46.5 19.5q74 0 73 -88q0 -152 -151 -252z" />
<glyph unicode="-" horiz-adv-x="653" d="M82 379v61h489v-61h-489z" />
<glyph unicode="." horiz-adv-x="567" d="M217 47q0 66 66 66q27 0 46 -19.5t19 -46.5t-19.5 -46t-46 -19t-46 19t-19.5 46z" />
<glyph unicode="/" horiz-adv-x="882" d="M0 -412l823 1833l60 -26l-824 -1833z" />
<glyph unicode="0" horiz-adv-x="1044" d="M143 512q0 201 88 352q106 184 291 185q186 0 291 -185q88 -152 88 -352q0 -199 -88 -350q-104 -180 -291 -180q-184 0 -291 180q-88 151 -88 350zM207 512q0 -174 69 -305q86 -164 246 -164t248 164q70 131 70 305q0 176 -70 309q-88 166 -248 166t-246 -166 q-69 -133 -69 -309z" />
<glyph unicode="1" horiz-adv-x="751" d="M41 618v64q160 0 285 92q139 100 139 256h61v-1030h-61v862q-55 -115 -173 -179.5t-251 -64.5z" />
<glyph unicode="2" horiz-adv-x="991" d="M143 725q0 139 97.5 231.5t236.5 92.5q160 0 256 -94.5t96 -254.5q0 -309 -428 -608q31 6 60 6q47 0 124 -27.5t117 -27.5q66 0 146 37v-70q-78 -31 -148 -30q-51 0 -139 35.5t-137 35.5q-84 0 -201 -69l-30 55q573 317 573 663q0 133 -78 210t-211 77 q-115 0 -192.5 -73.5t-77.5 -188.5q0 -129 98 -190l-35 -54q-127 80 -127 244z" />
<glyph unicode="3" horiz-adv-x="991" d="M143 154l50 39q119 -147 323 -148q106 0 188 79t82 185q0 117 -74.5 193t-191.5 76q-121 0 -198 -78l-46 45l422 422h-516v63h609l2 -57l-357 -359q49 27 84 27q145 0 236.5 -93t91.5 -239q0 -131 -99.5 -229t-232.5 -98q-234 0 -373 172z" />
<glyph unicode="4" horiz-adv-x="978" d="M41 217v62q205 80 328 307q115 209 114 444h62q0 -225 -99 -428q-106 -219 -288 -321h469v286h61v-286h250v-64h-250v-217h-61v217h-586z" />
<glyph unicode="5" horiz-adv-x="1013" d="M143 168l50 39q125 -162 335 -162q121 0 201 82t80 205q0 117 -82 188q-76 66 -197 66q-182 0 -290 -166l-58 22l82 588h547v-63h-494l-61 -441q100 123 274 123q147 0 243.5 -87t96.5 -230q0 -150 -96 -250t-246 -100q-240 0 -385 186z" />
<glyph unicode="6" horiz-adv-x="983" d="M143 408q0 203 117 380q111 172 295 271l29 -58q-166 -86 -267 -233q-106 -156 -108 -336q39 86 118 141.5t171 55.5q150 0 246 -85t96 -233q0 -131 -100.5 -230t-229.5 -99q-172 0 -272 131q-95 121 -95 295zM219 295q0 -12 21 -62q78 -188 270 -188q104 0 186 80 t82 186q0 121 -78.5 188.5t-201.5 67.5q-104 0 -191.5 -83t-87.5 -189z" />
<glyph unicode="7" horiz-adv-x="937" d="M82 932v72q86 45 172 45q61 0 179 -32t179 -32q104 0 215 59l29 -55q-221 -121 -346 -350q-119 -219 -119 -481q0 -78 12 -158h-65q-12 82 -12 160q0 225 96 434q100 223 274 344q-49 -10 -100 -10q-61 0 -173 28.5t-169 28.5q-84 0 -172 -53z" />
<glyph unicode="8" horiz-adv-x="1015" d="M143 289q0 104 76 182q68 72 174 98q-184 55 -184 217q0 113 94 191q90 72 205 72t203 -72q96 -78 96 -191q0 -162 -184 -217q106 -27 174 -98q76 -78 75 -182q0 -135 -116 -226q-109 -82 -248 -81.5t-248 81.5q-117 91 -117 226zM207 289q0 -109 98 -180q88 -66 203 -66 q113 0 203 66q98 72 98 180q0 111 -98 182q-90 63 -203 64q-115 0 -203 -64q-98 -71 -98 -182zM270 786q0 -84 78 -139q70 -51 160 -51q88 0 158 51q78 55 77 139q0 88 -73.5 144.5t-161.5 56.5t-160 -55q-78 -58 -78 -146z" />
<glyph unicode="9" horiz-adv-x="983" d="M143 719q0 131 100.5 230.5t231.5 99.5q170 0 273 -131q92 -121 92 -295q0 -203 -114 -378t-296 -272l-31 56q166 86 267 233q106 156 108 336q-39 -86 -117.5 -141.5t-171.5 -55.5q-150 0 -246 86.5t-96 231.5zM207 719q0 -121 77.5 -188.5t200.5 -67.5q104 0 191.5 83 t87.5 189q0 12 -21 62q-78 190 -268 190q-106 0 -187 -81t-81 -187z" />
<glyph unicode=":" horiz-adv-x="567" d="M217 47q0 66 66 66q27 0 46 -19.5t19 -46.5t-19.5 -46t-46 -19t-46 19t-19.5 46zM217 621q0 27 19.5 46t46 19t46 -19.5t19.5 -46t-19.5 -46t-45.5 -19.5q-66 0 -66 66z" />
<glyph unicode=";" horiz-adv-x="581" d="M176 -174q102 66 119 156h-6q-27 0 -46.5 18t-19.5 47q0 27 19.5 46.5t46.5 19.5q74 0 73 -88q0 -152 -151 -252zM223 620.5q0 26.5 19.5 46t46 19.5t46 -19.5t19.5 -46t-19.5 -46t-46 -19.5t-46 19.5t-19.5 46z" />
<glyph unicode="&#x3c;" horiz-adv-x="745" d="M82 514l536 537l46 -45l-494 -492l494 -491l-46 -46z" />
<glyph unicode="=" horiz-adv-x="985" d="M82 246v63h821v-63h-821zM82 647v64h821v-64h-821z" />
<glyph unicode="&#x3e;" horiz-adv-x="745" d="M82 23l491 491l-491 492l45 45l537 -537l-537 -537z" />
<glyph unicode="?" horiz-adv-x="839" d="M82 1169q0 141 108 228q100 80 244 80q135 0 228 -76q96 -82 96 -213q0 -121 -94 -223l-179 -160q-94 -96 -94 -197q0 -53 30 -99t77 -63l-21 -59q-68 25 -108.5 86.5t-40.5 134.5q0 119 96 221l176 162q96 94 96 197q0 104 -76.5 165.5t-185.5 61.5q-119 0 -201 -61 q-88 -68 -88 -185q0 -102 56 -149l-39 -49q-80 67 -80 198zM387 47q0 27 19.5 46.5t46 19.5t46 -19.5t19.5 -46.5t-19.5 -46t-46 -19t-46 19t-19.5 46z" />
<glyph unicode="@" horiz-adv-x="1351" d="M143 516q0 219 157 376t376 157q221 0 376.5 -157t155.5 -376q0 -283 -145 -283q-45 0 -78 34t-39 81q-88 -160 -270 -160q-135 0 -231.5 96.5t-96.5 231.5t96.5 231.5t231.5 96.5q180 0 268 -158v109h60v-424q0 -78 59 -78q92 0 92 223q0 199 -140.5 339t-339 140 t-338.5 -140t-140 -339t140 -339t339 -140q193 0 332 133l36 -39q-154 -147 -368 -147q-219 0 -376 155.5t-157 376.5zM408 516.5q0 -110.5 78.5 -189.5t189.5 -79q78 0 145.5 42t100.5 111q23 49 22 74v82q0 25 -22 74q-33 70 -100.5 111.5t-145.5 41.5 q-111 0 -189.5 -78.5t-78.5 -189z" />
<glyph unicode="A" horiz-adv-x="1509" d="M82 969q0 100 51 202q76 152 225 232q139 74 316 74q250 0 426 -158t176 -406v-727q0 -59 29 -98q33 -45 90 -45q74 0 114 41v-76q-51 -27 -114 -26q-84 0 -132.5 59t-48.5 145v133h-589v-319h-62v319h-188v64h188v387q0 250 150 373l41 -49q-129 -104 -129 -324v-387 h589v530q0 219 -158.5 360.5t-381.5 141.5q-158 0 -283 -65q-135 -72 -203 -205q-43 -88 -43 -176q0 -137 66 -230l-49 -37q-80 109 -80 267z" />
<glyph unicode="B" horiz-adv-x="1470" d="M82 860q0 297 194 461q182 156 484 156q197 0 352 -70q178 -82 262 -238q55 -104 56 -221q0 -78 -33 -153q-102 -233 -420 -258q137 -12 227 -84q100 -82 101 -213q0 -121 -95 -193q-86 -66 -209 -65q-236 0 -309 174q-10 -72 -57 -123t-119 -51q-66 0 -117 32v80 q39 -51 117 -51q57 0 88 51q29 45 29 103v991h61v-617h84q238 0 387 70q201 96 201 307q0 100 -47 191q-76 141 -240 213q-141 63 -319 63q-276 0 -441 -137q-174 -147 -174 -418q0 -154 95 -256l-47 -43q-111 121 -111 299zM694 332q0 -141 82 -215t225 -74q94 0 167 52 t73 145q0 268 -463 268h-84v-176z" />
<glyph unicode="C" horiz-adv-x="1392" d="M143 696q0 317 205 545q211 236 522 236q197 0 330 -97q152 -109 152 -297q0 -172 -114 -282.5t-286 -110.5q-127 0 -247 74l32 53q106 -66 215 -65q145 0 241.5 93t96.5 238q0 162 -133 252q-117 80 -287 80q-291 0 -481 -217q-182 -207 -182 -502q0 -291 190.5 -472 t485.5 -181q260 0 395 102v-75q-147 -88 -395 -88q-322 0 -531 197.5t-209 516.5z" />
<glyph unicode="D" horiz-adv-x="1783" d="M41 815q0 317 233 498q213 164 539 164q340 0 583.5 -234.5t243.5 -572.5q0 -285 -149 -477q-164 -211 -438 -211q-315 0 -400 225q0 -90 -41 -154q-49 -72 -135 -71q-68 0 -119 32v80q37 -51 119 -51q55 0 86 51q29 45 29 103v991h61v-774q0 -182 109 -279 q102 -92 291 -92q248 0 393 195q131 176 131 432q0 311 -225.5 528t-538.5 217q-299 0 -494 -147q-215 -164 -215 -453q0 -129 84 -258l-51 -35q-96 143 -96 293z" />
<glyph unicode="E" horiz-adv-x="1196" d="M82 995q0 221 188 359q168 123 398 123q319 0 440 -193q47 -74 47 -160q0 -131 -93 -225t-226 -111l-9 62q111 14 188 90t77 184q0 59 -31 115q-96 176 -393 176q-201 0 -353 -106q-170 -119 -170 -314q0 -225 177 -348q156 -106 391 -106v-64q-393 0 -394 -219 q0 -109 113 -166q92 -49 211 -49q195 0 305 78v-72q-129 -68 -305 -67q-147 0 -256 63q-131 76 -131 213q0 201 283 252q-205 31 -328 154q-129 130 -129 331z" />
<glyph unicode="F" horiz-adv-x="1538" d="M82 1104q0 168 121 264q109 86 282 86h1053v-61q-225 0 -356 -158q-125 -150 -125 -379v-299h356v-61h-356v-201q0 -119 -72 -211q-78 -102 -192 -102q-137 0 -220 55v78q74 -72 220 -72q90 0 149 84q53 76 53 168v201h-362v61h362v299q0 186 78 324q86 152 250 213h-838 q-147 0 -237 -70q-102 -78 -103 -219q0 -117 83 -192.5t200 -84.5l-4 -61q-141 8 -241.5 103.5t-100.5 234.5z" />
<glyph unicode="G" horiz-adv-x="1454" d="M143 692q0 244 120 434.5t337 286.5q145 63 289 64q330 0 448 -234q35 -72 35 -141q0 -141 -98 -234.5t-240 -93.5q-102 0 -180 37l29 57q63 -33 151 -32q115 0 196 75.5t81 190.5q0 68 -41 135q-111 178 -381 178q-129 0 -260 -57q-201 -88 -311.5 -264t-110.5 -402 q0 -436 321 -590q121 -59 260 -59q236 0 398 156v282h61v-606q0 -242 -190 -350l-31 53q160 92 160 297v242q-176 -135 -398 -135q-299 0 -477 208q-168 197 -168 502z" />
<glyph unicode="H" horiz-adv-x="1955" d="M82 1055q0 176 149 303q141 119 322 119q125 0 235 -50q332 -154 332 -632q0 -98 -16 -195h485v854h62v-1233q0 -178 137 -178q106 0 168 82v-86q-76 -57 -168 -57q-199 0 -199 239v316h-497q-59 -250 -228 -400q-176 -156 -428 -155v61q227 0 385 137q150 131 205 357 h-287v63h301q16 96 17 195q0 264 -117 430q-133 190 -387 190q-156 0 -279 -102q-129 -106 -129 -258q0 -172 125 -267l-37 -51q-70 53 -110.5 140.5t-40.5 177.5z" />
<glyph unicode="I" horiz-adv-x="1128" d="M82 1083q0 68 31 144q102 250 376 250q170 0 292 -119t122 -289v-774q0 -127 -74 -217q-80 -96 -204 -96q-119 0 -211 63v78q88 -80 211 -80q98 0 159 80q57 72 58 172v774q0 143 -104.5 244.5t-248.5 101.5q-240 0 -321 -215q-23 -63 -23 -117q0 -182 144 -262l-31 -53 q-176 96 -176 315z" />
<glyph unicode="J" horiz-adv-x="1128" d="M82 1083q0 68 31 144q102 250 376 250q170 0 292 -119t122 -289v-1231q0 -129 -74 -219q-80 -94 -204 -94q-119 0 -211 61v80q88 -80 211 -80q98 0 157.5 76t59.5 176v1231q0 143 -104.5 244.5t-248.5 101.5q-240 0 -321 -215q-23 -63 -23 -117q0 -182 144 -262l-31 -53 q-176 96 -176 315z" />
<glyph unicode="K" horiz-adv-x="2025" d="M82 1055q0 176 149 303q141 119 322 119q135 0 250 -58q317 -158 317 -624q0 -90 -12 -174h156q176 0 288.5 112.5t112.5 290.5v430h64v-430q0 -174 -97.5 -295t-267.5 -145q133 -31 211 -172l119 -244q78 -125 213 -125q72 0 118 47v-78q-61 -31 -118 -30 q-168 0 -262 149l-140 277q-88 150 -241 149h-168q-55 -258 -224 -412q-178 -164 -436 -163v61q303 0 471 231q150 205 150 521q0 264 -117 430q-133 190 -387 190q-156 0 -279 -102q-129 -106 -129 -258q0 -172 125 -267l-37 -51q-70 53 -110.5 140.5t-40.5 177.5z" />
<glyph unicode="L" horiz-adv-x="1349" d="M41 0v63q227 0 311 187q31 68 31 129v694q0 182 122 293t306 111q174 0 291 -110t117 -284q0 -94 -47.5 -188t-124.5 -143l-33 51q63 43 102 122t39 158q0 145 -98.5 238.5t-245.5 93.5q-160 0 -260 -90q-106 -94 -107 -252v-694q0 -106 -56 -194.5t-155 -121.5h721 q246 0 340 179l56 -29q-113 -213 -396 -213h-913z" />
<glyph unicode="M" horiz-adv-x="2426" d="M82 1114q0 154 101.5 258.5t252.5 104.5q137 0 238.5 -80t128.5 -213q41 137 137 215t234 78q121 0 207.5 -78t97.5 -197q90 274 362 275q127 0 216 -87t89 -216v-988q0 -53 37 -98t90 -45q96 0 154 70v-86q-59 -45 -154 -45q-78 0 -134 63.5t-56 140.5v988 q0 102 -70.5 171.5t-171.5 69.5q-170 0 -270 -131q-90 -119 -90 -295v-989h-64v1174q0 102 -70.5 171.5t-172.5 69.5q-168 0 -269 -131q-92 -119 -92 -293v-991h-61v1094q0 141 -87 231t-229 90q-125 0 -208 -87t-83 -214q0 -66 38 -131t98 -102l-35 -54q-72 45 -118 125 t-46 162z" />
<glyph unicode="N" horiz-adv-x="1906" d="M82 1114q0 154 101.5 258.5t252.5 104.5q143 0 245.5 -86t125.5 -228q49 141 171 227.5t271 86.5q158 0 268.5 -105.5t110.5 -263.5v-922q0 -53 36 -98t89 -45q98 0 154 70v-86q-57 -45 -154 -45q-78 0 -133 63.5t-55 140.5v922q0 131 -92.5 219t-223.5 88 q-178 0 -307 -124t-129 -300v-991h-61v1094q0 141 -87 231t-229 90q-125 0 -208 -87t-83 -214q0 -66 38 -131t98 -102l-35 -54q-72 45 -118 125t-46 162z" />
<glyph unicode="O" horiz-adv-x="1853" d="M143 782q0 365 269 604q78 72 155 103v-68q-162 -82 -264 -270q-96 -180 -96 -369q0 -299 217 -519t516 -220q283 0 496 225.5t213 509.5q0 178 -68 326q-74 162 -215 250q-111 70 -233 69q-125 0 -220 -71q-102 -78 -102 -201q0 -119 66.5 -194.5t185.5 -75.5 q127 0 197 49l36 -51q-84 -61 -233 -62q-145 0 -229 94.5t-84 239.5q0 150 118 246q113 88 265 88q123 0 237 -62q168 -92 258 -274q82 -166 82 -371q0 -313 -228.5 -554.5t-541.5 -241.5q-324 0 -560.5 237t-236.5 563z" />
<glyph unicode="P" horiz-adv-x="1593" d="M82 864q0 281 213 453q199 160 487.5 160t474.5 -136q213 -152 213 -428q0 -199 -136 -343t-333 -144q-164 0 -307 53v-282q0 -84 -45 -146q-49 -70 -131 -69q-68 0 -119 32v80q39 -51 119 -51q55 0 86 51q29 45 29 103v991h61v-641q141 -59 307 -60q172 0 289 127 t117 299q0 252 -193 385q-168 117 -432 117q-260 0 -442 -143q-195 -154 -195 -408q0 -156 95 -246l-43 -45q-51 49 -84 136q-31 79 -31 155z" />
<glyph unicode="Q" horiz-adv-x="1468" d="M123 930q0 244 194 401q182 145 433 146q246 0 410.5 -172t164.5 -420q0 -338 -281 -576q-244 -209 -600 -270q90 -10 271 -70q162 -53 276 -53q168 0 283 43v-65q-131 -39 -283 -39q-145 0 -332 67q-207 78 -393 78l-2 63q158 8 340 72q285 98 457 273q201 205 201 477 q0 223 -144.5 376.5t-367.5 153.5q-225 0 -390 -127q-174 -137 -174 -358q0 -172 103.5 -288t273.5 -140l-10 -62q-195 27 -312.5 160t-117.5 330z" />
<glyph unicode="R" horiz-adv-x="1611" d="M82 854q0 281 213 457q201 166 487 166q276 0 455 -125q203 -143 203 -408q0 -193 -146 -311q-129 -104 -331 -121q176 -33 272 -238q109 -231 240 -231q98 0 137 35v-74q-53 -23 -137 -22q-170 0 -297 266q-55 121 -125 176q-80 59 -205 59h-146v-286q0 -84 -45 -146 q-51 -70 -133 -69q-66 0 -118 32v80q39 -51 118 -51q55 0 88 51q27 45 27 103v991h63v-641h146q207 0 356 92q174 111 174 305q0 238 -186 363q-160 109 -410 108q-260 0 -442 -149q-195 -158 -195 -412q0 -63 25 -131q27 -74 70 -115l-43 -45q-51 47 -83 131t-32 160z" />
<glyph unicode="S" horiz-adv-x="1003" d="M102 1104q0 176 129 278q119 94 299 95q158 0 271 -93q121 -98 121 -251q0 -164 -162 -261l-33 54q131 78 131 207t-100 208q-94 74 -228 74q-156 0 -254 -76q-111 -84 -110 -235q0 -156 153 -287l289 -219q156 -141 156 -324q0 -129 -89 -210.5t-218 -81.5 q-90 0 -162 38v74q72 -51 162 -51q102 0 173.5 65.5t71.5 165.5q0 162 -155 295l-289 219q-156 140 -156 316z" />
<glyph unicode="T" horiz-adv-x="1538" d="M82 1104q0 168 121 264q109 86 282 86h1053v-61q-225 0 -356 -158q-125 -150 -125 -379v-561q0 -129 -83 -221t-210 -92q-129 0 -219 57v78q84 -74 219 -74q100 0 168 78q63 72 63 174v561q0 190 76 328q86 154 256 209h-842q-147 0 -237 -70q-102 -78 -103 -219 q0 -117 83 -192.5t200 -84.5l-4 -61q-141 8 -241.5 103.5t-100.5 234.5z" />
<glyph unicode="U" horiz-adv-x="1918" d="M82 1149q0 147 100.5 237.5t247.5 90.5q166 0 271.5 -110t105.5 -277v-701q0 -147 92 -246.5t238 -99.5q199 0 313 147q104 133 104 338v926h62v-1229q0 -70 41 -123q45 -59 110 -59q104 0 152 68v-86q-59 -43 -151.5 -43t-153 73.5t-60.5 169.5v58q-104 -301 -417 -301 q-172 0 -283 116.5t-111 290.5v701q0 139 -88 232t-225 93q-121 0 -203 -73.5t-82 -192.5q0 -139 119 -252l-43 -45q-139 131 -139 297z" />
<glyph unicode="V" horiz-adv-x="1914" d="M82 1124q0 154 98.5 253.5t249.5 99.5q172 0 279 -125q100 -119 100 -293v-608q0 -174 96 -287q102 -121 275 -121q176 0 281.5 112.5t105.5 288.5v824q0 94 55 151.5t147 57.5q90 0 146 -41v-84q-55 63 -146 63q-141 0 -141 -147v-824q0 -203 -124 -332.5t-324.5 -129.5 t-319.5 137q-113 129 -112 332v608q0 147 -84 248q-90 109 -234 108q-125 0 -205 -83t-80 -208q0 -139 125 -231l-37 -51q-151 110 -151 282z" />
<glyph unicode="W" horiz-adv-x="2437" d="M82 1143q0 145 102.5 239.5t249.5 94.5q180 0 285 -119q98 -115 98 -299v-709q0 -129 76 -215q80 -92 207 -92q145 0 232 86t87 231v1094h64v-1089q0 -152 79.5 -237t229.5 -85q135 0 214 84t79 219v916q0 94 55 154.5t150 60.5q90 0 147 -43v-86q-57 68 -147 67 q-141 0 -142 -153v-916q0 -162 -97 -263t-259 -101q-281 0 -342 249q-35 -121 -128 -185t-222 -64q-152 0 -250 110q-96 104 -96 258v709q0 160 -78 254q-86 102 -242 102q-121 0 -205 -76.5t-84 -195.5q0 -170 134 -244l-31 -55q-78 43 -122 125t-44 174z" />
<glyph unicode="X" horiz-adv-x="1910" d="M82 1069q0 188 137 301q127 106 320 107q250 0 413 -220q96 -127 217 -444q125 322 246 461q178 203 461 203v-62q-276 0 -444 -221q-98 -125 -228 -467q127 -330 244 -469q180 -215 463 -215v-61q-289 0 -477 198q-137 145 -265 461q-125 -319 -247 -459 q-180 -201 -467 -200v61q281 0 450 217q100 129 232 467q-133 344 -203 449q-158 240 -395 239q-164 0 -275 -90q-119 -94 -119 -256q0 -166 125 -285l-43 -45q-145 135 -145 330z" />
<glyph unicode="Y" horiz-adv-x="1835" d="M82 1139q0 154 106 247q100 90 256 90.5t261 -118.5q98 -115 98 -275v-663q0 -174 82 -273q88 -104 260 -104q160 0 285 143q117 135 116 299v969h64v-1640q0 -188 -189 -289l-30 55q156 82 155 234v489q-49 -137 -151 -225q-113 -96 -250 -96q-197 0 -303 122 q-102 117 -103 316v663q0 135 -77 230q-86 102 -218 102q-129 0 -214 -73.5t-85 -202.5q0 -70 38 -144.5t93 -120.5l-40 -49q-66 53 -110 141.5t-44 172.5z" />
<glyph unicode="Z" horiz-adv-x="1630" d="M82 1100q0 164 131 264q121 90 291 90h1034v-51l-1096 -1301q88 41 193 41q94 0 275.5 -50t275.5 -50q227 0 362 123l41 -47q-152 -137 -403 -137q-98 0 -289.5 52t-290.5 52q-158 0 -264 -111l-47 43l1151 1375h-942q-143 0 -246 -74q-113 -82 -113 -219 q0 -274 315 -275h5v-63q-170 0 -272 82q-111 90 -111 256z" />
<glyph unicode="[" horiz-adv-x="626" d="M225 -438v1892h361v-57h-303v-1778h303v-57h-361z" />
<glyph unicode="\" horiz-adv-x="882" d="M0 1395l59 26l824 -1833l-60 -26z" />
<glyph unicode="]" horiz-adv-x="626" d="M41 -381h301v1778h-301v57h360v-1892h-360v57z" />
<glyph unicode="^" horiz-adv-x="1236" d="M82 524l536 537l537 -537l-45 -45l-492 492l-491 -492z" />
<glyph unicode="_" horiz-adv-x="819" d="M0 -178h819v-62h-819v62z" />
<glyph unicode="`" horiz-adv-x="544" d="M82 1243l45 45l336 -336l-45 -43z" />
<glyph unicode="a" d="M141 333.5q0 143.5 102.5 248t245.5 104.5q193 0 287 -170v152h64v-494q0 -131 112 -131q80 0 127 49v-80q-53 -33 -127 -32q-76 0 -122 49t-52 127q-94 -174 -289 -174q-143 0 -245.5 104t-102.5 247.5zM205 334q0 -119 84 -205t200 -86q86 0 158 48t107 128 q23 49 22 80v70q0 31 -22 82q-35 78 -107 126t-158 48q-117 0 -200.5 -86t-83.5 -205z" />
<glyph unicode="b" horiz-adv-x="1062" d="M223 330v1124h64v-1124q0 -119 84 -203t200 -84q119 0 203 84t84 203q0 94 -37 168q-41 88 -123 114q0 -88 -77 -88q-33 0 -56.5 23.5t-23.5 54.5q0 37 26.5 60.5t63.5 23.5q137 0 217 -113q74 -100 74 -243.5t-102.5 -245.5t-248.5 -102q-143 0 -245.5 102.5 t-102.5 245.5z" />
<glyph unicode="c" horiz-adv-x="882" d="M141 334q0 143 102.5 247.5t245.5 104.5q86 0 160 -31q92 -43 92 -116q0 -33 -22.5 -56.5t-55 -23.5t-56 23.5t-23.5 56.5q0 39 30 61q-57 25 -125 25q-117 0 -200.5 -86t-83.5 -205q0 -117 93 -204t212 -87q143 0 225 57v-71q-90 -47 -225 -47q-145 0 -257 103.5 t-112 248.5z" />
<glyph unicode="d" d="M141 333.5q0 143.5 102.5 248t245.5 104.5q190 0 287 -170v938h64v-1278q0 -131 112 -131q80 0 127 49v-80q-53 -33 -126.5 -32.5t-121 49.5t-53.5 123q-96 -172 -289 -172q-143 0 -245.5 104t-102.5 247.5zM205 334q0 -119 84 -205t200 -86q86 0 158 48t107 128 q23 49 22 80v70q0 31 -22 82q-35 78 -107 126t-158 48q-117 0 -200.5 -86t-83.5 -205z" />
<glyph unicode="e" horiz-adv-x="839" d="M141 333.5q0 143.5 102.5 248t245.5 104.5q139 0 271 -131l-451 -444q80 -68 180 -68q143 0 228 57v-71q-92 -47 -228 -47q-143 0 -245.5 104t-102.5 247.5zM205 334q0 -100 59 -178l404 397q-88 72 -179 72q-117 0 -200.5 -86t-83.5 -205z" />
<glyph unicode="f" horiz-adv-x="724" d="M41 606v62h315v510q0 131 75 215t204 84q104 0 180 -45v-76q-76 59 -180 59q-102 0 -159.5 -66.5t-57.5 -170.5v-510h305v-62h-305v-751q0 -113 -68 -207q-70 -100 -176 -123l-14 59q86 20 141 100t55 171v751h-315z" />
<glyph unicode="g" horiz-adv-x="1062" d="M141 333.5q0 143.5 102.5 248t245.5 104.5q190 0 287 -170v152h64v-813q0 -113 -70 -209.5t-174 -120.5l-14 59q84 20 139 100t55 171v297q-96 -170 -287 -170q-143 0 -245.5 104t-102.5 247.5zM205 334q0 -119 84 -205t200 -86q86 0 158 48t107 128q23 49 22 80v70 q0 31 -22 82q-35 78 -107 126t-158 48q-117 0 -200.5 -86t-83.5 -205z" />
<glyph unicode="h" horiz-adv-x="1021" d="M223 0v1454h64v-919q72 152 219 151q129 0 202.5 -79t73.5 -210v-221q0 -131 113 -131q80 0 127 49v-80q-51 -33 -127 -32q-80 0 -128 56t-48 138v221q0 227 -213 228q-90 0 -154.5 -78t-64.5 -170v-377h-64z" />
<glyph unicode="i" horiz-adv-x="526" d="M188 1145q0 27 19.5 46t46.5 19t46 -19.5t19 -45.5q0 -29 -19 -47.5t-46 -18.5t-46.5 18.5t-19.5 47.5zM223 176v492h62v-492q0 -131 114 -131q78 0 127 49v-80q-53 -33 -127 -32q-82 0 -129 56t-47 138z" />
<glyph unicode="j" horiz-adv-x="509" d="M29 -416q84 20 139 100t55 171v813h64v-813q0 -113 -68.5 -209.5t-175.5 -120.5zM188 1145q0 27 19.5 46t48.5 19q27 0 46.5 -19.5t19.5 -45.5q0 -29 -19.5 -47.5t-46.5 -18.5q-29 0 -48.5 18.5t-19.5 47.5z" />
<glyph unicode="k" horiz-adv-x="966" d="M223 0v1454h64v-1077h65q145 0 229.5 74.5t84.5 216.5h63q0 -119 -70.5 -208t-185.5 -116q88 -27 152 -104q45 -66 95 -131.5t130 -65.5q59 0 117 35v-70q-63 -27 -117 -26q-143 0 -246 176q-51 90 -102 122.5t-150 32.5h-65v-313h-64z" />
<glyph unicode="l" horiz-adv-x="526" d="M223 176v1278h64v-1278q0 -131 112 -131q78 0 127 49v-80q-53 -33 -127 -32q-82 0 -129 56t-47 138z" />
<glyph unicode="m" horiz-adv-x="1519" d="M223 0v668h64v-138q70 156 219 156q211 0 264 -188q27 82 88.5 135t142.5 53q131 0 204 -79t73 -210v-221q0 -131 115 -131q78 0 127 49v-80q-53 -33 -127 -32q-82 0 -129 56t-47 138v221q0 227 -216 228q-90 0 -154.5 -78t-64.5 -170v-377h-63v397q0 227 -213 228 q-90 0 -154.5 -78t-64.5 -170v-377h-64z" />
<glyph unicode="n" horiz-adv-x="1021" d="M223 0v668h64v-138q68 158 219 158q129 0 202.5 -79t73.5 -210v-223q0 -131 113 -131q80 0 127 49v-80q-51 -33 -127 -32q-80 0 -128 56t-48 138v223q0 227 -213 228q-90 0 -154.5 -78t-64.5 -168v-381h-64z" />
<glyph unicode="o" horiz-adv-x="980" d="M141 333.5q0 143.5 102.5 248t245.5 104.5q145 0 248 -104.5t103 -248t-102.5 -247.5t-248.5 -104q-143 0 -245.5 104t-102.5 247.5zM205 334q0 -119 84 -205t200 -86q119 0 203 86t84 205q0 70 -33 133q-23 -35 -63 -35q-33 0 -56.5 23.5t-23.5 56.5q0 45 41 68 q-70 43 -152 43q-117 0 -200.5 -85t-83.5 -204z" />
<glyph unicode="p" horiz-adv-x="1062" d="M223 -457v1125h64v-154q92 172 284 172q145 0 248 -104.5t103 -248t-102.5 -247.5t-248.5 -104q-193 0 -284 172v-611h-64zM287 291q0 -27 22 -78q37 -76 108.5 -123t153.5 -47q119 0 203 86t84 205t-84 205t-203 86q-82 0 -153.5 -47.5t-108.5 -122.5q-23 -51 -22 -78 v-86z" />
<glyph unicode="q" horiz-adv-x="1038" d="M141 333.5q0 143.5 102.5 248t245.5 104.5q190 0 287 -170v152h64v-949q0 -133 112 -133q80 0 127 52v-82q-51 -31 -127 -31q-82 0 -129 56.5t-47 137.5v433q-96 -170 -287 -170q-143 0 -245.5 104t-102.5 247.5zM205 334q0 -119 84 -205t200 -86q86 0 158 48t107 128 q23 49 22 80v70q0 31 -22 82q-35 78 -107 126t-158 48q-117 0 -200.5 -86t-83.5 -205z" />
<glyph unicode="r" horiz-adv-x="641" d="M223 0v668h64v-136q70 154 219 154q37 0 63.5 -23.5t26.5 -58.5q0 -33 -23.5 -56.5t-54.5 -23.5q-82 0 -80 86q-68 -29 -109.5 -93t-41.5 -140v-377h-64z" />
<glyph unicode="s" horiz-adv-x="552" d="M82 18v78q57 -51 141 -51q51 0 88 38t37 89q0 72 -94 175.5t-94 191.5q0 111 100 161l29 -55q-66 -35 -66 -106q0 -63 94.5 -168t94.5 -199q0 -78 -55.5 -134t-133.5 -56q-82 -1 -141 36z" />
<glyph unicode="t" horiz-adv-x="649" d="M41 606v62h254v446h61v-446h252v-62h-252v-430q0 -133 115 -133q78 0 125 51v-80q-51 -33 -125 -32q-82 0 -129 56t-47 138v430h-254z" />
<glyph unicode="u" horiz-adv-x="1021" d="M223 270v398h64v-398q0 -227 213 -227q90 0 157 80q61 76 62 168v377h63v-492q0 -133 113 -133q80 0 127 51v-80q-51 -33 -127 -32q-70 0 -117 45t-55 116q-70 -162 -223 -161q-129 0 -203 78.5t-74 209.5z" />
<glyph unicode="v" horiz-adv-x="980" d="M223 270v398h64v-398q0 -227 213 -227q215 0 215 227v260q-100 0 -101 78q0 33 24 55.5t54 22.5q37 0 60.5 -25.5t23.5 -62.5v-328q0 -131 -72.5 -209.5t-203.5 -78.5q-129 0 -203 78.5t-74 209.5z" />
<glyph unicode="w" horiz-adv-x="1472" d="M223 270v398h64v-398q0 -227 213 -227q215 0 215 227v398h61v-398q0 -227 215 -227t215 227v260q-100 0 -100 78q0 33 22.5 55.5t55.5 22.5q37 0 60.5 -25.5t23.5 -62.5v-328q0 -131 -73 -209.5t-204 -78.5q-199 0 -246 182q-47 -182 -245 -182q-129 0 -203 78.5 t-74 209.5z" />
<glyph unicode="x" horiz-adv-x="970" d="M72 625v61q133 0 245 -96q74 -61 175 -207l303 303l45 -45l-312 -309q96 -139 154 -193q102 -96 217 -96v-61q-131 0 -244 98q-70 59 -172 207l-305 -307l-45 45l313 313q-94 137 -155 192q-102 95 -219 95z" />
<glyph unicode="y" horiz-adv-x="1005" d="M223 270v398h64v-398q0 -227 213 -227q90 0 157 80q61 76 62 168v377h63v-813q0 -113 -67 -207q-70 -100 -176 -123l-15 59q84 20 139.5 100t55.5 171v278q-72 -152 -219 -151q-129 0 -203 78.5t-74 209.5z" />
<glyph unicode="z" horiz-adv-x="831" d="M100 119l490 487h-488v62h584v-54l-407 -407q55 25 112 24q147 0 243.5 -97t96.5 -245q0 -139 -90 -240.5t-229 -125.5l-11 61q117 20 192 104.5t75 200.5q0 123 -77 202t-200 79q-152 0 -246 -96z" />
<glyph unicode="{" horiz-adv-x="532" d="M20 473v57q117 0 197 48q96 55 96 163v389q0 227 164 353l35 -45q-141 -109 -141 -308v-389q0 -29 -13 -69q-47 -137 -194 -170q147 -29 194 -170q12 -39 13 -70v-387q0 -201 141 -309l-35 -45q-164 125 -164 354v387q0 109 -96 166q-80 45 -197 45z" />
<glyph unicode="|" horiz-adv-x="516" d="M225 -442v1894h66v-1894h-66z" />
<glyph unicode="}" horiz-adv-x="532" d="M20 -434q141 109 142 309v387q0 31 12 70q47 141 197 170q-150 33 -197 170q-12 41 -12 69v389q0 199 -142 308l35 45q164 -125 164 -353v-389q0 -109 96 -163q80 -47 197 -48v-57q-117 0 -197 -45q-96 -57 -96 -166v-387q0 -229 -164 -354z" />
<glyph unicode="~" horiz-adv-x="940" d="M41 391v78q98 63 211 63q80 0 228.5 -48t226.5 -48q102 0 192 68v-76q-90 -55 -192 -55q-80 0 -228.5 48t-226.5 48q-113 0 -211 -78z" />
<glyph unicode="&#xa1;" horiz-adv-x="561" d="M215 885q0 29 19.5 48t46 19t46 -19.5t19.5 -47.5q0 -27 -19.5 -46.5t-46 -19.5t-46 19.5t-19.5 46.5zM250 -522v1091h61v-1091h-61z" />
<glyph unicode="&#xa2;" horiz-adv-x="888" d="M143 526q0 131 87 229.5t216 114.5v160h64v-156q82 -4 147 -36q88 -41 88 -111q0 -33 -23.5 -55.5t-56 -22.5t-56 22.5t-23.5 55.5q0 37 30 61q-57 23 -124 23q-117 0 -201 -84t-84 -201q0 -119 93 -202.5t212 -83.5q143 0 225 57v-74q-102 -53 -227 -47v-176h-64v182 q-127 23 -215 120t-88 224z" />
<glyph unicode="&#xa3;" horiz-adv-x="1044" d="M41 0v63q184 0 246 201q16 53 16 92v74h-262v64h262v249q0 139 91 222.5t231 83.5q123 0 209 -70q94 -76 94 -195q0 -150 -125 -237l-37 53q98 68 98 184q0 92 -72.5 147.5t-166.5 55.5q-111 0 -185.5 -66.5t-74.5 -177.5v-249h272v-64h-272v-74q0 -209 -164 -293h526 q190 0 262 134l55 -31q-90 -166 -317 -166h-686z" />
<glyph unicode="&#xa4;" horiz-adv-x="1300" d="M82 371v61h248q-8 43 -8 80q0 31 4 63h-244v64h256q43 180 189.5 295t332.5 115q207 0 359 -138l-41 -47q-135 123 -318 123q-160 0 -288 -97t-169 -251h367v-64h-381q-4 -33 -4 -63q0 -37 6 -80h379v-61h-362q45 -150 171 -242t281 -92q197 0 336 139v-84 q-147 -117 -336 -117q-180 0 -325.5 110t-192.5 286h-260z" />
<glyph unicode="&#xa5;" horiz-adv-x="1142" d="M123 989l18 60q166 -51 277.5 -176t152.5 -298q41 172 153 297t277 177l19 -60q-164 -51 -271.5 -177t-136.5 -296h379v-63h-387q-2 -29 -2 -134h389v-63h-389v-256h-61v256h-389v63h389v78q0 27 -2 56h-387v63h378q-29 170 -136 296t-271 177z" />
<glyph unicode="&#xa6;" horiz-adv-x="516" d="M225 -442v884h66v-884h-66zM225 596v856h66v-856h-66z" />
<glyph unicode="&#xa7;" horiz-adv-x="659" d="M143 514q0 88 60.5 145.5t148.5 47.5q-92 106 -92 178q0 98 82 162l37 -52q-55 -43 -55 -110q0 -47 96 -160t96 -205q0 -88 -60.5 -145.5t-148.5 -48.5q92 -104 92 -176q0 -98 -82 -162l-38 49q57 45 57 113q0 45 -96.5 158.5t-96.5 205.5zM207 514q0 -53 33.5 -90 t85.5 -37q57 0 92 38t35 95q0 51 -34 88t-85 37q-57 0 -92 -37t-35 -94z" />
<glyph unicode="&#xa8;" horiz-adv-x="679" d="M96 1051q0 66 66 65q27 0 46 -19.5t19 -46t-19.5 -46t-46 -19.5t-46 19.5t-19.5 46.5zM453 1050.5q0 26.5 19.5 46t45.5 19.5q66 0 66 -65q0 -27 -19.5 -46.5t-46 -19.5t-46 19.5t-19.5 46z" />
<glyph unicode="&#xa9;" horiz-adv-x="1351" d="M143 516q0 219 157 376t376 157q221 0 376.5 -157t155.5 -376q0 -221 -155.5 -376.5t-376.5 -155.5q-219 0 -376 155.5t-157 376.5zM197 516q0 -199 140 -339t338.5 -140t339 140t140.5 339t-140.5 339t-339 140t-338.5 -140t-140 -339zM340 516q0 139 98.5 237.5 t237.5 98.5t237 -98l-43 -43q-80 80 -194.5 80t-194.5 -80t-80 -195t80 -194.5t195 -79.5t194 80l43 -43q-98 -98 -237 -98.5t-237.5 98t-98.5 237.5z" />
<glyph unicode="&#xaa;" horiz-adv-x="905" d="M143 756q0 121 85 204.5t204 83.5q145 0 225 -122v108h64v-399q0 -102 86 -103q61 0 98 39v-78q-41 -23 -98 -22q-125 0 -148 129q-78 -127 -227 -127q-119 0 -204 84t-85 203zM184 248v61h711v-61h-711zM207 756q0 -92 65.5 -159t159.5 -67q68 0 127 39t86 103 q12 29 12 39v92q0 10 -12 39q-27 63 -86 102t-127 39q-94 0 -159.5 -66.5t-65.5 -160.5z" />
<glyph unicode="&#xab;" horiz-adv-x="659" d="M82 334l203 289l51 -35l-178 -254l178 -254l-51 -37zM322 334l204 289l52 -35l-179 -254l179 -254l-52 -37z" />
<glyph unicode="&#xad;" horiz-adv-x="985" d="M82 379v61h821v-61h-821z" />
<glyph unicode="&#xae;" horiz-adv-x="1351" d="M143 516q0 219 157 376t376 157q221 0 376.5 -157t155.5 -376q0 -221 -155.5 -376.5t-376.5 -155.5q-219 0 -376 155.5t-157 376.5zM197 516q0 -199 140 -339t338.5 -140t339 140t140.5 339t-140.5 339t-339 140t-338.5 -140t-140 -339zM453 236v573h260q86 0 141 -41 q61 -47 61 -131q0 -147 -161 -168l118 -233h-69l-117 231h-172v-231h-61zM514 528h199q141 0 141 109q0 111 -141 111h-199v-220z" />
<glyph unicode="&#xaf;" horiz-adv-x="692" d="M41 1110v64h610v-64h-610z" />
<glyph unicode="&#xb0;" horiz-adv-x="548" d="M82 860q0 80 56.5 136.5t136 56.5t136 -56.5t56.5 -136.5t-56.5 -136t-136 -56t-136 56t-56.5 136zM137 860.5q0 -57.5 40 -98.5t97.5 -41t98.5 41t41 98.5t-41 98t-98.5 40.5t-97.5 -40.5t-40 -98z" />
<glyph unicode="&#xb2;" horiz-adv-x="991" d="M143 725q0 139 97.5 231.5t236.5 92.5q160 0 256 -94.5t96 -254.5q0 -309 -428 -608q31 6 60 6q47 0 124 -27.5t117 -27.5q66 0 146 37v-70q-78 -31 -148 -30q-51 0 -139 35.5t-137 35.5q-84 0 -201 -69l-30 55q573 317 573 663q0 133 -78 210t-211 77 q-115 0 -192.5 -73.5t-77.5 -188.5q0 -129 98 -190l-35 -54q-127 80 -127 244z" />
<glyph unicode="&#xb3;" horiz-adv-x="991" d="M143 154l50 39q119 -147 323 -148q106 0 188 79t82 185q0 117 -74.5 193t-191.5 76q-121 0 -198 -78l-46 45l422 422h-516v63h609l2 -57l-357 -359q49 27 84 27q145 0 236.5 -93t91.5 -239q0 -131 -99.5 -229t-232.5 -98q-234 0 -373 172z" />
<glyph unicode="&#xb4;" horiz-adv-x="544" d="M82 952l336 336l45 -45l-336 -334z" />
<glyph unicode="&#xb6;" horiz-adv-x="927" d="M82 1139q0 96 55.5 177t145.5 118q51 20 84 20h335v-1761h-63v1700h-209v-1700h-63v1130q-121 12 -203 102.5t-82 213.5z" />
<glyph unicode="&#xb7;" horiz-adv-x="567" d="M217 403q0 66 66 66q27 0 46 -19.5t19 -46.5q0 -29 -19.5 -47t-46 -18t-46 18t-19.5 47z" />
<glyph unicode="&#x2219;" horiz-adv-x="567" d="M217 403q0 66 66 66q27 0 46 -19.5t19 -46.5q0 -29 -19.5 -47t-46 -18t-46 18t-19.5 47z" />
<glyph unicode="&#xb8;" horiz-adv-x="399" d="M41 -199l100 199h70l-82 -160q35 29 82 29q63 0 105 -50t42 -116q0 -78 -55 -132t-135 -54v63q53 0 91 35t38 88q0 106 -109 107q-57 0 -96 -43z" />
<glyph unicode="&#xb9;" horiz-adv-x="751" d="M41 618v64q160 0 285 92q139 100 139 256h61v-1030h-61v862q-55 -115 -173 -179.5t-251 -64.5z" />
<glyph unicode="&#xba;" horiz-adv-x="864" d="M143 764q0 121 85 205t204 84t204 -84t85 -205q0 -119 -85 -203t-204 -84t-204 84t-85 203zM170 248v61h541v-61h-541zM207 764q0 -92 65.5 -158.5t159.5 -66.5q92 0 158.5 66.5t66.5 158.5q0 51 -22 98q-20 -20 -49 -20t-49.5 20.5t-20.5 48.5q0 31 25 52 q-51 29 -109 28q-94 0 -159.5 -66.5t-65.5 -160.5z" />
<glyph unicode="&#xbb;" horiz-adv-x="618" d="M61 80l179 254l-179 254l52 35l202 -289l-202 -291zM301 80l178 254l-178 254l51 35l205 -289l-205 -291z" />
<glyph unicode="&#xbf;" horiz-adv-x="839" d="M82 -254q0 121 96 223l176 160q96 94 97 197q0 53 -30 98t-77 63l21 60q66 -25 106.5 -87.5t40.5 -133.5q0 -121 -94 -222l-178 -161q-94 -94 -95 -197q0 -106 80 -168q72 -59 181 -59q119 0 200 61q90 68 90 182q0 102 -57 152l41 47q78 -66 78 -199q0 -139 -107 -227 q-100 -80 -245 -80q-133 0 -226 78q-98 82 -98 213zM322 887q0 27 19 46t48 19q27 0 46.5 -19.5t19.5 -46t-19.5 -46t-46.5 -19.5q-67 0 -67 66z" />
<glyph unicode="&#xc0;" horiz-adv-x="1509" d="M82 969q0 100 51 202q76 152 225 232q139 74 316 74q250 0 426 -158t176 -406v-727q0 -59 29 -98q33 -45 90 -45q74 0 114 41v-76q-51 -27 -114 -26q-84 0 -132.5 59t-48.5 145v133h-589v-319h-62v319h-188v64h188v387q0 250 150 373l41 -49q-129 -104 -129 -324v-387 h589v530q0 219 -158.5 360.5t-381.5 141.5q-158 0 -283 -65q-135 -72 -203 -205q-43 -88 -43 -176q0 -137 66 -230l-49 -37q-80 109 -80 267zM717 1939l45 46l336 -336l-45 -43z" />
<glyph unicode="&#xc1;" horiz-adv-x="1509" d="M82 969q0 100 51 202q76 152 225 232q139 74 316 74q250 0 426 -158t176 -406v-727q0 -59 29 -98q33 -45 90 -45q74 0 114 41v-76q-51 -27 -114 -26q-84 0 -132.5 59t-48.5 145v133h-589v-319h-62v319h-188v64h188v387q0 250 150 373l41 -49q-129 -104 -129 -324v-387 h589v530q0 219 -158.5 360.5t-381.5 141.5q-158 0 -283 -65q-135 -72 -203 -205q-43 -88 -43 -176q0 -137 66 -230l-49 -37q-80 109 -80 267zM676 1649l336 336l45 -46l-336 -333z" />
<glyph unicode="&#xc2;" horiz-adv-x="1509" d="M82 969q0 100 51 202q76 152 225 232q139 74 316 74q250 0 426 -158t176 -406v-727q0 -59 29 -98q33 -45 90 -45q74 0 114 41v-76q-51 -27 -114 -26q-84 0 -132.5 59t-48.5 145v133h-589v-319h-62v319h-188v64h188v387q0 250 150 373l41 -49q-129 -104 -129 -324v-387 h589v530q0 219 -158.5 360.5t-381.5 141.5q-158 0 -283 -65q-135 -72 -203 -205q-43 -88 -43 -176q0 -137 66 -230l-49 -37q-80 109 -80 267zM614 1636l310 312l309 -312l-43 -43l-266 265l-265 -265z" />
<glyph unicode="&#xc3;" horiz-adv-x="1509" d="M82 969q0 100 51 202q76 152 225 232q139 74 316 74q250 0 426 -158t176 -406v-727q0 -59 29 -98q33 -45 90 -45q74 0 114 41v-76q-51 -27 -114 -26q-84 0 -132.5 59t-48.5 145v133h-589v-319h-62v319h-188v64h188v387q0 250 150 373l41 -49q-129 -104 -129 -324v-387 h589v530q0 219 -158.5 360.5t-381.5 141.5q-158 0 -283 -65q-135 -72 -203 -205q-43 -88 -43 -176q0 -137 66 -230l-49 -37q-80 109 -80 267zM614 1655v74q90 53 172 53q59 0 152.5 -41t142.5 -41q74 0 164 61v-73q-86 -49 -164 -50q-59 0 -153 41t-144 41q-76 1 -170 -65z " />
<glyph unicode="&#xc4;" horiz-adv-x="1509" d="M82 969q0 100 51 202q76 152 225 232q139 74 316 74q250 0 426 -158t176 -406v-727q0 -59 29 -98q33 -45 90 -45q74 0 114 41v-76q-51 -27 -114 -26q-84 0 -132.5 59t-48.5 145v133h-589v-319h-62v319h-188v64h188v387q0 250 150 373l41 -49q-129 -104 -129 -324v-387 h589v530q0 219 -158.5 360.5t-381.5 141.5q-158 0 -283 -65q-135 -72 -203 -205q-43 -88 -43 -176q0 -137 66 -230l-49 -37q-80 109 -80 267zM692 1667q0 66 66 66q27 0 46 -19.5t19 -46.5t-19.5 -46t-46 -19t-46 19t-19.5 46zM1049 1667q0 27 19 46.5t46 19.5q66 0 66 -66 q0 -27 -19.5 -46t-46.5 -19t-46 19t-19 46z" />
<glyph unicode="&#xc5;" horiz-adv-x="1509" d="M82 969q0 100 51 202q76 152 225 232q139 74 316 74q250 0 426 -158t176 -406v-727q0 -59 29 -98q33 -45 90 -45q74 0 114 41v-76q-51 -27 -114 -26q-84 0 -132.5 59t-48.5 145v133h-589v-319h-62v319h-188v64h188v387q0 250 150 373l41 -49q-129 -104 -129 -324v-387 h589v530q0 219 -158.5 360.5t-381.5 141.5q-158 0 -283 -65q-135 -72 -203 -205q-43 -88 -43 -176q0 -137 66 -230l-49 -37q-80 109 -80 267zM696 1722q0 88 62.5 151.5t152.5 63.5q88 0 150.5 -63.5t62.5 -151.5t-62.5 -150.5t-150.5 -62.5q-90 0 -152.5 62.5t-62.5 150.5z M760 1722q0 -61 44 -106t107 -45q61 0 106.5 45t45.5 106q0 63 -45 107.5t-107 44.5q-63 0 -107 -44.5t-44 -107.5z" />
<glyph unicode="&#xc6;" horiz-adv-x="2125" d="M82 969q0 100 49 200q76 152 225 232q139 76 318 76q281 0 454 -189q172 188 469 189q334 0 449 -207q39 -70 39 -146q0 -131 -93.5 -225t-226.5 -111l-8 62q111 14 187.5 90t76.5 184q0 63 -34 123q-100 168 -390 168q-201 0 -352 -106q-170 -119 -170 -314 q0 -225 176 -348q156 -106 391 -106v-64q-393 0 -393 -219q0 -106 113 -166q92 -49 211 -49q195 0 305 78v-72q-129 -68 -305 -67q-147 0 -256 63q-131 76 -131 213q0 115 119 195h-680v-453h-62v453h-207v61h207v256q0 250 150 373l41 -49q-129 -104 -129 -324v-256h784 q-182 39 -289.5 168t-107.5 313q0 133 78 244q-154 176 -416 176q-160 0 -285 -67q-135 -72 -201 -207q-43 -86 -43 -172q0 -137 66 -230l-49 -37q-80 111 -80 267z" />
<glyph unicode="&#xc7;" horiz-adv-x="1392" d="M143 696q0 317 205 545q211 236 522 236q197 0 330 -97q152 -109 152 -297q0 -172 -114 -282.5t-286 -110.5q-127 0 -247 74l32 53q106 -66 215 -65q145 0 241.5 93t96.5 238q0 162 -133 252q-117 80 -287 80q-291 0 -481 -217q-182 -207 -182 -502q0 -291 190.5 -472 t485.5 -181q260 0 395 102v-75q-141 -86 -377 -88l-72 -142q33 29 80 29q66 0 108 -50t42 -116q0 -78 -56.5 -132t-134.5 -54v63q53 0 90 35t37 88q0 106 -106 107q-59 0 -96 -43l-52 34l90 183q-303 14 -495.5 210.5t-192.5 501.5z" />
<glyph unicode="&#xc8;" horiz-adv-x="1196" d="M82 995q0 221 188 359q168 123 398 123q319 0 440 -193q47 -74 47 -160q0 -131 -93 -225t-226 -111l-9 62q111 14 188 90t77 184q0 59 -31 115q-96 176 -393 176q-201 0 -353 -106q-170 -119 -170 -314q0 -225 177 -348q156 -106 391 -106v-64q-393 0 -394 -219 q0 -109 113 -166q92 -49 211 -49q195 0 305 78v-72q-129 -68 -305 -67q-147 0 -256 63q-131 76 -131 213q0 201 283 252q-205 31 -328 154q-129 130 -129 331zM430 1939l45 46l336 -336l-45 -43z" />
<glyph unicode="&#xc9;" horiz-adv-x="1196" d="M82 995q0 221 188 359q168 123 398 123q319 0 440 -193q47 -74 47 -160q0 -131 -93 -225t-226 -111l-9 62q111 14 188 90t77 184q0 59 -31 115q-96 176 -393 176q-201 0 -353 -106q-170 -119 -170 -314q0 -225 177 -348q156 -106 391 -106v-64q-393 0 -394 -219 q0 -109 113 -166q92 -49 211 -49q195 0 305 78v-72q-129 -68 -305 -67q-147 0 -256 63q-131 76 -131 213q0 201 283 252q-205 31 -328 154q-129 130 -129 331zM471 1649l336 336l45 -46l-336 -333z" />
<glyph unicode="&#xca;" horiz-adv-x="1196" d="M82 995q0 221 188 359q168 123 398 123q319 0 440 -193q47 -74 47 -160q0 -131 -93 -225t-226 -111l-9 62q111 14 188 90t77 184q0 59 -31 115q-96 176 -393 176q-201 0 -353 -106q-170 -119 -170 -314q0 -225 177 -348q156 -106 391 -106v-64q-393 0 -394 -219 q0 -109 113 -166q92 -49 211 -49q195 0 305 78v-72q-129 -68 -305 -67q-147 0 -256 63q-131 76 -131 213q0 201 283 252q-205 31 -328 154q-129 130 -129 331zM348 1636l309 312l310 -312l-43 -43l-267 265l-264 -265z" />
<glyph unicode="&#xcb;" horiz-adv-x="1196" d="M82 995q0 221 188 359q168 123 398 123q319 0 440 -193q47 -74 47 -160q0 -131 -93 -225t-226 -111l-9 62q111 14 188 90t77 184q0 59 -31 115q-96 176 -393 176q-201 0 -353 -106q-170 -119 -170 -314q0 -225 177 -348q156 -106 391 -106v-64q-393 0 -394 -219 q0 -109 113 -166q92 -49 211 -49q195 0 305 78v-72q-129 -68 -305 -67q-147 0 -256 63q-131 76 -131 213q0 201 283 252q-205 31 -328 154q-129 130 -129 331zM406 1667q0 66 65 66q27 0 46.5 -19.5t19.5 -46.5t-19.5 -46t-46.5 -19t-46 19t-19 46zM762 1667q0 27 19.5 46.5 t45.5 19.5q66 0 66 -66q0 -27 -19.5 -46t-46 -19t-46 19t-19.5 46z" />
<glyph unicode="&#xcc;" horiz-adv-x="1128" d="M82 1083q0 68 31 144q102 250 376 250q170 0 292 -119t122 -289v-774q0 -127 -74 -217q-80 -96 -204 -96q-119 0 -211 63v78q88 -80 211 -80q98 0 159 80q57 72 58 172v774q0 143 -104.5 244.5t-248.5 101.5q-240 0 -321 -215q-23 -63 -23 -117q0 -182 144 -262l-31 -53 q-176 96 -176 315zM307 1939l45 46l336 -336l-45 -43z" />
<glyph unicode="&#xcd;" horiz-adv-x="1128" d="M82 1083q0 68 31 144q102 250 376 250q170 0 292 -119t122 -289v-774q0 -127 -74 -217q-80 -96 -204 -96q-119 0 -211 63v78q88 -80 211 -80q98 0 159 80q57 72 58 172v774q0 143 -104.5 244.5t-248.5 101.5q-240 0 -321 -215q-23 -63 -23 -117q0 -182 144 -262l-31 -53 q-176 96 -176 315zM307 1649l336 336l45 -46l-336 -333z" />
<glyph unicode="&#xce;" horiz-adv-x="1128" d="M82 1083q0 68 31 144q102 250 376 250q170 0 292 -119t122 -289v-774q0 -127 -74 -217q-80 -96 -204 -96q-119 0 -211 63v78q88 -80 211 -80q98 0 159 80q57 72 58 172v774q0 143 -104.5 244.5t-248.5 101.5q-240 0 -321 -215q-23 -63 -23 -117q0 -182 144 -262l-31 -53 q-176 96 -176 315zM164 1636l309 312l309 -312l-43 -43l-266 265l-264 -265z" />
<glyph unicode="&#xcf;" horiz-adv-x="1128" d="M82 1083q0 68 31 144q102 250 376 250q170 0 292 -119t122 -289v-774q0 -127 -74 -217q-80 -96 -204 -96q-119 0 -211 63v78q88 -80 211 -80q98 0 159 80q57 72 58 172v774q0 143 -104.5 244.5t-248.5 101.5q-240 0 -321 -215q-23 -63 -23 -117q0 -182 144 -262l-31 -53 q-176 96 -176 315zM262 1667q0 66 66 66q27 0 46 -19.5t19 -46.5t-19.5 -46t-46 -19t-46 19t-19.5 46zM618 1667q0 27 19.5 46.5t46.5 19.5q66 0 66 -66q0 -27 -19.5 -46t-46.5 -19t-46.5 19t-19.5 46z" />
<glyph unicode="&#xd0;" horiz-adv-x="1783" d="M41 815q0 317 233 498q213 164 539 164q340 0 583.5 -234.5t243.5 -572.5q0 -285 -149 -477q-164 -211 -438 -211q-315 0 -400 225q0 -90 -41 -154q-49 -72 -135 -71q-68 0 -119 32v80q37 -51 119 -51q55 0 86 51q29 45 29 103v333h-225v64h225v594h61v-594h203v-64h-203 v-116q0 -182 109 -279q102 -92 291 -92q248 0 393 195q131 176 131 432q0 311 -225.5 528t-538.5 217q-299 0 -494 -147q-215 -164 -215 -453q0 -129 84 -258l-51 -35q-96 143 -96 293z" />
<glyph unicode="&#xd1;" horiz-adv-x="1906" d="M82 1114q0 154 101.5 258.5t252.5 104.5q143 0 245.5 -86t125.5 -228q49 141 171 227.5t271 86.5q158 0 268.5 -105.5t110.5 -263.5v-922q0 -53 36 -98t89 -45q98 0 154 70v-86q-57 -45 -154 -45q-78 0 -133 63.5t-55 140.5v922q0 131 -92.5 219t-223.5 88 q-178 0 -307 -124t-129 -300v-991h-61v1094q0 141 -87 231t-229 90q-125 0 -208 -87t-83 -214q0 -66 38 -131t98 -102l-35 -54q-72 45 -118 125t-46 162zM881 1655v74q90 53 172 53q59 0 152 -41t143 -41q74 0 163 61v-73q-86 -49 -163 -50q-59 0 -153.5 41t-143.5 41 q-76 1 -170 -65z" />
<glyph unicode="&#xd2;" horiz-adv-x="1853" d="M143 782q0 365 269 604q78 72 155 103v-68q-162 -82 -264 -270q-96 -180 -96 -369q0 -299 217 -519t516 -220q283 0 496 225.5t213 509.5q0 178 -68 326q-74 162 -215 250q-111 70 -233 69q-125 0 -220 -71q-102 -78 -102 -201q0 -119 66.5 -194.5t185.5 -75.5 q127 0 197 49l36 -51q-84 -61 -233 -62q-145 0 -229 94.5t-84 239.5q0 150 118 246q113 88 265 88q123 0 237 -62q168 -92 258 -274q82 -166 82 -371q0 -313 -228.5 -554.5t-541.5 -241.5q-324 0 -560.5 237t-236.5 563zM737 1939l45 46l336 -336l-45 -43z" />
<glyph unicode="&#xd3;" horiz-adv-x="1853" d="M143 782q0 365 269 604q78 72 155 103v-68q-162 -82 -264 -270q-96 -180 -96 -369q0 -299 217 -519t516 -220q283 0 496 225.5t213 509.5q0 178 -68 326q-74 162 -215 250q-111 70 -233 69q-125 0 -220 -71q-102 -78 -102 -201q0 -119 66.5 -194.5t185.5 -75.5 q127 0 197 49l36 -51q-84 -61 -233 -62q-145 0 -229 94.5t-84 239.5q0 150 118 246q113 88 265 88q123 0 237 -62q168 -92 258 -274q82 -166 82 -371q0 -313 -228.5 -554.5t-541.5 -241.5q-324 0 -560.5 237t-236.5 563zM717 1649l336 336l45 -46l-336 -333z" />
<glyph unicode="&#xd4;" horiz-adv-x="1853" d="M143 782q0 365 269 604q78 72 155 103v-68q-162 -82 -264 -270q-96 -180 -96 -369q0 -299 217 -519t516 -220q283 0 496 225.5t213 509.5q0 178 -68 326q-74 162 -215 250q-111 70 -233 69q-125 0 -220 -71q-102 -78 -102 -201q0 -119 66.5 -194.5t185.5 -75.5 q127 0 197 49l36 -51q-84 -61 -233 -62q-145 0 -229 94.5t-84 239.5q0 150 118 246q113 88 265 88q123 0 237 -62q168 -92 258 -274q82 -166 82 -371q0 -313 -228.5 -554.5t-541.5 -241.5q-324 0 -560.5 237t-236.5 563zM614 1636l310 312l309 -312l-43 -43l-266 265 l-265 -265z" />
<glyph unicode="&#xd5;" horiz-adv-x="1853" d="M143 782q0 365 269 604q78 72 155 103v-68q-162 -82 -264 -270q-96 -180 -96 -369q0 -299 217 -519t516 -220q283 0 496 225.5t213 509.5q0 178 -68 326q-74 162 -215 250q-111 70 -233 69q-125 0 -220 -71q-102 -78 -102 -201q0 -119 66.5 -194.5t185.5 -75.5 q127 0 197 49l36 -51q-84 -61 -233 -62q-145 0 -229 94.5t-84 239.5q0 150 118 246q113 88 265 88q123 0 237 -62q168 -92 258 -274q82 -166 82 -371q0 -313 -228.5 -554.5t-541.5 -241.5q-324 0 -560.5 237t-236.5 563zM614 1655v74q90 53 172 53q59 0 152.5 -41t142.5 -41 q74 0 164 61v-73q-86 -49 -164 -50q-59 0 -153 41t-144 41q-76 1 -170 -65z" />
<glyph unicode="&#xd6;" horiz-adv-x="1853" d="M143 782q0 365 269 604q78 72 155 103v-68q-162 -82 -264 -270q-96 -180 -96 -369q0 -299 217 -519t516 -220q283 0 496 225.5t213 509.5q0 178 -68 326q-74 162 -215 250q-111 70 -233 69q-125 0 -220 -71q-102 -78 -102 -201q0 -119 66.5 -194.5t185.5 -75.5 q127 0 197 49l36 -51q-84 -61 -233 -62q-145 0 -229 94.5t-84 239.5q0 150 118 246q113 88 265 88q123 0 237 -62q168 -92 258 -274q82 -166 82 -371q0 -313 -228.5 -554.5t-541.5 -241.5q-324 0 -560.5 237t-236.5 563zM692 1667q0 66 66 66q27 0 46 -19.5t19 -46.5 t-19.5 -46t-46 -19t-46 19t-19.5 46zM1049 1667q0 27 19 46.5t46 19.5q66 0 66 -66q0 -27 -19.5 -46t-46.5 -19t-46 19t-19 46z" />
<glyph unicode="&#xd8;" horiz-adv-x="1853" d="M143 762q0 360 263 602q82 74 161 106v-69q-162 -80 -264 -271q-96 -180 -96 -368q0 -307 235 -524l566 565q-123 18 -193 112q-66 88 -65 218q0 147 118 243q113 90 265 90q209 0 374 -166l140 140l45 -43l-144 -144q162 -199 162 -493q0 -313 -228.5 -545.5 t-541.5 -232.5q-276 0 -496 172l-133 -134l-43 46l129 129q-254 233 -254 567zM489 199q201 -156 451 -156q283 0 496 217t213 500q0 178 -70 327q-76 164 -219 250q-109 66 -227 66q-125 0 -220 -72q-102 -78 -102 -198.5t66.5 -196.5t185.5 -76q129 0 197 49l36 -49 q-76 -57 -204 -61z" />
<glyph unicode="&#xd9;" horiz-adv-x="1918" d="M82 1149q0 147 100.5 237.5t247.5 90.5q166 0 271.5 -110t105.5 -277v-701q0 -147 92 -246.5t238 -99.5q199 0 313 147q104 133 104 338v926h62v-1229q0 -70 41 -123q45 -59 110 -59q104 0 152 68v-86q-59 -43 -151.5 -43t-153 73.5t-60.5 169.5v58q-104 -301 -417 -301 q-172 0 -283 116.5t-111 290.5v701q0 139 -88 232t-225 93q-121 0 -203 -73.5t-82 -192.5q0 -139 119 -252l-43 -45q-139 131 -139 297zM963 1939l45 46l335 -336l-45 -43z" />
<glyph unicode="&#xda;" horiz-adv-x="1918" d="M82 1149q0 147 100.5 237.5t247.5 90.5q166 0 271.5 -110t105.5 -277v-701q0 -147 92 -246.5t238 -99.5q199 0 313 147q104 133 104 338v926h62v-1229q0 -70 41 -123q45 -59 110 -59q104 0 152 68v-86q-59 -43 -151.5 -43t-153 73.5t-60.5 169.5v58q-104 -301 -417 -301 q-172 0 -283 116.5t-111 290.5v701q0 139 -88 232t-225 93q-121 0 -203 -73.5t-82 -192.5q0 -139 119 -252l-43 -45q-139 131 -139 297zM922 1649l335 336l46 -46l-336 -333z" />
<glyph unicode="&#xdb;" horiz-adv-x="1918" d="M82 1149q0 147 100.5 237.5t247.5 90.5q166 0 271.5 -110t105.5 -277v-701q0 -147 92 -246.5t238 -99.5q199 0 313 147q104 133 104 338v926h62v-1229q0 -70 41 -123q45 -59 110 -59q104 0 152 68v-86q-59 -43 -151.5 -43t-153 73.5t-60.5 169.5v58q-104 -301 -417 -301 q-172 0 -283 116.5t-111 290.5v701q0 139 -88 232t-225 93q-121 0 -203 -73.5t-82 -192.5q0 -139 119 -252l-43 -45q-139 131 -139 297zM840 1636l309 312l309 -312l-43 -43l-266 265l-264 -265z" />
<glyph unicode="&#xdc;" horiz-adv-x="1918" d="M82 1149q0 147 100.5 237.5t247.5 90.5q166 0 271.5 -110t105.5 -277v-701q0 -147 92 -246.5t238 -99.5q199 0 313 147q104 133 104 338v926h62v-1229q0 -70 41 -123q45 -59 110 -59q104 0 152 68v-86q-59 -43 -151.5 -43t-153 73.5t-60.5 169.5v58q-104 -301 -417 -301 q-172 0 -283 116.5t-111 290.5v701q0 139 -88 232t-225 93q-121 0 -203 -73.5t-82 -192.5q0 -139 119 -252l-43 -45q-139 131 -139 297zM899 1667q0 66 66 66q27 0 46 -19.5t19 -46.5t-19.5 -46t-46 -19t-46 19t-19.5 46zM1255 1667q0 27 19.5 46.5t46.5 19.5q66 0 65 -66 q0 -27 -19 -46t-46 -19t-46.5 19t-19.5 46z" />
<glyph unicode="&#xdd;" horiz-adv-x="1835" d="M82 1139q0 154 106 247q100 90 256 90.5t261 -118.5q98 -115 98 -275v-663q0 -174 82 -273q88 -104 260 -104q160 0 285 143q117 135 116 299v969h64v-1640q0 -188 -189 -289l-30 55q156 82 155 234v489q-49 -137 -151 -225q-113 -96 -250 -96q-197 0 -303 122 q-102 117 -103 316v663q0 135 -77 230q-86 102 -218 102q-129 0 -214 -73.5t-85 -202.5q0 -70 38 -144.5t93 -120.5l-40 -49q-66 53 -110 141.5t-44 172.5zM922 1649l335 336l46 -46l-336 -333z" />
<glyph unicode="&#xde;" horiz-adv-x="1593" d="M82 651q0 242 162 406q150 154 389 194v203h61v-194q43 4 88 4q289 0 475 -134q213 -154 213 -430q0 -199 -136 -343t-333 -144q-164 0 -307 53v-69q0 -84 -45 -146q-49 -70 -131 -69q-68 0 -119 32v80q39 -51 119 -51q55 0 86 51q29 45 29 103v991q-211 -41 -344 -176 q-143 -145 -144 -361q0 -156 95 -245l-43 -46q-51 49 -84 136q-31 79 -31 155zM694 334q141 -59 307 -60q172 0 289 127t117 299q0 252 -193 385q-168 117 -432 117q-45 0 -88 -4v-864z" />
<glyph unicode="&#xdf;" horiz-adv-x="1247" d="M41 606v62h315v323q0 199 111 338q119 147 313 148q160 0 272.5 -104.5t112.5 -262.5q0 -137 -78 -252q-14 -23 -143 -166q-76 -86 -76 -153q0 -63 93.5 -168t93.5 -199q0 -78 -55.5 -134t-133.5 -56q-82 0 -141 34v80q57 -53 141 -53q51 0 89 39t38 90q0 72 -94 175.5 t-94 191.5t78 178l143 162q78 106 78 231q0 131 -95.5 218t-228.5 87q-166 0 -268 -131q-94 -121 -94 -293v-1136q0 -113 -68 -207q-70 -100 -176 -123l-14 59q86 20 141 100t55 171v751h-315z" />
<glyph unicode="&#xe0;" d="M141 333.5q0 143.5 102.5 248t245.5 104.5q193 0 287 -170v152h64v-494q0 -131 112 -131q80 0 127 49v-80q-53 -33 -127 -32q-76 0 -122 49t-52 127q-94 -174 -289 -174q-143 0 -245.5 104t-102.5 247.5zM205 334q0 -119 84 -205t200 -86q86 0 158 48t107 128 q23 49 22 80v70q0 31 -22 82q-35 78 -107 126t-158 48q-117 0 -200.5 -86t-83.5 -205zM307 1243l45 45l336 -336l-45 -43z" />
<glyph unicode="&#xe1;" d="M141 333.5q0 143.5 102.5 248t245.5 104.5q193 0 287 -170v152h64v-494q0 -131 112 -131q80 0 127 49v-80q-53 -33 -127 -32q-76 0 -122 49t-52 127q-94 -174 -289 -174q-143 0 -245.5 104t-102.5 247.5zM205 334q0 -119 84 -205t200 -86q86 0 158 48t107 128 q23 49 22 80v70q0 31 -22 82q-35 78 -107 126t-158 48q-117 0 -200.5 -86t-83.5 -205zM266 952l336 336l45 -45l-336 -334z" />
<glyph unicode="&#xe2;" d="M141 333.5q0 143.5 102.5 248t245.5 104.5q193 0 287 -170v152h64v-494q0 -131 112 -131q80 0 127 49v-80q-53 -33 -127 -32q-76 0 -122 49t-52 127q-94 -174 -289 -174q-143 0 -245.5 104t-102.5 247.5zM164 940l309 311l309 -311l-43 -43l-266 264l-264 -264zM205 334 q0 -119 84 -205t200 -86q86 0 158 48t107 128q23 49 22 80v70q0 31 -22 82q-35 78 -107 126t-158 48q-117 0 -200.5 -86t-83.5 -205z" />
<glyph unicode="&#xe3;" d="M141 333.5q0 143.5 102.5 248t245.5 104.5q193 0 287 -170v152h64v-494q0 -131 112 -131q80 0 127 49v-80q-53 -33 -127 -32q-76 0 -122 49t-52 127q-94 -174 -289 -174q-143 0 -245.5 104t-102.5 247.5zM184 999v74q90 53 172 53q59 0 152.5 -41t142.5 -41q74 0 164 62 v-74q-86 -49 -164 -49q-59 0 -153.5 41t-143.5 41q-76 0 -170 -66zM205 334q0 -119 84 -205t200 -86q86 0 158 48t107 128q23 49 22 80v70q0 31 -22 82q-35 78 -107 126t-158 48q-117 0 -200.5 -86t-83.5 -205z" />
<glyph unicode="&#xe4;" d="M141 333.5q0 143.5 102.5 248t245.5 104.5q193 0 287 -170v152h64v-494q0 -131 112 -131q80 0 127 49v-80q-53 -33 -127 -32q-76 0 -122 49t-52 127q-94 -174 -289 -174q-143 0 -245.5 104t-102.5 247.5zM205 334q0 -119 84 -205t200 -86q86 0 158 48t107 128 q23 49 22 80v70q0 31 -22 82q-35 78 -107 126t-158 48q-117 0 -200.5 -86t-83.5 -205zM240 1051q0 66 65 65q27 0 46.5 -19.5t19.5 -46t-19.5 -46t-46 -19.5t-46 19.5t-19.5 46.5zM596 1050.5q0 26.5 19.5 46t46.5 19.5q66 0 65 -65q0 -27 -19.5 -46.5t-46 -19.5t-46 19.5 t-19.5 46z" />
<glyph unicode="&#xe5;" d="M141 333.5q0 143.5 102.5 248t245.5 104.5q193 0 287 -170v152h64v-494q0 -131 112 -131q80 0 127 49v-80q-53 -33 -127 -32q-76 0 -122 49t-52 127q-94 -174 -289 -174q-143 0 -245.5 104t-102.5 247.5zM205 334q0 -119 84 -205t200 -86q86 0 158 48t107 128 q23 49 22 80v70q0 31 -22 82q-35 78 -107 126t-158 48q-117 0 -200.5 -86t-83.5 -205zM266 1108q0 88 62.5 151.5t152.5 63.5q88 0 150.5 -63.5t62.5 -151.5t-62.5 -150.5t-150.5 -62.5q-90 0 -152.5 62.5t-62.5 150.5zM330 1108q0 -61 44 -106.5t107 -45.5q61 0 106.5 45.5 t45.5 106.5q0 63 -45 107.5t-107 44.5q-63 0 -107 -44.5t-44 -107.5z" />
<glyph unicode="&#xe6;" horiz-adv-x="1478" d="M143 333.5q0 143.5 102.5 248t246.5 104.5q190 0 286 -170v152h64v-152q94 170 284 170q145 0 271 -127l-451 -444q84 -72 180 -72q143 0 228 57v-71q-92 -47 -228 -47q-111 0 -197.5 67.5t-117.5 175.5q-33 -109 -120 -176t-199 -67q-143 0 -246 104t-103 247.5z M207 334q0 -119 84 -205t201 -86q119 0 202.5 86t83.5 205t-84 205t-202 86q-117 0 -201 -86t-84 -205zM842 334q0 -96 59 -174l404 397q-84 68 -179 68q-117 0 -200.5 -86t-83.5 -205z" />
<glyph unicode="&#xe7;" horiz-adv-x="882" d="M141 334q0 143 102.5 247.5t245.5 104.5q86 0 160 -31q92 -43 92 -116q0 -33 -22.5 -56.5t-55 -23.5t-56 23.5t-23.5 56.5q0 39 30 61q-57 25 -125 25q-117 0 -200.5 -86t-83.5 -205q0 -117 93 -204t212 -87q143 0 225 57v-71q-80 -41 -194 -47l-72 -142q33 29 80 29 q66 0 107.5 -50t41.5 -116q0 -78 -56 -132t-134 -54v63q53 0 90 35t37 88q0 106 -107 107q-59 0 -96 -43l-51 34l90 183q-135 14 -232.5 114.5t-97.5 235.5z" />
<glyph unicode="&#xe8;" horiz-adv-x="839" d="M141 333.5q0 143.5 102.5 248t245.5 104.5q139 0 271 -131l-451 -444q80 -68 180 -68q143 0 228 57v-71q-92 -47 -228 -47q-143 0 -245.5 104t-102.5 247.5zM205 334q0 -100 59 -178l404 397q-88 72 -179 72q-117 0 -200.5 -86t-83.5 -205zM266 1243l45 45l336 -336 l-45 -43z" />
<glyph unicode="&#xe9;" horiz-adv-x="839" d="M141 333.5q0 143.5 102.5 248t245.5 104.5q139 0 271 -131l-451 -444q80 -68 180 -68q143 0 228 57v-71q-92 -47 -228 -47q-143 0 -245.5 104t-102.5 247.5zM205 334q0 -100 59 -178l404 397q-88 72 -179 72q-117 0 -200.5 -86t-83.5 -205zM246 952l336 336l45 -45 l-336 -334z" />
<glyph unicode="&#xea;" horiz-adv-x="839" d="M141 333.5q0 143.5 102.5 248t245.5 104.5q139 0 271 -131l-451 -444q80 -68 180 -68q143 0 228 57v-71q-92 -47 -228 -47q-143 0 -245.5 104t-102.5 247.5zM143 940l310 311l309 -311l-43 -43l-266 264l-265 -264zM205 334q0 -100 59 -178l404 397q-88 72 -179 72 q-117 0 -200.5 -86t-83.5 -205z" />
<glyph unicode="&#xeb;" horiz-adv-x="839" d="M141 333.5q0 143.5 102.5 248t245.5 104.5q139 0 271 -131l-451 -444q80 -68 180 -68q143 0 228 57v-71q-92 -47 -228 -47q-143 0 -245.5 104t-102.5 247.5zM199 1051q0 66 65 65q27 0 46.5 -19.5t19.5 -46t-19.5 -46t-46 -19.5t-46 19.5t-19.5 46.5zM205 334 q0 -100 59 -178l404 397q-88 72 -179 72q-117 0 -200.5 -86t-83.5 -205zM555 1050.5q0 26.5 19.5 46t46.5 19.5q66 0 65 -65q0 -27 -19.5 -46.5t-46 -19.5t-46 19.5t-19.5 46z" />
<glyph unicode="&#xec;" horiz-adv-x="526" d="M82 1243l45 45l336 -336l-45 -43zM223 176v492h64v-492q0 -131 112 -131q78 0 127 49v-80q-51 -33 -127 -32q-82 0 -129 56t-47 138z" />
<glyph unicode="&#xed;" horiz-adv-x="526" d="M61 952l336 336l45 -45l-336 -334zM223 176v492h64v-492q0 -131 112 -131q78 0 127 49v-80q-51 -33 -127 -32q-82 0 -129 56t-47 138z" />
<glyph unicode="&#xee;" horiz-adv-x="526" d="M-41 940l309 311l310 -311l-43 -43l-267 264l-264 -264zM223 176v492h64v-492q0 -131 112 -131q78 0 127 49v-80q-51 -33 -127 -32q-82 0 -129 56t-47 138z" />
<glyph unicode="&#xef;" horiz-adv-x="526" d="M14 1051q0 66 66 65q27 0 46 -19.5t19 -46t-19.5 -46t-46 -19.5t-46 19.5t-19.5 46.5zM223 176v492h64v-492q0 -131 112 -131q78 0 127 49v-80q-51 -33 -127 -32q-82 0 -129 56t-47 138zM371 1050.5q0 26.5 19.5 46t45.5 19.5q66 0 66 -65q0 -27 -19.5 -46.5t-46 -19.5 t-46 19.5t-19.5 46z" />
<glyph unicode="&#xf0;" d="M141 333.5q0 143.5 102.5 248t245.5 104.5q190 0 287 -170v528h-217v64h217v346h64v-346h209v-64h-209v-868q0 -131 112 -131q80 0 127 49v-80q-53 -33 -126.5 -32.5t-121 49.5t-53.5 123q-96 -172 -289 -172q-143 0 -245.5 104t-102.5 247.5zM205 334q0 -119 84 -205 t200 -86q86 0 158 48t107 128q23 49 22 80v70q0 31 -22 82q-35 78 -107 126t-158 48q-117 0 -200.5 -86t-83.5 -205z" />
<glyph unicode="&#xf1;" horiz-adv-x="1021" d="M184 999v74q90 53 172 53q59 0 152.5 -41t142.5 -41q74 0 164 62v-74q-86 -49 -164 -49q-59 0 -153.5 41t-143.5 41q-76 0 -170 -66zM223 0v668h64v-138q68 158 219 158q129 0 202.5 -79t73.5 -210v-223q0 -131 113 -131q80 0 127 49v-80q-51 -33 -127 -32q-80 0 -128 56 t-48 138v223q0 227 -213 228q-90 0 -154.5 -78t-64.5 -168v-381h-64z" />
<glyph unicode="&#xf2;" horiz-adv-x="980" d="M141 333.5q0 143.5 102.5 248t245.5 104.5q145 0 248 -104.5t103 -248t-102.5 -247.5t-248.5 -104q-143 0 -245.5 104t-102.5 247.5zM205 334q0 -119 84 -205t200 -86q119 0 203 86t84 205q0 70 -33 133q-23 -35 -63 -35q-33 0 -56.5 23.5t-23.5 56.5q0 45 41 68 q-70 43 -152 43q-117 0 -200.5 -85t-83.5 -204zM307 1243l45 45l336 -336l-45 -43z" />
<glyph unicode="&#xf3;" horiz-adv-x="980" d="M141 333.5q0 143.5 102.5 248t245.5 104.5q145 0 248 -104.5t103 -248t-102.5 -247.5t-248.5 -104q-143 0 -245.5 104t-102.5 247.5zM205 334q0 -119 84 -205t200 -86q119 0 203 86t84 205q0 70 -33 133q-23 -35 -63 -35q-33 0 -56.5 23.5t-23.5 56.5q0 45 41 68 q-70 43 -152 43q-117 0 -200.5 -85t-83.5 -204zM287 952l336 336l45 -45l-336 -334z" />
<glyph unicode="&#xf4;" horiz-adv-x="980" d="M141 333.5q0 143.5 102.5 248t245.5 104.5q145 0 248 -104.5t103 -248t-102.5 -247.5t-248.5 -104q-143 0 -245.5 104t-102.5 247.5zM164 940l309 311l309 -311l-43 -43l-266 264l-264 -264zM205 334q0 -119 84 -205t200 -86q119 0 203 86t84 205q0 70 -33 133 q-23 -35 -63 -35q-33 0 -56.5 23.5t-23.5 56.5q0 45 41 68q-70 43 -152 43q-117 0 -200.5 -85t-83.5 -204z" />
<glyph unicode="&#xf5;" horiz-adv-x="980" d="M141 333.5q0 143.5 102.5 248t245.5 104.5q145 0 248 -104.5t103 -248t-102.5 -247.5t-248.5 -104q-143 0 -245.5 104t-102.5 247.5zM164 999v74q90 53 172 53q59 0 152.5 -41t142.5 -41q74 0 164 62v-74q-86 -49 -164 -49q-59 0 -153.5 41t-143.5 41q-76 0 -170 -66z M205 334q0 -119 84 -205t200 -86q119 0 203 86t84 205q0 70 -33 133q-23 -35 -63 -35q-33 0 -56.5 23.5t-23.5 56.5q0 45 41 68q-70 43 -152 43q-117 0 -200.5 -85t-83.5 -204z" />
<glyph unicode="&#xf6;" horiz-adv-x="980" d="M141 333.5q0 143.5 102.5 248t245.5 104.5q145 0 248 -104.5t103 -248t-102.5 -247.5t-248.5 -104q-143 0 -245.5 104t-102.5 247.5zM205 334q0 -119 84 -205t200 -86q119 0 203 86t84 205q0 70 -33 133q-23 -35 -63 -35q-33 0 -56.5 23.5t-23.5 56.5q0 45 41 68 q-70 43 -152 43q-117 0 -200.5 -85t-83.5 -204zM240 1051q0 66 65 65q27 0 46.5 -19.5t19.5 -46t-19.5 -46t-46 -19.5t-46 19.5t-19.5 46.5zM596 1050.5q0 26.5 19.5 46t46.5 19.5q66 0 65 -65q0 -27 -19.5 -46.5t-46 -19.5t-46 19.5t-19.5 46z" />
<glyph unicode="&#xf8;" horiz-adv-x="980" d="M141 334q0 143 102.5 247.5t245.5 104.5q127 0 226 -84l67 70l45 -45l-69 -68q82 -98 82 -225q0 -143 -102.5 -247.5t-248.5 -104.5q-127 0 -223 84l-65 -66l-45 45l65 66q-80 98 -80 223zM205 334q0 -100 61 -178l404 403q-78 66 -181 66q-117 0 -200.5 -86t-83.5 -205z M309 111q80 -68 180 -68q119 0 203 86t84 205q0 100 -63 180z" />
<glyph unicode="&#xf9;" horiz-adv-x="1021" d="M223 270v398h64v-398q0 -227 213 -227q90 0 157 80q61 76 62 168v377h63v-492q0 -133 113 -133q80 0 127 51v-80q-51 -33 -127 -32q-70 0 -117 45t-55 116q-70 -162 -223 -161q-129 0 -203 78.5t-74 209.5zM307 1243l45 45l336 -336l-45 -43z" />
<glyph unicode="&#xfa;" horiz-adv-x="1021" d="M223 270v398h64v-398q0 -227 213 -227q90 0 157 80q61 76 62 168v377h63v-492q0 -133 113 -133q80 0 127 51v-80q-51 -33 -127 -32q-70 0 -117 45t-55 116q-70 -162 -223 -161q-129 0 -203 78.5t-74 209.5zM307 952l336 336l45 -45l-336 -334z" />
<glyph unicode="&#xfb;" horiz-adv-x="1021" d="M205 940l309 311l309 -311l-43 -43l-266 264l-264 -264zM223 270v398h64v-398q0 -227 213 -227q90 0 157 80q61 76 62 168v377h63v-492q0 -133 113 -133q80 0 127 51v-80q-51 -33 -127 -32q-70 0 -117 45t-55 116q-70 -162 -223 -161q-129 0 -203 78.5t-74 209.5z" />
<glyph unicode="&#xfc;" horiz-adv-x="1021" d="M223 270v398h64v-398q0 -227 213 -227q90 0 157 80q61 76 62 168v377h63v-492q0 -133 113 -133q80 0 127 51v-80q-51 -33 -127 -32q-70 0 -117 45t-55 116q-70 -162 -223 -161q-129 0 -203 78.5t-74 209.5zM260 1051q0 66 66 65q27 0 46 -19.5t19 -46t-19.5 -46 t-46 -19.5t-46 19.5t-19.5 46.5zM616 1050.5q0 26.5 19.5 46t46.5 19.5q66 0 66 -65q0 -27 -19.5 -46.5t-46.5 -19.5t-46.5 19.5t-19.5 46z" />
<glyph unicode="&#xfd;" horiz-adv-x="1005" d="M223 270v398h64v-398q0 -227 213 -227q90 0 157 80q61 76 62 168v377h63v-813q0 -113 -67 -207q-70 -100 -176 -123l-15 59q84 20 139.5 100t55.5 171v278q-72 -152 -219 -151q-129 0 -203 78.5t-74 209.5zM307 952l336 336l45 -45l-336 -334z" />
<glyph unicode="&#xfe;" horiz-adv-x="1062" d="M223 -457v1911h64v-940q92 172 284 172q145 0 248 -104.5t103 -248t-102.5 -247.5t-248.5 -104q-193 0 -284 172v-611h-64zM287 291q0 -27 22 -78q37 -76 108.5 -123t153.5 -47q119 0 203 86t84 205t-84 205t-203 86q-82 0 -153.5 -47.5t-108.5 -122.5q-23 -51 -22 -78 v-86z" />
<glyph unicode="&#xff;" horiz-adv-x="1005" d="M223 270v398h64v-398q0 -227 213 -227q90 0 157 80q61 76 62 168v377h63v-813q0 -113 -67 -207q-70 -100 -176 -123l-15 59q84 20 139.5 100t55.5 171v278q-72 -152 -219 -151q-129 0 -203 78.5t-74 209.5zM260 1051q0 66 66 65q27 0 46 -19.5t19 -46t-19.5 -46 t-46 -19.5t-46 19.5t-19.5 46.5zM616 1050.5q0 26.5 19.5 46t46.5 19.5q66 0 66 -65q0 -27 -19.5 -46.5t-46.5 -19.5t-46.5 19.5t-19.5 46z" />
<glyph unicode="&#x152;" horiz-adv-x="3049" d="M1935 995q0 221 188 359q168 123 398 123q319 0 440 -193q47 -74 47 -160q0 -131 -93 -225t-226 -111l-9 62q111 14 188 90t77 184q0 59 -31 115q-96 176 -393 176q-201 0 -353 -106q-170 -119 -170 -314q0 -225 177 -348q156 -106 391 -106v-64q-393 0 -394 -219 q0 -109 113 -166q92 -49 211 -49q195 0 305 78v-72q-129 -68 -305 -67q-147 0 -256 63q-131 76 -131 213q0 201 283 252q-205 31 -328 154q-129 130 -129 331zM143 782q0 365 269 604q78 72 155 103v-68q-162 -82 -264 -270q-96 -180 -96 -369q0 -299 217 -519t516 -220 q283 0 496 225.5t213 509.5q0 178 -68 326q-74 162 -215 250q-111 70 -233 69q-125 0 -220 -71q-102 -78 -102 -201q0 -119 66.5 -194.5t185.5 -75.5q127 0 197 49l36 -51q-84 -61 -233 -62q-145 0 -229 94.5t-84 239.5q0 150 118 246q113 88 265 88q123 0 237 -62 q168 -92 258 -274q82 -166 82 -371q0 -313 -228.5 -554.5t-541.5 -241.5q-324 0 -560.5 237t-236.5 563z" />
<glyph unicode="&#x153;" horiz-adv-x="1820" d="M1122 333.5q0 143.5 102.5 248t245.5 104.5q139 0 271 -131l-451 -444q80 -68 180 -68q143 0 228 57v-71q-92 -47 -228 -47q-143 0 -245.5 104t-102.5 247.5zM1186 334q0 -100 59 -178l404 397q-88 72 -179 72q-117 0 -200.5 -86t-83.5 -205zM141 333.5 q0 143.5 102.5 248t245.5 104.5q145 0 248 -104.5t103 -248t-102.5 -247.5t-248.5 -104q-143 0 -245.5 104t-102.5 247.5zM205 334q0 -119 84 -205t200 -86q119 0 203 86t84 205q0 70 -33 133q-23 -35 -63 -35q-33 0 -56.5 23.5t-23.5 56.5q0 45 41 68q-70 43 -152 43 q-117 0 -200.5 -85t-83.5 -204z" />
<glyph unicode="&#x178;" horiz-adv-x="1835" d="M-94 1678q0 66 66 65q27 0 46 -19.5t19 -46t-19.5 -46t-46 -19.5t-46 19.5t-19.5 46.5zM263 1677.5q0 26.5 19.5 46t45.5 19.5q66 0 66 -65q0 -27 -19.5 -46.5t-46 -19.5t-46 19.5t-19.5 46zM82 1139q0 154 106 247q100 90 256 90.5t261 -118.5q98 -115 98 -275v-663 q0 -174 82 -273q88 -104 260 -104q160 0 285 143q117 135 116 299v969h64v-1640q0 -188 -189 -289l-30 55q156 82 155 234v489q-49 -137 -151 -225q-113 -96 -250 -96q-197 0 -303 122q-102 117 -103 316v663q0 135 -77 230q-86 102 -218 102q-129 0 -214 -73.5t-85 -202.5 q0 -70 38 -144.5t93 -120.5l-40 -49q-66 53 -110 141.5t-44 172.5z" />
<glyph unicode="&#x2c6;" horiz-adv-x="700" d="M41 940l309 311l309 -311l-43 -43l-266 264l-264 -264z" />
<glyph unicode="&#x2dc;" horiz-adv-x="712" d="M41 1081v74q90 53 172 53q59 0 152.5 -41t142.5 -41q74 0 164 62v-74q-86 -49 -164 -49q-59 0 -153.5 41t-143.5 41q-76 0 -170 -66z" />
<glyph unicode="&#x2013;" horiz-adv-x="985" d="M82 379v61h821v-61h-821z" />
<glyph unicode="&#x2014;" horiz-adv-x="1472" d="M82 379v61h1309v-61h-1309z" />
<glyph unicode="&#x2018;" horiz-adv-x="391" d="M123 1227q0 152 153 250l33 -54q-100 -66 -116 -153h4q29 0 47 -19.5t18 -48.5q0 -27 -19.5 -46t-45.5 -19q-74 0 -74 90z" />
<glyph unicode="&#x2019;" horiz-adv-x="391" d="M82 1190q102 66 119 156h-6q-27 -2 -46.5 17t-19.5 48q0 27 19.5 46.5t46.5 19.5q74 0 73 -88q0 -152 -151 -252z" />
<glyph unicode="&#x201a;" horiz-adv-x="581" d="M176 -174q102 66 119 156h-6q-27 0 -46.5 18t-19.5 47q0 27 19.5 46.5t46.5 19.5q74 0 73 -88q0 -152 -151 -252z" />
<glyph unicode="&#x201c;" horiz-adv-x="671" d="M123 1227q0 152 153 250l33 -54q-100 -66 -116 -153h4q29 0 47 -19.5t18 -48.5q0 -27 -19.5 -46t-45.5 -19q-74 0 -74 90zM403 1227q0 152 154 250l33 -54q-100 -66 -117 -153h4q27 0 46.5 -19.5t19.5 -48.5q0 -27 -19.5 -46t-46.5 -19q-74 0 -74 90z" />
<glyph unicode="&#x201d;" horiz-adv-x="671" d="M82 1190q102 66 119 156h-6q-27 -2 -46.5 17t-19.5 48q0 27 19.5 46.5t46.5 19.5q74 0 73 -88q0 -152 -151 -252zM362 1190q102 66 119 156h-6q-27 -2 -46 17t-19 48q0 27 19.5 46.5t45.5 19.5q74 0 74 -88q0 -152 -152 -252z" />
<glyph unicode="&#x201e;" horiz-adv-x="860" d="M176 -174q102 66 119 156h-6q-27 0 -46.5 18t-19.5 47q0 27 19.5 46.5t46.5 19.5q74 0 73 -88q0 -152 -151 -252zM455 -174q102 66 118 156h-6q-27 0 -46 18t-19 47q0 27 19.5 46.5t45.5 19.5q74 0 74 -88q0 -152 -152 -252z" />
<glyph unicode="&#x2022;" horiz-adv-x="663" d="M143 471q0 78 55.5 133t133.5 55t133 -55t55 -133t-55 -133t-133 -55t-133.5 55t-55.5 133z" />
<glyph unicode="&#x2026;" horiz-adv-x="1703" d="M217 47q0 27 19.5 46.5t46 19.5t46 -19.5t19.5 -46.5t-19.5 -46t-46 -19t-46 19t-19.5 46zM784 47q0 27 19.5 46.5t46.5 19.5q66 0 65 -66q0 -27 -18 -46t-47 -19q-27 0 -46.5 19t-19.5 46zM1352 47q0 27 19.5 46.5t47.5 19.5q66 0 66 -66q0 -27 -19.5 -46t-46.5 -19 q-29 0 -48 19t-19 46z" />
<glyph unicode="&#x2039;" horiz-adv-x="417" d="M82 334l203 289l51 -35l-178 -254l178 -254l-51 -37z" />
<glyph unicode="&#x203a;" horiz-adv-x="417" d="M82 80l178 254l-178 254l51 35l203 -289l-203 -291z" />
<glyph unicode="&#x2122;" horiz-adv-x="1290" d="M41 1004v65h467v-65h-197v-426h-65v426h-205zM659 578v491h74l180 -240l181 240h73v-491h-65v393l-189 -250l-188 250v-393h-66z" />
<glyph unicode="&#xe000;" horiz-adv-x="685" d="M0 685h685v-685h-685v685z" />
<glyph unicode="&#xfb01;" horiz-adv-x="1251" d="M913 1145q0 27 19.5 46t46.5 19t46 -19.5t19 -45.5q0 -29 -19 -47.5t-46 -18.5t-46.5 18.5t-19.5 47.5zM948 176v492h62v-492q0 -131 114 -131q78 0 127 49v-80q-53 -33 -127 -32q-82 0 -129 56t-47 138zM41 606v62h315v510q0 131 75 215t204 84q104 0 180 -45v-76 q-76 59 -180 59q-102 0 -159.5 -66.5t-57.5 -170.5v-510h305v-62h-305v-751q0 -113 -68 -207q-70 -100 -176 -123l-14 59q86 20 141 100t55 171v751h-315z" />
<glyph unicode="&#xfb02;" horiz-adv-x="1251" d="M948 176v1278h64v-1278q0 -131 112 -131q78 0 127 49v-80q-53 -33 -127 -32q-82 0 -129 56t-47 138zM41 606v62h315v510q0 131 75 215t204 84q104 0 180 -45v-76q-76 59 -180 59q-102 0 -159.5 -66.5t-57.5 -170.5v-510h305v-62h-305v-751q0 -113 -68 -207 q-70 -100 -176 -123l-14 59q86 20 141 100t55 171v751h-315z" />
<glyph unicode="&#xfb03;" horiz-adv-x="1976" d="M1638 1145q0 27 19.5 46t46.5 19t46 -19.5t19 -45.5q0 -29 -19 -47.5t-46 -18.5t-46.5 18.5t-19.5 47.5zM1673 176v492h62v-492q0 -131 114 -131q78 0 127 49v-80q-53 -33 -127 -32q-82 0 -129 56t-47 138zM766 606v62h315v510q0 131 75 215t204 84q104 0 180 -45v-76 q-76 59 -180 59q-102 0 -159.5 -66.5t-57.5 -170.5v-510h305v-62h-305v-751q0 -113 -68 -207q-70 -100 -176 -123l-14 59q86 20 141 100t55 171v751h-315zM41 606v62h315v510q0 131 75 215t204 84q104 0 180 -45v-76q-76 59 -180 59q-102 0 -159.5 -66.5t-57.5 -170.5v-510 h305v-62h-305v-751q0 -113 -68 -207q-70 -100 -176 -123l-14 59q86 20 141 100t55 171v751h-315z" />
<glyph unicode="&#xfb04;" horiz-adv-x="1976" d="M1673 176v1278h64v-1278q0 -131 112 -131q78 0 127 49v-80q-53 -33 -127 -32q-82 0 -129 56t-47 138zM766 606v62h315v510q0 131 75 215t204 84q104 0 180 -45v-76q-76 59 -180 59q-102 0 -159.5 -66.5t-57.5 -170.5v-510h305v-62h-305v-751q0 -113 -68 -207 q-70 -100 -176 -123l-14 59q86 20 141 100t55 171v751h-315zM41 606v62h315v510q0 131 75 215t204 84q104 0 180 -45v-76q-76 59 -180 59q-102 0 -159.5 -66.5t-57.5 -170.5v-510h305v-62h-305v-751q0 -113 -68 -207q-70 -100 -176 -123l-14 59q86 20 141 100t55 171v751 h-315z" />
</font>
</defs>
</svg>
